<?xml version="1.0" encoding="UTF-8" standalone="no"?>
<!-- Generator: Adobe Illustrator 15.0.0, SVG Export Plug-In . SVG Version: 6.00 Build 0)  -->

<svg
   xmlns:dc="http://purl.org/dc/elements/1.1/"
   xmlns:cc="http://creativecommons.org/ns#"
   xmlns:rdf="http://www.w3.org/1999/02/22-rdf-syntax-ns#"
   xmlns:svg="http://www.w3.org/2000/svg"
   xmlns="http://www.w3.org/2000/svg"
   xmlns:sodipodi="http://sodipodi.sourceforge.net/DTD/sodipodi-0.dtd"
   xmlns:inkscape="http://www.inkscape.org/namespaces/inkscape"
   version="1.1"
   id="Layer_1"
   x="0px"
   y="0px"
   width="600"
   height="600"
   viewBox="0 0 600.00002 600.00001"
   enable-background="new 0 0 141.73 141.73"
   xml:space="preserve"
   sodipodi:docname="CTU-logo.svg"
   inkscape:version="0.92.5 (2060ec1f9f, 2020-04-08)"><metadata
   id="metadata11"><rdf:RDF><cc:Work
       rdf:about=""><dc:format>image/svg+xml</dc:format><dc:type
         rdf:resource="http://purl.org/dc/dcmitype/StillImage" /><dc:title /></cc:Work></rdf:RDF></metadata><defs
   id="defs9">
	
</defs><sodipodi:namedview
   pagecolor="#ffffff"
   bordercolor="#666666"
   borderopacity="1"
   objecttolerance="10"
   gridtolerance="10"
   guidetolerance="10"
   inkscape:pageopacity="0"
   inkscape:pageshadow="2"
   inkscape:window-width="1920"
   inkscape:window-height="976"
   id="namedview7"
   showgrid="false"
   inkscape:zoom="0.832569"
   inkscape:cx="120.08083"
   inkscape:cy="155.51382"
   inkscape:window-x="0"
   inkscape:window-y="27"
   inkscape:window-maximized="1"
   inkscape:current-layer="Layer_1"
   fit-margin-top="0"
   fit-margin-left="0"
   fit-margin-right="0"
   fit-margin-bottom="0" />
<g
   id="g881"><path
     id="path861"
     d="m 517.63285,191.2791 17.31484,-12.63554 c -6.54911,-7.02134 -13.57522,-15.44504 -13.57522,-29.01549 0,-10.29828 7.02611,-21.5267 15.91726,-26.21077 -4.6793,-5.61898 -12.16809,-10.76573 -22.9386,-10.76573 -14.03313,0 -25.73854,10.29828 -25.73854,23.86873 0,9.3586 6.08643,17.31485 13.103,21.06401 0,13.103 6.08643,24.80364 15.91726,33.69479"
     style="fill:#ffffff;stroke-width:4.76993036;fill-opacity:1"
     inkscape:connector-curvature="0" /><path
     id="path859"
     d="M 424.96264,99.081118 439.47277,73.337803 H 417.9413 c 0,4.679302 -4.21185,9.830827 -9.36814,9.830827 -5.61421,0 -9.35384,-3.744396 -9.35384,-9.830827 h -19.18466 c 0,5.618978 -4.21661,9.830827 -9.36337,9.830827 -5.14198,0 -9.36337,-4.207079 -9.36337,-9.830827 h -21.5267 L 352.412,98.146211 c 9.83082,-0.934906 19.18943,-1.407129 28.54803,-1.407129 17.32916,0 32.30197,0.934906 44.00261,2.342036"
     style="fill:#ffffff;stroke-width:4.76993036;fill-opacity:1"
     inkscape:connector-curvature="0" /><path
     id="path857"
     d="m 385.65364,327.47969 c -2.34203,-4.22138 -4.68407,-9.36814 -4.68407,-18.72674 0,-12.17286 7.02134,-22.4616 21.99415,-29.01549 9.8356,-4.68407 17.31962,-8.89115 30.42739,-15.44503 30.89007,-15.91726 41.65103,-45.86288 41.65103,-76.74818 0,-15.44981 -4.21185,-27.6179 -9.36815,-37.91141 1.40713,8.4237 2.81426,15.44503 2.81426,23.86873 0,32.29243 -11.22841,56.16116 -40.71612,70.66652 -18.72675,9.3586 -28.08058,13.10777 -39.31854,18.72675 -15.90772,8.41892 -24.79887,19.17989 -24.79887,32.28289 0,16.38471 8.41893,28.54803 21.99892,32.30196"
     style="fill:#ca3a33;fill-opacity:1;stroke-width:4.76993036"
     inkscape:connector-curvature="0" /><path
     id="path855"
     d="m 367.39435,321.38849 c -5.14676,-5.15152 -10.76096,-14.51012 -10.76096,-26.68299 0,-15.43549 10.29351,-28.54803 28.54803,-37.90663 15.91249,-7.48402 25.27109,-11.22842 39.309,-17.78707 29.48771,-14.51013 38.38363,-39.309 38.38363,-65.98722 0,-25.73855 -8.43324,-38.85108 -15.44981,-47.27001 5.15153,9.83082 6.55389,21.53146 6.55389,31.35752 0,28.54803 -8.42847,53.35167 -41.64627,66.45944 -16.85216,7.02134 -27.61789,9.3586 -42.12802,15.90772 -22.93383,10.77527 -31.82498,23.41082 -31.82498,42.12802 0,17.78707 11.22842,34.6297 29.01549,39.78122"
     style="fill:#9457b0;fill-opacity:1;stroke-width:4.76993036"
     inkscape:connector-curvature="0" /><path
     id="path853"
     d="m 349.60728,317.6441 c -7.95625,-6.55389 -18.25453,-17.31008 -18.25453,-36.49951 0,-20.13388 8.43324,-35.10669 34.64401,-46.3351 16.84262,-7.02134 25.73854,-10.29828 41.64626,-16.37994 33.69956,-12.63555 40.7209,-37.44396 40.7209,-61.77537 0,-23.40605 -8.42847,-36.9765 -18.72675,-45.87242 6.08643,7.48879 9.8356,20.1291 9.8356,33.2321 0,30.89007 -11.70064,48.20015 -44.93275,59.90556 -13.57522,4.21662 -28.08058,8.42846 -43.05339,14.04267 -27.15044,10.29828 -41.19312,25.27586 -41.19312,50.54696 0,26.20122 20.12911,45.86765 39.31377,49.13505"
     style="fill:#389723;fill-opacity:1;stroke-width:4.76993036"
     inkscape:connector-curvature="0" /><path
     id="path851"
     d="m 330.89007,314.3767 c -18.71721,-9.36815 -27.61313,-29.49248 -27.61313,-47.27478 0,-25.74332 15.91249,-43.99307 42.58594,-53.81913 16.38471,-6.08643 29.49248,-9.83083 45.86765,-15.44503 31.82975,-11.23319 42.12803,-26.21554 42.12803,-54.7588 0,-16.37995 -6.08643,-30.42262 -15.91726,-38.37886 3.28171,3.74916 4.21662,8.42846 4.21662,12.64031 0,7.95148 -4.21662,11.70064 -10.29828,11.70064 -3.7444,0 -7.48879,-2.34204 -7.95624,-6.08166 1.87458,1.40236 3.27694,1.86504 5.14198,1.86504 5.1563,0 7.95625,-3.73962 7.95625,-8.88638 0,-7.95624 -7.48403,-12.16809 -14.97282,-13.103 -6.55388,-0.9349 -13.57999,-0.9349 -21.53623,-0.9349 -7.95148,0 -15.44027,0.46745 -25.26632,0.9349 6.07689,8.41893 26.20122,6.08166 32.29243,10.29351 -5.14676,-0.47222 -10.29351,-0.47222 -15.44504,0.93491 0,3.27694 -1.40236,7.02134 -4.6793,7.02134 -6.08166,0 -8.88638,-6.55389 -13.103,-18.24976 l -23.86873,1.86982 c -3.73963,0.46745 -5.14676,1.86981 -4.6793,4.68407 l 2.34203,23.39651 c 0,0.93967 0.93491,1.40236 1.87459,1.40236 0.93013,0 1.86981,-0.46746 2.33726,-1.86982 0.93014,-1.86981 3.7444,-6.08643 10.76573,-6.08643 10.29351,0 18.24976,9.36337 18.71721,20.12911 -3.73485,-5.15153 -12.16809,-9.83083 -26.20123,-9.83083 -10.7705,0 -19.65688,3.27217 -33.69956,3.27217 -14.97758,0 -23.40127,-5.6142 -23.40127,-12.63554 0,-3.27694 0.46745,-5.14676 2.34203,-7.48879 -6.08643,2.80949 -10.76573,7.95624 -10.76573,16.38471 0,10.29351 7.48879,21.05924 29.48771,21.05924 20.12911,0 29.48771,-12.63554 47.73746,-12.63554 8.42847,0 12.63078,4.21184 12.63078,8.88638 0,4.21661 -3.73963,7.95624 -10.29351,7.95624 -7.95625,0 -13.57045,-4.20708 -16.38471,-8.4237 -0.46746,-0.93013 -0.93014,-1.39759 -1.87459,-1.39759 -1.39758,0 -1.86504,0.93491 -1.86504,1.86505 l 0.46746,22.47114 c 0,2.80472 1.39758,4.21185 4.67453,3.74916 14.04267,-1.40713 28.54803,-3.28171 42.12802,-4.21662 25.27109,-2.33726 42.58594,-19.18466 42.58594,-37.90663 0,-2.80949 0,-5.15153 -0.47222,-7.95625 2.3468,3.7444 3.28171,7.49356 3.28171,12.17287 0,17.31961 -9.36337,30.41784 -39.31854,38.37886 -15.91248,4.20707 -27.60835,6.08166 -41.18835,9.3586 -36.03682,8.42847 -59.4381,36.03682 -59.4381,66.92689 0,28.53373 20.12911,54.27227 48.67714,58.02621"
     style="fill:#ffffff;stroke-width:4.76993036;fill-opacity:1"
     inkscape:connector-curvature="0" /><path
     id="path849"
     d="m 174.10723,145.41622 c 1.87458,-4.21185 2.33727,-7.95624 2.33727,-10.76573 0,-6.08166 -2.80472,-11.70064 -5.61898,-14.04268 7.02133,0 13.103,5.15153 13.103,12.1681 0,6.55388 -4.20708,10.76573 -9.82129,12.64031"
     style="fill:#ffffff;stroke-width:4.76993036;fill-opacity:1"
     inkscape:connector-curvature="0" /><path
     id="path847"
     d="m 260.22355,256.79887 14.97281,-7.95148 c 5.15153,-31.36229 23.86874,-53.35644 56.62862,-61.30791 -17.31485,0.93013 -32.29243,1.39759 -53.35167,2.33249 -22.46638,0.93968 -59.43811,3.74917 -85.18142,5.61898 -5.14676,0.46745 -8.4237,-1.39759 -9.83083,-5.61898 -1.39759,-4.67453 -4.20708,-13.57045 -4.6793,-18.7172 -0.46745,-4.21185 0.47222,-7.02134 4.21662,-9.83083 7.48402,-5.14676 14.97281,-11.22842 14.97281,-23.86396 0,-13.57522 -11.70064,-22.46637 -22.4616,-22.46637 -3.74917,0 -6.55389,0.47222 -8.89115,1.40712 -2.80949,-1.87458 -5.61421,-3.27694 -11.23796,-3.27694 -7.95147,0 -14.97281,5.14676 -16.84739,9.35861 -13.57045,-0.93491 -24.33619,8.89592 -23.40128,21.99892 1.87458,-1.86982 5.61421,-3.74917 9.83083,-3.74917 5.14675,0 9.82605,3.74917 9.82605,9.36337 0,5.15153 -0.9349,11.70064 -0.9349,18.72198 0,21.53147 17.31961,32.76465 17.31961,43.99307 0,5.61898 -4.21184,10.29828 -9.83082,10.29828 3.27694,11.70064 14.0379,17.7823 28.54803,17.7823 9.36337,0 17.78707,-0.93014 31.35752,-0.93014 38.84632,-0.005 55.69371,4.20708 58.97542,16.83786"
     style="fill:#ffffff;stroke-width:4.76993036;fill-opacity:1"
     inkscape:connector-curvature="0" /><path
     id="path845"
     d="m 404.37085,389.25029 h 4.67453 c -0.47222,-14.97281 -4.20708,-25.27109 -10.29351,-36.03682 -3.27694,-6.07689 -7.48402,-12.63555 -10.76573,-16.85216 -1.86981,-2.80472 -4.20708,-3.73486 -7.02134,-3.73486 -1.87458,0 -3.27694,1.39759 -1.87458,3.73486 3.74439,6.08643 8.89115,15.44503 15.44503,29.95516 -5.61898,0.93967 -7.02133,3.74916 -7.02133,8.42847 0.01,7.48402 7.0261,14.50535 16.85693,14.50535"
     style="fill:#ffffff;stroke-width:4.76993036;fill-opacity:1"
     inkscape:connector-curvature="0" /><path
     id="path843"
     d="m 155.84794,147.28603 c 0.46745,-13.10776 -5.14676,-20.1291 -13.103,-23.40127 1.40236,-0.46746 3.27694,-1.40236 6.08166,-1.40236 6.08643,0 12.64031,5.15152 12.64031,13.10776 0.005,4.20231 -1.40236,8.88639 -5.61897,11.69587"
     style="fill:#ffffff;stroke-width:4.76993036;fill-opacity:1"
     inkscape:connector-curvature="0" /><path
     id="path841"
     d="m 455.85271,476.76898 c -1.87458,-4.21185 -7.95625,-8.41893 -15.44027,-8.41893 -4.21661,0 -7.02133,0.93014 -8.89592,1.86504 0.47223,-3.74439 4.21662,-7.95147 11.70541,-7.95147 8.89115,0 13.57045,7.02134 12.63078,14.50536"
     style="fill:#ffffff;stroke-width:4.76993036;fill-opacity:1"
     inkscape:connector-curvature="0" /><path
     id="path839"
     d="m 453.04322,496.90285 c -2.80472,-3.28171 -7.48879,-6.08643 -13.57045,-6.08643 -7.48879,0 -11.22842,3.27694 -13.10777,5.61421 -0.93491,-5.61421 3.74439,-12.63555 12.63554,-12.63555 9.36815,-0.005 14.04268,6.55389 14.04268,13.10777"
     style="fill:#ffffff;stroke-width:4.76993036;fill-opacity:1"
     inkscape:connector-curvature="0" /><path
     id="path837"
     d="m 120.27856,273.64626 c 3.28172,-7.95624 10.76574,-13.57045 19.66166,-15.44026 1.86981,-2.81426 4.20708,-5.14676 6.55388,-7.02134 l -15.91249,-66.45944 c -1.87458,-4.6793 -3.27694,-9.36338 -3.27694,-15.91249 0,-7.02134 1.40236,-14.04267 1.40236,-17.78707 0,-3.27694 -1.87458,-4.21185 -3.74439,-4.21185 -1.40236,0 -2.34204,0 -2.80949,0.47222 v 1.86982 c 0,10.76573 -6.55389,19.18466 -17.31485,19.18466 -10.765733,0 -19.1942,-8.88638 -19.1942,-19.18466 0,-10.29828 8.428467,-18.71721 19.1942,-18.71721 1.86981,0 4.21185,0 7.02134,0.93491 3.27217,-8.42847 13.57045,-15.91249 24.33618,-14.51013 -7.48879,-9.35861 -18.7172,-14.97281 -31.35275,-14.97281 -27.150444,0 -48.67714,19.65211 -48.67714,47.26524 0,25.74331 21.059243,46.3351 47.27001,46.80255 z"
     style="fill:#ffffff;stroke-width:4.76993036;fill-opacity:1"
     inkscape:connector-curvature="0" /><path
     id="path835"
     d="m 192.82444,374.27748 c 7.02133,0 14.51012,-3.74439 21.53146,-10.76573 12.63555,-12.17286 30.42262,-30.42262 41.18358,-37.44395 9.36337,-6.0769 15.44504,-8.42847 21.5267,-8.42847 3.74916,0 6.55388,0.93967 9.3586,3.74439 l 15.91249,-12.17286 c -18.24976,-13.57045 -26.67822,-31.35275 -27.14568,-53.35167 -25.27109,13.57045 -43.52561,32.28766 -64.58485,50.0795 -3.74917,2.80472 -5.61898,4.21185 -8.89592,4.21185 -3.27695,0 -6.08166,-3.28171 -11.69587,-8.89115 -4.68407,-4.68407 -5.61898,-7.48879 -5.61898,-10.76574 0,-5.61897 1.86981,-7.48879 1.86981,-14.97758 0,-14.98235 -11.69587,-23.40605 -22.93382,-23.40605 -9.35861,0 -16.37994,5.1563 -18.72198,11.70541 -12.63555,0.93491 -20.59179,10.29351 -20.59179,20.11957 0,2.34681 0.46745,4.21185 0.93491,5.61898 -4.68408,2.81426 -9.36338,8.42847 -9.36338,15.91249 0,7.96101 4.21185,15.4498 11.22842,17.78707 -0.93014,-1.40713 -1.39759,-3.26741 -1.39759,-5.61421 0,-4.21185 3.7444,-7.95148 8.88638,-7.95148 4.21662,0 7.02134,1.39759 10.29828,5.13722 4.21185,5.62852 8.42847,10.77527 15.44503,16.85216 6.55389,5.61898 14.04268,9.35861 21.06402,13.58 4.21185,2.80471 7.48879,6.54434 7.48879,12.16332 0,3.74916 -2.80949,7.96101 -8.4237,9.36814 2.35158,5.14199 7.03088,7.48879 12.64509,7.48879"
     style="fill:#ffffff;stroke-width:4.76993036;fill-opacity:1"
     inkscape:connector-curvature="0" /><path
     id="path833"
     d="m 166.15099,283.00963 c -0.47223,-9.36337 -7.4888,-16.85216 -16.38472,-18.72197 1.40713,-0.93014 3.74917,-2.33727 7.4888,-2.33727 6.55388,0 11.7054,5.61421 11.7054,11.69587 -0.005,4.68407 -1.41189,7.02134 -2.80948,9.36337"
     style="fill:#ffffff;stroke-width:4.76993036;fill-opacity:1"
     inkscape:connector-curvature="0" /><path
     id="path831"
     d="m 218.1003,529.19528 c -1.87459,-2.34203 -2.80949,-4.6793 -2.80949,-7.49356 0,-5.61421 4.67453,-9.82606 11.22841,-9.82606 10.29828,0 15.91249,11.22842 29.48771,11.22842 15.44504,0 22.93383,-11.22842 36.9765,-11.22842 7.02134,0 16.84263,4.21185 16.84263,13.103 0,1.40713 -0.46745,2.81426 -1.39759,3.7444 15.90295,0 27.14567,-13.57045 27.14567,-36.0416 0,-31.34798 -0.93967,-43.99783 -1.40713,-61.30791 12.1681,-0.46745 23.87351,-6.55389 21.99415,-25.73855 -3.28171,2.80472 -7.02133,4.21185 -11.22841,4.21185 -5.61898,0 -9.83083,-4.21185 -9.83083,-10.29828 0,-2.80949 0,-6.08643 0.47222,-9.3586 l 54.75403,-1.40713 c -5.14198,-2.80949 -8.89115,-8.42847 -8.89115,-14.97281 0,-4.68407 1.87936,-7.96101 5.62375,-9.8356 -5.15152,-10.76573 -9.36337,-19.18943 -14.51013,-27.1409 -2.80949,-4.21185 -6.08166,-8.42847 -12.64031,-8.42847 -14.50536,-0.46745 -43.9883,3.73963 -58.96588,8.89115 -11.23319,3.73963 -21.99892,12.16809 -21.99892,31.35752 0,17.7823 6.08643,49.13983 5.61421,98.28442 0,7.02134 -1.87458,9.3586 -6.08166,10.28874 -3.7444,0.93968 -13.57046,1.87458 -19.65689,0.93968 -3.27694,-0.46746 -6.08166,-2.80472 -7.95624,-9.82606 -2.34204,-9.8356 -9.3586,-19.66642 -23.40128,-19.66642 -12.63554,0 -23.86396,9.36814 -21.99892,23.40128 -6.08166,3.74916 -8.89115,9.83559 -8.89115,15.44503 0,5.60944 1.86981,10.29828 4.21185,13.10777 -1.40236,3.28171 -1.87458,5.14198 -1.87458,8.4237 -0.005,11.71494 10.29351,20.14341 19.18943,20.14341"
     style="fill:#ffffff;stroke-width:4.76993036;fill-opacity:1"
     inkscape:connector-curvature="0" /><path
     id="path829"
     d="m 152.10831,295.64995 c -2.80949,-5.61421 -8.89115,-8.89115 -15.91249,-8.89115 -2.80472,0 -5.14675,0.46745 -7.02134,0.93014 0.93491,-3.7444 5.14676,-7.02134 11.23319,-7.02134 7.95148,0 13.103,6.0912 11.70064,14.98235"
     style="fill:#ffffff;stroke-width:4.76993036;fill-opacity:1"
     inkscape:connector-curvature="0" /><path
     id="path827"
     d="m 234.00802,476.76898 c -1.86982,-4.21185 -7.95625,-8.41893 -15.44504,-8.41893 -4.21185,0 -7.02134,0.93014 -8.89115,1.86504 0.47222,-3.74439 4.21185,-7.95147 11.70064,-7.95147 8.89115,0 13.57045,7.02134 12.63555,14.50536"
     style="fill:#ffffff;stroke-width:4.76993036;fill-opacity:1"
     inkscape:connector-curvature="0" /><path
     id="path825"
     d="m 194.2268,517.49464 c -1.40236,-2.81426 -1.87459,-5.61898 -1.87459,-8.42846 0,-2.80472 0.46746,-5.14199 1.40236,-7.4888 -2.34203,-4.20707 -3.73962,-8.89115 -3.73962,-14.0379 0,-7.02134 3.27217,-13.57045 7.95147,-17.78707 L 168.95093,343.85487 c -4.68407,-2.33727 -9.36337,-5.14676 -13.10776,-8.42847 -6.55389,-5.61421 -10.29351,-9.82606 -16.37995,-16.84263 -1.86981,-1.88412 -3.27694,-2.81425 -5.15152,-2.81425 -2.80472,0 -4.67453,1.87458 -3.73963,5.61897 l 6.08167,29.01072 12.63554,8.89592 35.10192,150.71072 z"
     style="fill:#ffffff;stroke-width:4.76993036;fill-opacity:1"
     inkscape:connector-curvature="0" /><path
     id="path823"
     d="m 231.2033,496.90285 c -2.80949,-3.28171 -7.48879,-6.08643 -13.57046,-6.08643 -7.48879,0 -11.23795,3.27694 -13.11253,5.61421 -0.93014,-5.61421 3.74916,-12.63555 12.64031,-12.63555 9.3586,-0.005 14.04268,6.55389 14.04268,13.10777"
     style="fill:#ffffff;stroke-width:4.76993036;fill-opacity:1"
     inkscape:connector-curvature="0" /><path
     id="path821"
     d="M -1.688e-7,532 28.543263,510.01062 63.645181,359.2999 76.285497,350.40398 104.36608,229.6675 98.279646,201.58215 c -7.021338,-1.40713 -13.107769,-3.27694 -18.254524,-6.08643 z"
     style="fill:#ffffff;stroke-width:4.76993036;fill-opacity:1"
     inkscape:connector-curvature="0" /><path
     id="path2"
     d="m 439.94022,529.19528 c -1.87458,-2.34203 -2.81426,-4.6793 -2.81426,-7.49356 0,-5.61421 4.68407,-9.82606 11.23796,-9.82606 10.29351,0 15.91249,11.22842 29.48771,11.22842 15.44026,0 22.93382,-11.22842 36.97173,-11.22842 7.02134,0 16.84739,4.21185 16.84739,13.103 0,1.40713 -0.47222,2.81426 -1.40713,3.7444 15.91726,0 27.15045,-13.57045 27.15045,-36.0416 0,-29.95039 -2.80949,-63.17772 -6.0912,-96.40983 8.42846,-1.87458 16.38948,-10.29828 16.38948,-21.06401 0,-3.7444 -1.40236,-7.95148 -3.74917,-11.69587 -2.33727,3.28171 -6.54434,6.07689 -13.57045,7.95147 -9.83083,2.81426 -21.99415,4.22139 -30.89007,4.22139 -20.12434,0 -26.68299,-1.40713 -36.04159,-4.22139 -0.47223,-12.63077 -8.4237,-22.92905 -15.91249,-29.94562 11.70064,4.67453 16.84739,7.02134 35.56937,7.02134 59.91032,0 96.88205,-40.24868 96.88205,-86.1211 0,-33.22733 -21.05924,-48.67237 -40.24867,-59.91032 l -17.78707,12.64031 c 21.53147,9.83083 35.56937,24.33142 35.56937,43.9883 0,21.53147 -17.31484,36.9765 -37.44395,36.9765 -21.5267,0 -38.37886,-15.44503 -38.37886,-36.50904 0,-15.90295 7.49356,-27.60359 21.53623,-38.84155 14.03791,-11.23318 35.56461,-24.80841 47.26525,-37.44395 6.08643,-6.55389 11.23318,-16.8474 10.76573,-24.80364 7.96101,-3.74916 14.04267,-11.70541 14.04267,-21.99892 0,-13.57045 -13.103,-23.86873 -27.14567,-23.86873 -8.42847,0 -17.78707,5.15152 -22.46637,10.76573 8.42846,3.27694 16.38948,14.51013 16.38948,26.21077 0,9.83083 -6.08643,18.24975 -13.11254,25.27109 -10.76096,10.76096 -24.80364,18.72198 -40.24867,31.35752 -18.72198,15.44981 -29.95517,33.69956 -29.95517,54.28658 0,28.54804 21.99892,55.22626 56.62862,55.22626 11.23795,0 20.13387,-2.33727 26.68776,-6.55389 -11.23796,13.10777 -32.2972,19.65688 -54.29612,19.65688 -19.18943,0 -32.2972,-2.80471 -46.3351,-13.10299 -12.63555,-9.35861 -22.46638,-31.35276 -21.99415,-47.74224 -10.29828,6.08643 -22.47114,11.70541 -32.75988,16.38948 -14.51013,7.02611 -19.18943,14.51013 -19.18943,27.14091 0,16.84739 11.70063,29.95516 16.84739,39.78122 7.02134,12.63554 9.36337,23.86873 10.29828,35.57414 2.80472,28.54803 19.18943,41.64626 48.20492,41.64626 13.09822,0 30.41784,-0.93968 37.44395,-1.87458 2.80472,13.11254 6.08166,28.54803 6.08166,40.25344 0,7.02134 -1.87935,9.3586 -6.08166,10.28874 -3.7444,0.93968 -13.57999,1.87458 -19.65688,0.93968 -3.28172,-0.46746 -6.08643,-2.80472 -7.96102,-9.82606 -2.33726,-9.8356 -9.3586,-19.66642 -23.39651,-19.66642 -12.64031,0 -23.8735,9.36814 -21.99892,23.40128 -6.07689,3.74916 -8.89115,9.83559 -8.89115,15.44503 0,5.60944 1.87459,10.29828 4.21185,13.10777 -1.39759,3.28171 -1.86981,5.14198 -1.86981,8.4237 -0.005,11.71971 10.29351,20.14818 19.18466,20.14818"
     style="fill:#ffffff;stroke-width:4.76993036;fill-opacity:1"
     inkscape:connector-curvature="0" /></g>
</svg>