<?xml version="1.0" encoding="utf-8"?>
<svg xmlns="http://www.w3.org/2000/svg" xmlns:xlink="http://www.w3.org/1999/xlink" width="600" height="400" viewBox="0 0 2400 1600">
<defs>
  <clipPath id="clip740">
    <rect x="0" y="0" width="2400" height="1600"/>
  </clipPath>
</defs>
<path clip-path="url(#clip740)" d="
M0 1600 L2400 1600 L2400 0 L0 0  Z
  " fill="#ffffff" fill-rule="evenodd" fill-opacity="1"/>
<defs>
  <clipPath id="clip741">
    <rect x="480" y="0" width="1681" height="1600"/>
  </clipPath>
</defs>
<path clip-path="url(#clip740)" d="
M155.765 1423.18 L2352.76 1423.18 L2352.76 47.2441 L155.765 47.2441  Z
  " fill="#ffffff" fill-rule="evenodd" fill-opacity="1"/>
<defs>
  <clipPath id="clip742">
    <rect x="155" y="47" width="2198" height="1377"/>
  </clipPath>
</defs>
<polyline clip-path="url(#clip742)" style="stroke:#000000; stroke-linecap:butt; stroke-linejoin:round; stroke-width:2; stroke-opacity:0.1; fill:none" points="
  215.869,1423.18 215.869,47.2441 
  "/>
<polyline clip-path="url(#clip742)" style="stroke:#000000; stroke-linecap:butt; stroke-linejoin:round; stroke-width:2; stroke-opacity:0.1; fill:none" points="
  734.546,1423.18 734.546,47.2441 
  "/>
<polyline clip-path="url(#clip742)" style="stroke:#000000; stroke-linecap:butt; stroke-linejoin:round; stroke-width:2; stroke-opacity:0.1; fill:none" points="
  1253.22,1423.18 1253.22,47.2441 
  "/>
<polyline clip-path="url(#clip742)" style="stroke:#000000; stroke-linecap:butt; stroke-linejoin:round; stroke-width:2; stroke-opacity:0.1; fill:none" points="
  1771.9,1423.18 1771.9,47.2441 
  "/>
<polyline clip-path="url(#clip742)" style="stroke:#000000; stroke-linecap:butt; stroke-linejoin:round; stroke-width:2; stroke-opacity:0.1; fill:none" points="
  2290.58,1423.18 2290.58,47.2441 
  "/>
<polyline clip-path="url(#clip740)" style="stroke:#000000; stroke-linecap:butt; stroke-linejoin:round; stroke-width:4; stroke-opacity:1; fill:none" points="
  155.765,1423.18 2352.76,1423.18 
  "/>
<polyline clip-path="url(#clip740)" style="stroke:#000000; stroke-linecap:butt; stroke-linejoin:round; stroke-width:4; stroke-opacity:1; fill:none" points="
  215.869,1423.18 215.869,1406.67 
  "/>
<polyline clip-path="url(#clip740)" style="stroke:#000000; stroke-linecap:butt; stroke-linejoin:round; stroke-width:4; stroke-opacity:1; fill:none" points="
  734.546,1423.18 734.546,1406.67 
  "/>
<polyline clip-path="url(#clip740)" style="stroke:#000000; stroke-linecap:butt; stroke-linejoin:round; stroke-width:4; stroke-opacity:1; fill:none" points="
  1253.22,1423.18 1253.22,1406.67 
  "/>
<polyline clip-path="url(#clip740)" style="stroke:#000000; stroke-linecap:butt; stroke-linejoin:round; stroke-width:4; stroke-opacity:1; fill:none" points="
  1771.9,1423.18 1771.9,1406.67 
  "/>
<polyline clip-path="url(#clip740)" style="stroke:#000000; stroke-linecap:butt; stroke-linejoin:round; stroke-width:4; stroke-opacity:1; fill:none" points="
  2290.58,1423.18 2290.58,1406.67 
  "/>
<path clip-path="url(#clip740)" d="M215.869 1452.37 Q212.258 1452.37 210.429 1455.94 Q208.624 1459.48 208.624 1466.61 Q208.624 1473.71 210.429 1477.28 Q212.258 1480.82 215.869 1480.82 Q219.503 1480.82 221.309 1477.28 Q223.138 1473.71 223.138 1466.61 Q223.138 1459.48 221.309 1455.94 Q219.503 1452.37 215.869 1452.37 M215.869 1448.67 Q221.679 1448.67 224.735 1453.27 Q227.814 1457.86 227.814 1466.61 Q227.814 1475.33 224.735 1479.94 Q221.679 1484.52 215.869 1484.52 Q210.059 1484.52 206.98 1479.94 Q203.925 1475.33 203.925 1466.61 Q203.925 1457.86 206.98 1453.27 Q210.059 1448.67 215.869 1448.67 Z" fill="#000000" fill-rule="evenodd" fill-opacity="1" /><path clip-path="url(#clip740)" d="M698.238 1479.92 L714.558 1479.92 L714.558 1483.85 L692.613 1483.85 L692.613 1479.92 Q695.275 1477.16 699.859 1472.53 Q704.465 1467.88 705.646 1466.54 Q707.891 1464.01 708.771 1462.28 Q709.674 1460.52 709.674 1458.83 Q709.674 1456.07 707.729 1454.34 Q705.808 1452.6 702.706 1452.6 Q700.507 1452.6 698.053 1453.37 Q695.623 1454.13 692.845 1455.68 L692.845 1450.96 Q695.669 1449.82 698.123 1449.25 Q700.576 1448.67 702.613 1448.67 Q707.984 1448.67 711.178 1451.35 Q714.373 1454.04 714.373 1458.53 Q714.373 1460.66 713.562 1462.58 Q712.775 1464.48 710.669 1467.07 Q710.09 1467.74 706.988 1470.96 Q703.887 1474.15 698.238 1479.92 Z" fill="#000000" fill-rule="evenodd" fill-opacity="1" /><path clip-path="url(#clip740)" d="M724.419 1449.29 L742.775 1449.29 L742.775 1453.23 L728.701 1453.23 L728.701 1461.7 Q729.72 1461.35 730.738 1461.19 Q731.757 1461 732.775 1461 Q738.562 1461 741.942 1464.18 Q745.322 1467.35 745.322 1472.76 Q745.322 1478.34 741.849 1481.44 Q738.377 1484.52 732.058 1484.52 Q729.882 1484.52 727.613 1484.15 Q725.368 1483.78 722.961 1483.04 L722.961 1478.34 Q725.044 1479.48 727.266 1480.03 Q729.488 1480.59 731.965 1480.59 Q735.97 1480.59 738.308 1478.48 Q740.646 1476.38 740.646 1472.76 Q740.646 1469.15 738.308 1467.05 Q735.97 1464.94 731.965 1464.94 Q730.09 1464.94 728.215 1465.36 Q726.363 1465.77 724.419 1466.65 L724.419 1449.29 Z" fill="#000000" fill-rule="evenodd" fill-opacity="1" /><path clip-path="url(#clip740)" d="M764.534 1452.37 Q760.923 1452.37 759.095 1455.94 Q757.289 1459.48 757.289 1466.61 Q757.289 1473.71 759.095 1477.28 Q760.923 1480.82 764.534 1480.82 Q768.169 1480.82 769.974 1477.28 Q771.803 1473.71 771.803 1466.61 Q771.803 1459.48 769.974 1455.94 Q768.169 1452.37 764.534 1452.37 M764.534 1448.67 Q770.345 1448.67 773.4 1453.27 Q776.479 1457.86 776.479 1466.61 Q776.479 1475.33 773.4 1479.94 Q770.345 1484.52 764.534 1484.52 Q758.724 1484.52 755.646 1479.94 Q752.59 1475.33 752.59 1466.61 Q752.59 1457.86 755.646 1453.27 Q758.724 1448.67 764.534 1448.67 Z" fill="#000000" fill-rule="evenodd" fill-opacity="1" /><path clip-path="url(#clip740)" d="M1212.84 1449.29 L1231.2 1449.29 L1231.2 1453.23 L1217.12 1453.23 L1217.12 1461.7 Q1218.14 1461.35 1219.16 1461.19 Q1220.18 1461 1221.2 1461 Q1226.98 1461 1230.36 1464.18 Q1233.74 1467.35 1233.74 1472.76 Q1233.74 1478.34 1230.27 1481.44 Q1226.8 1484.52 1220.48 1484.52 Q1218.3 1484.52 1216.04 1484.15 Q1213.79 1483.78 1211.38 1483.04 L1211.38 1478.34 Q1213.47 1479.48 1215.69 1480.03 Q1217.91 1480.59 1220.39 1480.59 Q1224.39 1480.59 1226.73 1478.48 Q1229.07 1476.38 1229.07 1472.76 Q1229.07 1469.15 1226.73 1467.05 Q1224.39 1464.94 1220.39 1464.94 Q1218.51 1464.94 1216.64 1465.36 Q1214.79 1465.77 1212.84 1466.65 L1212.84 1449.29 Z" fill="#000000" fill-rule="evenodd" fill-opacity="1" /><path clip-path="url(#clip740)" d="M1252.96 1452.37 Q1249.35 1452.37 1247.52 1455.94 Q1245.71 1459.48 1245.71 1466.61 Q1245.71 1473.71 1247.52 1477.28 Q1249.35 1480.82 1252.96 1480.82 Q1256.59 1480.82 1258.4 1477.28 Q1260.23 1473.71 1260.23 1466.61 Q1260.23 1459.48 1258.4 1455.94 Q1256.59 1452.37 1252.96 1452.37 M1252.96 1448.67 Q1258.77 1448.67 1261.82 1453.27 Q1264.9 1457.86 1264.9 1466.61 Q1264.9 1475.33 1261.82 1479.94 Q1258.77 1484.52 1252.96 1484.52 Q1247.15 1484.52 1244.07 1479.94 Q1241.01 1475.33 1241.01 1466.61 Q1241.01 1457.86 1244.07 1453.27 Q1247.15 1448.67 1252.96 1448.67 Z" fill="#000000" fill-rule="evenodd" fill-opacity="1" /><path clip-path="url(#clip740)" d="M1283.12 1452.37 Q1279.51 1452.37 1277.68 1455.94 Q1275.87 1459.48 1275.87 1466.61 Q1275.87 1473.71 1277.68 1477.28 Q1279.51 1480.82 1283.12 1480.82 Q1286.75 1480.82 1288.56 1477.28 Q1290.39 1473.71 1290.39 1466.61 Q1290.39 1459.48 1288.56 1455.94 Q1286.75 1452.37 1283.12 1452.37 M1283.12 1448.67 Q1288.93 1448.67 1291.98 1453.27 Q1295.06 1457.86 1295.06 1466.61 Q1295.06 1475.33 1291.98 1479.94 Q1288.93 1484.52 1283.12 1484.52 Q1277.31 1484.52 1274.23 1479.94 Q1271.17 1475.33 1271.17 1466.61 Q1271.17 1457.86 1274.23 1453.27 Q1277.31 1448.67 1283.12 1448.67 Z" fill="#000000" fill-rule="evenodd" fill-opacity="1" /><path clip-path="url(#clip740)" d="M1730.18 1449.29 L1752.4 1449.29 L1752.4 1451.28 L1739.85 1483.85 L1734.97 1483.85 L1746.77 1453.23 L1730.18 1453.23 L1730.18 1449.29 Z" fill="#000000" fill-rule="evenodd" fill-opacity="1" /><path clip-path="url(#clip740)" d="M1761.56 1449.29 L1779.92 1449.29 L1779.92 1453.23 L1765.85 1453.23 L1765.85 1461.7 Q1766.87 1461.35 1767.88 1461.19 Q1768.9 1461 1769.92 1461 Q1775.71 1461 1779.09 1464.18 Q1782.47 1467.35 1782.47 1472.76 Q1782.47 1478.34 1778.99 1481.44 Q1775.52 1484.52 1769.2 1484.52 Q1767.03 1484.52 1764.76 1484.15 Q1762.51 1483.78 1760.11 1483.04 L1760.11 1478.34 Q1762.19 1479.48 1764.41 1480.03 Q1766.63 1480.59 1769.11 1480.59 Q1773.12 1480.59 1775.45 1478.48 Q1777.79 1476.38 1777.79 1472.76 Q1777.79 1469.15 1775.45 1467.05 Q1773.12 1464.94 1769.11 1464.94 Q1767.24 1464.94 1765.36 1465.36 Q1763.51 1465.77 1761.56 1466.65 L1761.56 1449.29 Z" fill="#000000" fill-rule="evenodd" fill-opacity="1" /><path clip-path="url(#clip740)" d="M1801.68 1452.37 Q1798.07 1452.37 1796.24 1455.94 Q1794.43 1459.48 1794.43 1466.61 Q1794.43 1473.71 1796.24 1477.28 Q1798.07 1480.82 1801.68 1480.82 Q1805.31 1480.82 1807.12 1477.28 Q1808.95 1473.71 1808.95 1466.61 Q1808.95 1459.48 1807.12 1455.94 Q1805.31 1452.37 1801.68 1452.37 M1801.68 1448.67 Q1807.49 1448.67 1810.55 1453.27 Q1813.62 1457.86 1813.62 1466.61 Q1813.62 1475.33 1810.55 1479.94 Q1807.49 1484.52 1801.68 1484.52 Q1795.87 1484.52 1792.79 1479.94 Q1789.74 1475.33 1789.74 1466.61 Q1789.74 1457.86 1792.79 1453.27 Q1795.87 1448.67 1801.68 1448.67 Z" fill="#000000" fill-rule="evenodd" fill-opacity="1" /><path clip-path="url(#clip740)" d="M2235.1 1479.92 L2242.74 1479.92 L2242.74 1453.55 L2234.43 1455.22 L2234.43 1450.96 L2242.7 1449.29 L2247.37 1449.29 L2247.37 1479.92 L2255.01 1479.92 L2255.01 1483.85 L2235.1 1483.85 L2235.1 1479.92 Z" fill="#000000" fill-rule="evenodd" fill-opacity="1" /><path clip-path="url(#clip740)" d="M2274.45 1452.37 Q2270.84 1452.37 2269.01 1455.94 Q2267.21 1459.48 2267.21 1466.61 Q2267.21 1473.71 2269.01 1477.28 Q2270.84 1480.82 2274.45 1480.82 Q2278.09 1480.82 2279.89 1477.28 Q2281.72 1473.71 2281.72 1466.61 Q2281.72 1459.48 2279.89 1455.94 Q2278.09 1452.37 2274.45 1452.37 M2274.45 1448.67 Q2280.26 1448.67 2283.32 1453.27 Q2286.4 1457.86 2286.4 1466.61 Q2286.4 1475.33 2283.32 1479.94 Q2280.26 1484.52 2274.45 1484.52 Q2268.64 1484.52 2265.57 1479.94 Q2262.51 1475.33 2262.51 1466.61 Q2262.51 1457.86 2265.57 1453.27 Q2268.64 1448.67 2274.45 1448.67 Z" fill="#000000" fill-rule="evenodd" fill-opacity="1" /><path clip-path="url(#clip740)" d="M2304.62 1452.37 Q2301.01 1452.37 2299.18 1455.94 Q2297.37 1459.48 2297.37 1466.61 Q2297.37 1473.71 2299.18 1477.28 Q2301.01 1480.82 2304.62 1480.82 Q2308.25 1480.82 2310.06 1477.28 Q2311.88 1473.71 2311.88 1466.61 Q2311.88 1459.48 2310.06 1455.94 Q2308.25 1452.37 2304.62 1452.37 M2304.62 1448.67 Q2310.43 1448.67 2313.48 1453.27 Q2316.56 1457.86 2316.56 1466.61 Q2316.56 1475.33 2313.48 1479.94 Q2310.43 1484.52 2304.62 1484.52 Q2298.81 1484.52 2295.73 1479.94 Q2292.67 1475.33 2292.67 1466.61 Q2292.67 1457.86 2295.73 1453.27 Q2298.81 1448.67 2304.62 1448.67 Z" fill="#000000" fill-rule="evenodd" fill-opacity="1" /><path clip-path="url(#clip740)" d="M2334.78 1452.37 Q2331.17 1452.37 2329.34 1455.94 Q2327.53 1459.48 2327.53 1466.61 Q2327.53 1473.71 2329.34 1477.28 Q2331.17 1480.82 2334.78 1480.82 Q2338.41 1480.82 2340.22 1477.28 Q2342.05 1473.71 2342.05 1466.61 Q2342.05 1459.48 2340.22 1455.94 Q2338.41 1452.37 2334.78 1452.37 M2334.78 1448.67 Q2340.59 1448.67 2343.64 1453.27 Q2346.72 1457.86 2346.72 1466.61 Q2346.72 1475.33 2343.64 1479.94 Q2340.59 1484.52 2334.78 1484.52 Q2328.97 1484.52 2325.89 1479.94 Q2322.83 1475.33 2322.83 1466.61 Q2322.83 1457.86 2325.89 1453.27 Q2328.97 1448.67 2334.78 1448.67 Z" fill="#000000" fill-rule="evenodd" fill-opacity="1" /><path clip-path="url(#clip740)" d="M1253.32 1522.27 L1253.32 1532.4 L1265.38 1532.4 L1265.38 1536.95 L1253.32 1536.95 L1253.32 1556.3 Q1253.32 1560.66 1254.5 1561.9 Q1255.71 1563.14 1259.37 1563.14 L1265.38 1563.14 L1265.38 1568.04 L1259.37 1568.04 Q1252.59 1568.04 1250.01 1565.53 Q1247.43 1562.98 1247.43 1556.3 L1247.43 1536.95 L1243.14 1536.95 L1243.14 1532.4 L1247.43 1532.4 L1247.43 1522.27 L1253.32 1522.27 Z" fill="#000000" fill-rule="evenodd" fill-opacity="1" /><polyline clip-path="url(#clip742)" style="stroke:#000000; stroke-linecap:butt; stroke-linejoin:round; stroke-width:2; stroke-opacity:0.1; fill:none" points="
  155.765,1191.19 2352.76,1191.19 
  "/>
<polyline clip-path="url(#clip742)" style="stroke:#000000; stroke-linecap:butt; stroke-linejoin:round; stroke-width:2; stroke-opacity:0.1; fill:none" points="
  155.765,938.577 2352.76,938.577 
  "/>
<polyline clip-path="url(#clip742)" style="stroke:#000000; stroke-linecap:butt; stroke-linejoin:round; stroke-width:2; stroke-opacity:0.1; fill:none" points="
  155.765,685.962 2352.76,685.962 
  "/>
<polyline clip-path="url(#clip742)" style="stroke:#000000; stroke-linecap:butt; stroke-linejoin:round; stroke-width:2; stroke-opacity:0.1; fill:none" points="
  155.765,433.346 2352.76,433.346 
  "/>
<polyline clip-path="url(#clip742)" style="stroke:#000000; stroke-linecap:butt; stroke-linejoin:round; stroke-width:2; stroke-opacity:0.1; fill:none" points="
  155.765,180.73 2352.76,180.73 
  "/>
<polyline clip-path="url(#clip740)" style="stroke:#000000; stroke-linecap:butt; stroke-linejoin:round; stroke-width:4; stroke-opacity:1; fill:none" points="
  155.765,1423.18 155.765,47.2441 
  "/>
<polyline clip-path="url(#clip740)" style="stroke:#000000; stroke-linecap:butt; stroke-linejoin:round; stroke-width:4; stroke-opacity:1; fill:none" points="
  155.765,1191.19 182.129,1191.19 
  "/>
<polyline clip-path="url(#clip740)" style="stroke:#000000; stroke-linecap:butt; stroke-linejoin:round; stroke-width:4; stroke-opacity:1; fill:none" points="
  155.765,938.577 182.129,938.577 
  "/>
<polyline clip-path="url(#clip740)" style="stroke:#000000; stroke-linecap:butt; stroke-linejoin:round; stroke-width:4; stroke-opacity:1; fill:none" points="
  155.765,685.962 182.129,685.962 
  "/>
<polyline clip-path="url(#clip740)" style="stroke:#000000; stroke-linecap:butt; stroke-linejoin:round; stroke-width:4; stroke-opacity:1; fill:none" points="
  155.765,433.346 182.129,433.346 
  "/>
<polyline clip-path="url(#clip740)" style="stroke:#000000; stroke-linecap:butt; stroke-linejoin:round; stroke-width:4; stroke-opacity:1; fill:none" points="
  155.765,180.73 182.129,180.73 
  "/>
<path clip-path="url(#clip740)" d="M63.5847 1176.99 Q59.9736 1176.99 58.1449 1180.56 Q56.3393 1184.1 56.3393 1191.23 Q56.3393 1198.33 58.1449 1201.9 Q59.9736 1205.44 63.5847 1205.44 Q67.2189 1205.44 69.0244 1201.9 Q70.8531 1198.33 70.8531 1191.23 Q70.8531 1184.1 69.0244 1180.56 Q67.2189 1176.99 63.5847 1176.99 M63.5847 1173.29 Q69.3948 1173.29 72.4503 1177.89 Q75.529 1182.48 75.529 1191.23 Q75.529 1199.95 72.4503 1204.56 Q69.3948 1209.14 63.5847 1209.14 Q57.7745 1209.14 54.6958 1204.56 Q51.6403 1199.95 51.6403 1191.23 Q51.6403 1182.48 54.6958 1177.89 Q57.7745 1173.29 63.5847 1173.29 Z" fill="#000000" fill-rule="evenodd" fill-opacity="1" /><path clip-path="url(#clip740)" d="M83.7466 1202.59 L88.6308 1202.59 L88.6308 1208.47 L83.7466 1208.47 L83.7466 1202.59 Z" fill="#000000" fill-rule="evenodd" fill-opacity="1" /><path clip-path="url(#clip740)" d="M98.8622 1173.91 L117.219 1173.91 L117.219 1177.85 L103.145 1177.85 L103.145 1186.32 Q104.163 1185.97 105.182 1185.81 Q106.2 1185.63 107.219 1185.63 Q113.006 1185.63 116.385 1188.8 Q119.765 1191.97 119.765 1197.39 Q119.765 1202.96 116.293 1206.07 Q112.82 1209.14 106.501 1209.14 Q104.325 1209.14 102.057 1208.77 Q99.8113 1208.4 97.4039 1207.66 L97.4039 1202.96 Q99.4872 1204.1 101.709 1204.65 Q103.932 1205.21 106.408 1205.21 Q110.413 1205.21 112.751 1203.1 Q115.089 1201 115.089 1197.39 Q115.089 1193.77 112.751 1191.67 Q110.413 1189.56 106.408 1189.56 Q104.534 1189.56 102.659 1189.98 Q100.807 1190.39 98.8622 1191.27 L98.8622 1173.91 Z" fill="#000000" fill-rule="evenodd" fill-opacity="1" /><path clip-path="url(#clip740)" d="M53.3995 951.922 L61.0384 951.922 L61.0384 925.557 L52.7282 927.223 L52.7282 922.964 L60.9921 921.297 L65.668 921.297 L65.668 951.922 L73.3068 951.922 L73.3068 955.857 L53.3995 955.857 L53.3995 951.922 Z" fill="#000000" fill-rule="evenodd" fill-opacity="1" /><path clip-path="url(#clip740)" d="M82.7512 949.978 L87.6354 949.978 L87.6354 955.857 L82.7512 955.857 L82.7512 949.978 Z" fill="#000000" fill-rule="evenodd" fill-opacity="1" /><path clip-path="url(#clip740)" d="M107.821 924.376 Q104.209 924.376 102.381 927.941 Q100.575 931.482 100.575 938.612 Q100.575 945.719 102.381 949.283 Q104.209 952.825 107.821 952.825 Q111.455 952.825 113.26 949.283 Q115.089 945.719 115.089 938.612 Q115.089 931.482 113.26 927.941 Q111.455 924.376 107.821 924.376 M107.821 920.672 Q113.631 920.672 116.686 925.279 Q119.765 929.862 119.765 938.612 Q119.765 947.339 116.686 951.945 Q113.631 956.529 107.821 956.529 Q102.01 956.529 98.9317 951.945 Q95.8761 947.339 95.8761 938.612 Q95.8761 929.862 98.9317 925.279 Q102.01 920.672 107.821 920.672 Z" fill="#000000" fill-rule="evenodd" fill-opacity="1" /><path clip-path="url(#clip740)" d="M54.3949 699.307 L62.0337 699.307 L62.0337 672.941 L53.7236 674.608 L53.7236 670.348 L61.9874 668.682 L66.6633 668.682 L66.6633 699.307 L74.3022 699.307 L74.3022 703.242 L54.3949 703.242 L54.3949 699.307 Z" fill="#000000" fill-rule="evenodd" fill-opacity="1" /><path clip-path="url(#clip740)" d="M83.7466 697.362 L88.6308 697.362 L88.6308 703.242 L83.7466 703.242 L83.7466 697.362 Z" fill="#000000" fill-rule="evenodd" fill-opacity="1" /><path clip-path="url(#clip740)" d="M98.8622 668.682 L117.219 668.682 L117.219 672.617 L103.145 672.617 L103.145 681.089 Q104.163 680.742 105.182 680.58 Q106.2 680.395 107.219 680.395 Q113.006 680.395 116.385 683.566 Q119.765 686.737 119.765 692.154 Q119.765 697.732 116.293 700.834 Q112.82 703.913 106.501 703.913 Q104.325 703.913 102.057 703.543 Q99.8113 703.172 97.4039 702.431 L97.4039 697.732 Q99.4872 698.867 101.709 699.422 Q103.932 699.978 106.408 699.978 Q110.413 699.978 112.751 697.871 Q115.089 695.765 115.089 692.154 Q115.089 688.543 112.751 686.436 Q110.413 684.33 106.408 684.33 Q104.534 684.33 102.659 684.746 Q100.807 685.163 98.8622 686.043 L98.8622 668.682 Z" fill="#000000" fill-rule="evenodd" fill-opacity="1" /><path clip-path="url(#clip740)" d="M56.6171 446.691 L72.9365 446.691 L72.9365 450.626 L50.9921 450.626 L50.9921 446.691 Q53.6541 443.936 58.2375 439.307 Q62.8439 434.654 64.0245 433.311 Q66.2698 430.788 67.1494 429.052 Q68.0522 427.293 68.0522 425.603 Q68.0522 422.848 66.1078 421.112 Q64.1865 419.376 61.0847 419.376 Q58.8856 419.376 56.4319 420.14 Q54.0014 420.904 51.2236 422.455 L51.2236 417.733 Q54.0477 416.598 56.5014 416.02 Q58.955 415.441 60.9921 415.441 Q66.3624 415.441 69.5568 418.126 Q72.7513 420.811 72.7513 425.302 Q72.7513 427.432 71.9411 429.353 Q71.1541 431.251 69.0476 433.844 Q68.4689 434.515 65.367 437.733 Q62.2652 440.927 56.6171 446.691 Z" fill="#000000" fill-rule="evenodd" fill-opacity="1" /><path clip-path="url(#clip740)" d="M82.7512 444.746 L87.6354 444.746 L87.6354 450.626 L82.7512 450.626 L82.7512 444.746 Z" fill="#000000" fill-rule="evenodd" fill-opacity="1" /><path clip-path="url(#clip740)" d="M107.821 419.145 Q104.209 419.145 102.381 422.709 Q100.575 426.251 100.575 433.381 Q100.575 440.487 102.381 444.052 Q104.209 447.594 107.821 447.594 Q111.455 447.594 113.26 444.052 Q115.089 440.487 115.089 433.381 Q115.089 426.251 113.26 422.709 Q111.455 419.145 107.821 419.145 M107.821 415.441 Q113.631 415.441 116.686 420.047 Q119.765 424.631 119.765 433.381 Q119.765 442.108 116.686 446.714 Q113.631 451.297 107.821 451.297 Q102.01 451.297 98.9317 446.714 Q95.8761 442.108 95.8761 433.381 Q95.8761 424.631 98.9317 420.047 Q102.01 415.441 107.821 415.441 Z" fill="#000000" fill-rule="evenodd" fill-opacity="1" /><path clip-path="url(#clip740)" d="M57.6125 194.075 L73.9318 194.075 L73.9318 198.01 L51.9875 198.01 L51.9875 194.075 Q54.6495 191.321 59.2328 186.691 Q63.8393 182.038 65.0198 180.696 Q67.2652 178.172 68.1448 176.436 Q69.0476 174.677 69.0476 172.987 Q69.0476 170.233 67.1032 168.497 Q65.1819 166.76 62.08 166.76 Q59.881 166.76 57.4273 167.524 Q54.9967 168.288 52.219 169.839 L52.219 165.117 Q55.043 163.983 57.4967 163.404 Q59.9504 162.825 61.9874 162.825 Q67.3578 162.825 70.5522 165.51 Q73.7466 168.196 73.7466 172.686 Q73.7466 174.816 72.9365 176.737 Q72.1494 178.635 70.0429 181.228 Q69.4642 181.899 66.3624 185.117 Q63.2606 188.311 57.6125 194.075 Z" fill="#000000" fill-rule="evenodd" fill-opacity="1" /><path clip-path="url(#clip740)" d="M83.7466 192.131 L88.6308 192.131 L88.6308 198.01 L83.7466 198.01 L83.7466 192.131 Z" fill="#000000" fill-rule="evenodd" fill-opacity="1" /><path clip-path="url(#clip740)" d="M98.8622 163.45 L117.219 163.45 L117.219 167.385 L103.145 167.385 L103.145 175.858 Q104.163 175.51 105.182 175.348 Q106.2 175.163 107.219 175.163 Q113.006 175.163 116.385 178.334 Q119.765 181.506 119.765 186.922 Q119.765 192.501 116.293 195.603 Q112.82 198.682 106.501 198.682 Q104.325 198.682 102.057 198.311 Q99.8113 197.941 97.4039 197.2 L97.4039 192.501 Q99.4872 193.635 101.709 194.191 Q103.932 194.746 106.408 194.746 Q110.413 194.746 112.751 192.64 Q115.089 190.533 115.089 186.922 Q115.089 183.311 112.751 181.205 Q110.413 179.098 106.408 179.098 Q104.534 179.098 102.659 179.515 Q100.807 179.932 98.8622 180.811 L98.8622 163.45 Z" fill="#000000" fill-rule="evenodd" fill-opacity="1" /><polyline clip-path="url(#clip742)" style="stroke:#009af9; stroke-linecap:butt; stroke-linejoin:round; stroke-width:4; stroke-opacity:1; fill:none" points="
  217.944,938.577 220.019,943.63 222.093,948.531 224.168,953.285 226.243,957.893 228.317,962.358 230.392,966.683 232.467,970.87 234.542,974.921 236.616,978.839 
  238.691,982.627 240.766,986.288 242.84,989.822 244.915,993.234 246.99,996.525 249.065,999.698 251.139,1002.76 253.214,1005.7 255.289,1008.53 257.363,1011.25 
  259.438,1013.87 261.513,1016.38 263.587,1018.79 265.662,1021.1 267.737,1023.31 269.812,1025.43 271.886,1027.44 273.961,1029.37 276.036,1031.21 278.11,1032.95 
  280.185,1034.61 282.26,1036.19 284.335,1037.68 286.409,1039.08 288.484,1040.41 290.559,1041.66 292.633,1042.83 294.708,1043.92 296.783,1044.94 298.857,1045.88 
  300.932,1046.76 303.007,1047.56 305.082,1048.29 307.156,1048.95 309.231,1049.55 311.306,1050.08 313.38,1050.55 315.455,1050.95 317.53,1051.29 319.605,1051.56 
  321.679,1051.78 323.754,1051.94 325.829,1052.03 327.903,1052.07 329.978,1052.05 332.053,1051.98 334.128,1051.85 336.202,1051.66 338.277,1051.42 340.352,1051.13 
  342.426,1050.78 344.501,1050.38 346.576,1049.93 348.65,1049.43 350.725,1048.88 352.8,1048.28 354.875,1047.63 356.949,1046.93 359.024,1046.18 361.099,1045.39 
  363.173,1044.55 365.248,1043.66 367.323,1042.73 369.398,1041.75 371.472,1040.72 373.547,1039.65 375.622,1038.54 377.696,1037.38 379.771,1036.18 381.846,1034.93 
  383.921,1033.65 385.995,1032.31 388.07,1030.94 390.145,1029.52 392.219,1028.06 394.294,1026.56 396.369,1025.02 398.443,1023.44 400.518,1021.82 402.593,1020.15 
  404.668,1018.44 406.742,1016.7 408.817,1014.91 410.892,1013.09 412.966,1011.22 415.041,1009.31 417.116,1007.37 419.191,1005.38 421.265,1003.35 423.34,1001.29 
  425.415,999.187 427.489,997.044 429.564,994.862 431.639,992.641 433.713,990.382 435.788,988.083 437.863,985.746 439.938,983.37 442.012,980.956 444.087,978.502 
  446.162,976.011 448.236,973.481 450.311,970.912 452.386,968.305 454.461,965.66 456.535,962.976 458.61,960.253 460.685,957.493 462.759,954.693 464.834,951.856 
  466.909,948.98 468.984,946.065 471.058,943.112 473.133,940.121 475.208,937.091 477.282,934.023 479.357,930.916 481.432,927.77 483.506,924.586 485.581,921.363 
  487.656,918.101 489.731,914.8 491.805,911.461 493.88,908.083 495.955,904.666 498.029,901.21 500.104,897.715 502.179,894.181 504.254,890.607 506.328,886.995 
  508.403,883.343 510.478,879.652 512.552,875.922 514.627,872.152 516.702,868.343 518.777,864.494 520.851,860.606 522.926,856.678 525.001,852.71 527.075,848.703 
  529.15,844.656 531.225,840.568 533.299,836.441 535.374,832.274 537.449,828.067 539.524,823.82 541.598,819.533 543.673,815.205 545.748,810.838 547.822,806.43 
  549.897,801.982 551.972,797.493 554.047,792.965 556.121,788.396 558.196,783.786 560.271,779.136 562.345,774.446 564.42,769.716 566.495,764.945 568.57,760.134 
  570.644,755.282 572.719,750.39 574.794,745.458 576.868,740.486 578.943,735.474 581.018,730.421 583.092,725.328 585.167,720.196 587.242,715.023 589.317,709.811 
  591.391,704.559 593.466,699.267 595.541,693.937 597.615,688.566 599.69,683.157 601.765,677.709 603.84,672.221 605.914,666.696 607.989,661.132 610.064,655.529 
  612.138,649.889 614.213,644.211 616.288,638.496 618.362,632.744 620.437,626.955 622.512,621.13 624.587,615.268 626.661,609.372 628.736,603.439 630.811,597.472 
  632.885,591.471 634.96,585.436 637.035,579.367 639.11,573.266 641.184,567.132 643.259,560.967 645.334,554.77 647.408,548.543 649.483,542.287 651.558,536.001 
  653.633,529.688 655.707,523.347 657.782,516.979 659.857,510.586 661.931,504.168 664.006,497.727 666.081,491.262 668.155,484.776 670.23,478.269 672.305,471.743 
  674.38,465.199 676.454,458.638 678.529,452.061 680.604,445.469 682.678,438.866 684.753,432.25 686.828,425.625 688.903,418.992 690.977,412.353 693.052,405.709 
  695.127,399.062 697.201,392.414 699.276,385.767 701.351,379.124 703.426,372.486 705.5,365.855 707.575,359.235 709.65,352.627 711.724,346.033 713.799,339.458 
  715.874,332.902 717.948,326.37 720.023,319.863 722.098,313.385 724.173,306.94 726.247,300.529 728.322,294.158 730.397,287.828 732.471,281.544 734.546,275.31 
  736.621,269.129 738.696,263.005 740.77,256.943 742.845,250.946 744.92,245.019 746.994,239.166 749.069,233.393 751.144,227.703 753.218,222.102 755.293,216.595 
  757.368,211.187 759.443,205.883 761.517,200.688 763.592,195.609 765.667,190.651 767.741,185.82 769.816,181.122 771.891,176.563 773.966,172.15 776.04,167.888 
  778.115,163.784 780.19,159.846 782.264,156.079 784.339,152.49 786.414,149.087 788.489,145.876 790.563,142.864 792.638,140.06 794.713,137.469 796.787,135.099 
  798.862,132.957 800.937,131.051 803.011,129.388 805.086,127.975 807.161,126.819 809.236,125.927 811.31,125.307 813.385,124.965 815.46,124.908 817.534,125.143 
  819.609,125.675 821.684,126.512 823.759,127.659 825.833,129.122 827.908,130.907 829.983,133.017 832.057,135.458 834.132,138.235 836.207,141.351 838.282,144.808 
  840.356,148.612 842.431,152.762 844.506,157.262 846.58,162.113 848.655,167.314 850.73,172.867 852.804,178.77 854.879,185.022 856.954,191.62 859.029,198.563 
  861.103,205.845 863.178,213.464 865.253,221.414 867.327,229.688 869.402,238.281 871.477,247.185 873.552,256.392 875.626,265.893 877.701,275.679 879.776,285.738 
  881.85,296.062 883.925,306.637 886,317.452 888.074,328.494 890.149,339.75 892.224,351.206 894.299,362.849 896.373,374.664 898.448,386.635 900.523,398.749 
  902.597,410.989 904.672,423.341 906.747,435.79 908.822,448.319 910.896,460.913 912.971,473.558 915.046,486.238 917.12,498.937 919.195,511.642 921.27,524.338 
  923.345,537.011 925.419,549.647 927.494,562.234 929.569,574.757 931.643,587.206 933.718,599.568 935.793,611.833 937.867,623.989 939.942,636.026 942.017,647.936 
  944.092,659.709 946.166,671.338 948.241,682.813 950.316,694.129 952.39,705.28 954.465,716.258 956.54,727.06 958.615,737.679 960.689,748.113 962.764,758.358 
  964.839,768.409 966.913,778.266 968.988,787.926 971.063,797.386 973.138,806.646 975.212,815.706 977.287,824.563 979.362,833.22 981.436,841.674 983.511,849.929 
  985.586,857.983 987.66,865.838 989.735,873.496 991.81,880.958 993.885,888.226 995.959,895.302 998.034,902.188 1000.11,908.886 1002.18,915.399 1004.26,921.729 
  1006.33,927.879 1008.41,933.852 1010.48,939.65 1012.56,945.277 1014.63,950.735 1016.71,956.027 1018.78,961.156 1020.86,966.126 1022.93,970.939 1025.01,975.598 
  1027.08,980.106 1029.15,984.466 1031.23,988.682 1033.3,992.756 1035.38,996.691 1037.45,1000.49 1039.53,1004.16 1041.6,1007.69 1043.68,1011.1 1045.75,1014.38 
  1047.83,1017.54 1049.9,1020.58 1051.98,1023.51 1054.05,1026.32 1056.13,1029.02 1058.2,1031.61 1060.28,1034.09 1062.35,1036.47 1064.42,1038.74 1066.5,1040.92 
  1068.57,1042.99 1070.65,1044.97 1072.72,1046.86 1074.8,1048.65 1076.87,1050.36 1078.95,1051.97 1081.02,1053.5 1083.1,1054.95 1085.17,1056.31 1087.25,1057.59 
  1089.32,1058.79 1091.4,1059.91 1093.47,1060.96 1095.55,1061.93 1097.62,1062.83 1099.69,1063.66 1101.77,1064.41 1103.84,1065.1 1105.92,1065.72 1107.99,1066.27 
  1110.07,1066.75 1112.14,1067.17 1114.22,1067.53 1116.29,1067.82 1118.37,1068.05 1120.44,1068.23 1122.52,1068.34 1124.59,1068.39 1126.67,1068.39 1128.74,1068.33 
  1130.82,1068.21 1132.89,1068.04 1134.96,1067.82 1137.04,1067.54 1139.11,1067.2 1141.19,1066.82 1143.26,1066.38 1145.34,1065.9 1147.41,1065.36 1149.49,1064.77 
  1151.56,1064.14 1153.64,1063.45 1155.71,1062.72 1157.79,1061.94 1159.86,1061.12 1161.94,1060.24 1164.01,1059.33 1166.09,1058.36 1168.16,1057.35 1170.23,1056.3 
  1172.31,1055.2 1174.38,1054.06 1176.46,1052.87 1178.53,1051.64 1180.61,1050.37 1182.68,1049.06 1184.76,1047.7 1186.83,1046.3 1188.91,1044.86 1190.98,1043.38 
  1193.06,1041.86 1195.13,1040.29 1197.21,1038.69 1199.28,1037.04 1201.36,1035.35 1203.43,1033.63 1205.5,1031.86 1207.58,1030.06 1209.65,1028.21 1211.73,1026.32 
  1213.8,1024.4 1215.88,1022.43 1217.95,1020.43 1220.03,1018.39 1222.1,1016.31 1224.18,1014.19 1226.25,1012.03 1228.33,1009.83 1230.4,1007.59 1232.48,1005.32 
  1234.55,1003 1236.63,1000.65 1238.7,998.257 1240.77,995.828 1242.85,993.359 1244.92,990.853 1247,988.308 1249.07,985.725 1251.15,983.103 1253.22,980.443 
  1255.3,977.745 1257.37,975.008 1259.45,972.233 1261.52,969.419 1263.6,966.567 1265.67,963.676 1267.75,960.747 1269.82,957.779 1271.9,954.773 1273.97,951.728 
  1276.04,948.644 1278.12,945.521 1280.19,942.36 1282.27,939.16 1284.34,935.92 1286.42,932.642 1288.49,929.325 1290.57,925.968 1292.64,922.572 1294.72,919.137 
  1296.79,915.663 1298.87,912.149 1300.94,908.595 1303.02,905.002 1305.09,901.369 1307.17,897.697 1309.24,893.984 1311.31,890.231 1313.39,886.439 1315.46,882.606 
  1317.54,878.733 1319.61,874.819 1321.69,870.865 1323.76,866.871 1325.84,862.836 1327.91,858.76 1329.99,854.643 1332.06,850.486 1334.14,846.287 1336.21,842.047 
  1338.29,837.767 1340.36,833.445 1342.44,829.081 1344.51,824.676 1346.58,820.23 1348.66,815.742 1350.73,811.212 1352.81,806.641 1354.88,802.028 1356.96,797.373 
  1359.03,792.676 1361.11,787.937 1363.18,783.156 1365.26,778.333 1367.33,773.468 1369.41,768.561 1371.48,763.611 1373.56,758.619 1375.63,753.585 1377.71,748.509 
  1379.78,743.391 1381.85,738.23 1383.93,733.027 1386,727.782 1388.08,722.495 1390.15,717.165 1392.23,711.793 1394.3,706.38 1396.38,700.924 1398.45,695.426 
  1400.53,689.887 1402.6,684.305 1404.68,678.683 1406.75,673.018 1408.83,667.313 1410.9,661.566 1412.98,655.778 1415.05,649.949 1417.12,644.079 1419.2,638.17 
  1421.27,632.219 1423.35,626.23 1425.42,620.2 1427.5,614.131 1429.57,608.023 1431.65,601.876 1433.72,595.691 1435.8,589.468 1437.87,583.207 1439.95,576.91 
  1442.02,570.576 1444.1,564.205 1446.17,557.799 1448.25,551.358 1450.32,544.883 1452.39,538.373 1454.47,531.831 1456.54,525.256 1458.62,518.649 1460.69,512.011 
  1462.77,505.343 1464.84,498.646 1466.92,491.92 1468.99,485.167 1471.07,478.387 1473.14,471.582 1475.22,464.752 1477.29,457.899 1479.37,451.024 1481.44,444.128 
  1483.52,437.213 1485.59,430.28 1487.67,423.329 1489.74,416.364 1491.81,409.385 1493.89,402.394 1495.96,395.393 1498.04,388.383 1500.11,381.367 1502.19,374.346 
  1504.26,367.322 1506.34,360.298 1508.41,353.275 1510.49,346.256 1512.56,339.244 1514.64,332.241 1516.71,325.248 1518.79,318.271 1520.86,311.309 1522.94,304.368 
  1525.01,297.45 1527.08,290.558 1529.16,283.695 1531.23,276.864 1533.31,270.07 1535.38,263.316 1537.46,256.605 1539.53,249.942 1541.61,243.331 1543.68,236.775 
  1545.76,230.28 1547.83,223.849 1549.91,217.488 1551.98,211.201 1554.06,204.993 1556.13,198.869 1558.21,192.835 1560.28,186.896 1562.35,181.058 1564.43,175.326 
  1566.5,169.707 1568.58,164.206 1570.65,158.83 1572.73,153.585 1574.8,148.478 1576.88,143.516 1578.95,138.706 1581.03,134.054 1583.1,129.569 1585.18,125.256 
  1587.25,121.125 1589.33,117.183 1591.4,113.437 1593.48,109.895 1595.55,106.566 1597.62,103.457 1599.7,100.577 1601.77,97.9342 1603.85,95.5366 1605.92,93.3925 
  1608,91.5106 1610.07,89.8989 1612.15,88.566 1614.22,87.5201 1616.3,86.7694 1618.37,86.3219 1620.45,86.1857 1622.52,86.3684 1624.6,86.8778 1626.67,87.7212 
  1628.75,88.9056 1630.82,90.4378 1632.89,92.3244 1634.97,94.5714 1637.04,97.1844 1639.12,100.169 1641.19,103.529 1643.27,107.269 1645.34,111.393 1647.42,115.904 
  1649.49,120.804 1651.57,126.094 1653.64,131.776 1655.72,137.849 1657.79,144.314 1659.87,151.168 1661.94,158.409 1664.02,166.035 1666.09,174.04 1668.16,182.42 
  1670.24,191.169 1672.31,200.28 1674.39,209.746 1676.46,219.558 1678.54,229.706 1680.61,240.179 1682.69,250.968 1684.76,262.059 1686.84,273.439 1688.91,285.095 
  1690.99,297.013 1693.06,309.177 1695.14,321.573 1697.21,334.183 1699.29,346.991 1701.36,359.981 1703.43,373.135 1705.51,386.434 1707.58,399.862 1709.66,413.401 
  1711.73,427.032 1713.81,440.737 1715.88,454.499 1717.96,468.301 1720.03,482.123 1722.11,495.95 1724.18,509.765 1726.26,523.551 1728.33,537.293 1730.41,550.974 
  1732.48,564.581 1734.56,578.099 1736.63,591.515 1738.7,604.816 1740.78,617.989 1742.85,631.024 1744.93,643.91 1747,656.636 1749.08,669.194 1751.15,681.574 
  1753.23,693.77 1755.3,705.774 1757.38,717.581 1759.45,729.183 1761.53,740.577 1763.6,751.758 1765.68,762.722 1767.75,773.467 1769.83,783.99 1771.9,794.289 
  1773.97,804.363 1776.05,814.21 1778.12,823.831 1780.2,833.225 1782.27,842.394 1784.35,851.336 1786.42,860.055 1788.5,868.551 1790.57,876.825 1792.65,884.881 
  1794.72,892.72 1796.8,900.345 1798.87,907.759 1800.95,914.964 1803.02,921.963 1805.1,928.759 1807.17,935.356 1809.24,941.758 1811.32,947.966 1813.39,953.986 
  1815.47,959.82 1817.54,965.472 1819.62,970.946 1821.69,976.245 1823.77,981.372 1825.84,986.332 1827.92,991.128 1829.99,995.763 1832.07,1000.24 1834.14,1004.57 
  1836.22,1008.74 1838.29,1012.77 1840.37,1016.65 1842.44,1020.4 1844.51,1024.01 1846.59,1027.48 1848.66,1030.82 1850.74,1034.04 1852.81,1037.13 1854.89,1040.1 
  1856.96,1042.95 1859.04,1045.69 1861.11,1048.31 1863.19,1050.82 1865.26,1053.22 1867.34,1055.52 1869.41,1057.71 1871.49,1059.81 1873.56,1061.8 1875.64,1063.7 
  1877.71,1065.5 1879.78,1067.22 1881.86,1068.84 1883.93,1070.37 1886.01,1071.82 1888.08,1073.19 1890.16,1074.47 1892.23,1075.67 1894.31,1076.79 1896.38,1077.84 
  1898.46,1078.81 1900.53,1079.7 1902.61,1080.53 1904.68,1081.28 1906.76,1081.96 1908.83,1082.57 1910.91,1083.12 1912.98,1083.6 1915.05,1084.01 1917.13,1084.36 
  1919.2,1084.65 1921.28,1084.88 1923.35,1085.04 1925.43,1085.15 1927.5,1085.2 1929.58,1085.19 1931.65,1085.13 1933.73,1085.01 1935.8,1084.83 1937.88,1084.6 
  1939.95,1084.32 1942.03,1083.98 1944.1,1083.6 1946.18,1083.16 1948.25,1082.67 1950.32,1082.13 1952.4,1081.54 1954.47,1080.91 1956.55,1080.22 1958.62,1079.49 
  1960.7,1078.72 1962.77,1077.89 1964.85,1077.02 1966.92,1076.1 1969,1075.14 1971.07,1074.14 1973.15,1073.09 1975.22,1072 1977.3,1070.86 1979.37,1069.68 
  1981.45,1068.46 1983.52,1067.19 1985.59,1065.88 1987.67,1064.54 1989.74,1063.15 1991.82,1061.71 1993.89,1060.24 1995.97,1058.73 1998.04,1057.17 2000.12,1055.58 
  2002.19,1053.95 2004.27,1052.27 2006.34,1050.56 2008.42,1048.8 2010.49,1047.01 2012.57,1045.18 2014.64,1043.31 2016.72,1041.4 2018.79,1039.45 2020.86,1037.46 
  2022.94,1035.44 2025.01,1033.37 2027.09,1031.27 2029.16,1029.12 2031.24,1026.94 2033.31,1024.73 2035.39,1022.47 2037.46,1020.17 2039.54,1017.84 2041.61,1015.47 
  2043.69,1013.06 2045.76,1010.61 2047.84,1008.13 2049.91,1005.6 2051.99,1003.04 2054.06,1000.44 2056.13,997.8 2058.21,995.123 2060.28,992.408 2062.36,989.655 
  2064.43,986.864 2066.51,984.034 2068.58,981.166 2070.66,978.259 2072.73,975.314 2074.81,972.33 2076.88,969.308 2078.96,966.247 2081.03,963.147 2083.11,960.009 
  2085.18,956.832 2087.26,953.615 2089.33,950.36 2091.4,947.065 2093.48,943.731 2095.55,940.358 2097.63,936.945 2099.7,933.492 2101.78,930 2103.85,926.468 
  2105.93,922.897 2108,919.285 2110.08,915.633 2112.15,911.941 2114.23,908.208 2116.3,904.435 2118.38,900.622 2120.45,896.767 2122.53,892.872 2124.6,888.936 
  2126.68,884.959 2128.75,880.94 2130.82,876.88 2132.9,872.779 2134.97,868.636 2137.05,864.452 2139.12,860.225 2141.2,855.957 2143.27,851.646 2145.35,847.293 
  2147.42,842.898 2149.5,838.46 2151.57,833.98 2153.65,829.457 2155.72,824.891 2157.8,820.282 2159.87,815.63 2161.95,810.935 2164.02,806.197 2166.09,801.415 
  2168.17,796.59 2170.24,791.721 2172.32,786.808 2174.39,781.852 2176.47,776.851 2178.54,771.807 2180.62,766.719 2182.69,761.586 2184.77,756.41 2186.84,751.189 
  2188.92,745.924 2190.99,740.614 2193.07,735.261 2195.14,729.862 2197.22,724.42 2199.29,718.932 2201.36,713.401 2203.44,707.825 2205.51,702.204 2207.59,696.539 
  2209.66,690.829 2211.74,685.076 2213.81,679.278 2215.89,673.435 2217.96,667.549 2220.04,661.618 2222.11,655.643 2224.19,649.625 2226.26,643.563 2228.34,637.457 
  2230.41,631.308 2232.49,625.116 2234.56,618.881 2236.63,612.603 2238.71,606.282 2240.78,599.92 2242.86,593.515 2244.93,587.069 2247.01,580.581 2249.08,574.053 
  2251.16,567.484 2253.23,560.875 2255.31,554.226 2257.38,547.538 2259.46,540.811 2261.53,534.046 2263.61,527.244 2265.68,520.405 2267.76,513.529 2269.83,506.618 
  2271.9,499.672 2273.98,492.691 2276.05,485.678 2278.13,478.632 2280.2,471.554 2282.28,464.446 2284.35,457.308 2286.43,450.142 2288.5,442.948 2290.58,435.727 
  
  "/>
<polyline clip-path="url(#clip742)" style="stroke:#e26f46; stroke-linecap:butt; stroke-linejoin:round; stroke-width:4; stroke-opacity:1; fill:none" points="
  217.944,938.577 220.019,943.63 222.093,948.731 224.168,953.877 226.243,959.062 228.317,964.28 230.392,969.527 232.467,974.797 234.542,980.087 236.616,985.391 
  238.691,990.706 240.766,996.027 242.84,1001.35 244.915,1006.67 246.99,1011.99 249.065,1017.3 251.139,1022.6 253.214,1027.88 255.289,1033.14 257.363,1038.39 
  259.438,1043.61 261.513,1048.8 263.587,1053.97 265.662,1059.1 267.737,1064.21 269.812,1069.28 271.886,1074.31 273.961,1079.31 276.036,1084.26 278.11,1089.17 
  280.185,1094.05 282.26,1098.87 284.335,1103.66 286.409,1108.39 288.484,1113.08 290.559,1117.72 292.633,1122.31 294.708,1126.85 296.783,1131.34 298.857,1135.79 
  300.932,1140.17 303.007,1144.51 305.082,1148.79 307.156,1153.03 309.231,1157.2 311.306,1161.33 313.38,1165.4 315.455,1169.42 317.53,1173.38 319.605,1177.29 
  321.679,1181.15 323.754,1184.96 325.829,1188.71 327.903,1192.4 329.978,1196.05 332.053,1199.64 334.128,1203.17 336.202,1206.66 338.277,1210.09 340.352,1213.47 
  342.426,1216.8 344.501,1220.08 346.576,1223.31 348.65,1226.49 350.725,1229.61 352.8,1232.69 354.875,1235.72 356.949,1238.7 359.024,1241.63 361.099,1244.51 
  363.173,1247.35 365.248,1250.14 367.323,1252.88 369.398,1255.57 371.472,1258.23 373.547,1260.83 375.622,1263.39 377.696,1265.91 379.771,1268.39 381.846,1270.82 
  383.921,1273.21 385.995,1275.56 388.07,1277.86 390.145,1280.13 392.219,1282.36 394.294,1284.54 396.369,1286.69 398.443,1288.8 400.518,1290.87 402.593,1292.9 
  404.668,1294.9 406.742,1296.86 408.817,1298.78 410.892,1300.67 412.966,1302.52 415.041,1304.34 417.116,1306.13 419.191,1307.88 421.265,1309.6 423.34,1311.29 
  425.415,1312.94 427.489,1314.56 429.564,1316.15 431.639,1317.72 433.713,1319.25 435.788,1320.75 437.863,1322.22 439.938,1323.66 442.012,1325.08 444.087,1326.46 
  446.162,1327.82 448.236,1329.15 450.311,1330.46 452.386,1331.74 454.461,1332.99 456.535,1334.22 458.61,1335.42 460.685,1336.6 462.759,1337.75 464.834,1338.88 
  466.909,1339.98 468.984,1341.06 471.058,1342.12 473.133,1343.15 475.208,1344.17 477.282,1345.16 479.357,1346.13 481.432,1347.07 483.506,1348 485.581,1348.9 
  487.656,1349.79 489.731,1350.65 491.805,1351.5 493.88,1352.32 495.955,1353.13 498.029,1353.91 500.104,1354.68 502.179,1355.42 504.254,1356.15 506.328,1356.86 
  508.403,1357.55 510.478,1358.23 512.552,1358.88 514.627,1359.52 516.702,1360.14 518.777,1360.75 520.851,1361.34 522.926,1361.91 525.001,1362.46 527.075,1363 
  529.15,1363.52 531.225,1364.02 533.299,1364.51 535.374,1364.98 537.449,1365.44 539.524,1365.88 541.598,1366.3 543.673,1366.71 545.748,1367.11 547.822,1367.49 
  549.897,1367.85 551.972,1368.2 554.047,1368.53 556.121,1368.85 558.196,1369.16 560.271,1369.45 562.345,1369.72 564.42,1369.98 566.495,1370.22 568.57,1370.45 
  570.644,1370.67 572.719,1370.87 574.794,1371.06 576.868,1371.23 578.943,1371.38 581.018,1371.53 583.092,1371.65 585.167,1371.77 587.242,1371.86 589.317,1371.95 
  591.391,1372.01 593.466,1372.07 595.541,1372.11 597.615,1372.13 599.69,1372.14 601.765,1372.13 603.84,1372.1 605.914,1372.06 607.989,1372.01 610.064,1371.94 
  612.138,1371.85 614.213,1371.75 616.288,1371.63 618.362,1371.5 620.437,1371.34 622.512,1371.17 624.587,1370.99 626.661,1370.78 628.736,1370.56 630.811,1370.32 
  632.885,1370.07 634.96,1369.79 637.035,1369.5 639.11,1369.18 641.184,1368.85 643.259,1368.5 645.334,1368.12 647.408,1367.73 649.483,1367.32 651.558,1366.88 
  653.633,1366.43 655.707,1365.95 657.782,1365.45 659.857,1364.92 661.931,1364.37 664.006,1363.8 666.081,1363.21 668.155,1362.58 670.23,1361.94 672.305,1361.26 
  674.38,1360.56 676.454,1359.84 678.529,1359.08 680.604,1358.3 682.678,1357.48 684.753,1356.64 686.828,1355.76 688.903,1354.86 690.977,1353.92 693.052,1352.94 
  695.127,1351.93 697.201,1350.89 699.276,1349.81 701.351,1348.69 703.426,1347.54 705.5,1346.34 707.575,1345.11 709.65,1343.83 711.724,1342.51 713.799,1341.15 
  715.874,1339.74 717.948,1338.29 720.023,1336.78 722.098,1335.23 724.173,1333.63 726.247,1331.98 728.322,1330.27 730.397,1328.51 732.471,1326.69 734.546,1324.82 
  736.621,1322.89 738.696,1320.89 740.77,1318.83 742.845,1316.71 744.92,1314.52 746.994,1312.26 749.069,1309.94 751.144,1307.54 753.218,1305.07 755.293,1302.52 
  757.368,1299.89 759.443,1297.19 761.517,1294.4 763.592,1291.53 765.667,1288.58 767.741,1285.53 769.816,1282.4 771.891,1279.17 773.966,1275.85 776.04,1272.44 
  778.115,1268.92 780.19,1265.31 782.264,1261.59 784.339,1257.77 786.414,1253.84 788.489,1249.8 790.563,1245.66 792.638,1241.4 794.713,1237.02 796.787,1232.53 
  798.862,1227.92 800.937,1223.2 803.011,1218.35 805.086,1213.38 807.161,1208.3 809.236,1203.08 811.31,1197.75 813.385,1192.28 815.46,1186.7 817.534,1180.99 
  819.609,1175.15 821.684,1169.2 823.759,1163.11 825.833,1156.91 827.908,1150.59 829.983,1144.14 832.057,1137.58 834.132,1130.91 836.207,1124.13 838.282,1117.23 
  840.356,1110.24 842.431,1103.14 844.506,1095.95 846.58,1088.67 848.655,1081.31 850.73,1073.86 852.804,1066.35 854.879,1058.77 856.954,1051.14 859.029,1043.45 
  861.103,1035.73 863.178,1027.97 865.253,1020.19 867.327,1012.4 869.402,1004.61 871.477,996.829 873.552,989.065 875.626,981.333 877.701,973.642 879.776,966.006 
  881.85,958.436 883.925,950.945 886,943.544 888.074,936.246 890.149,929.064 892.224,922.009 894.299,915.094 896.373,908.332 898.448,901.733 900.523,895.31 
  902.597,889.074 904.672,883.035 906.747,877.206 908.822,871.594 910.896,866.211 912.971,861.066 915.046,856.166 917.12,851.52 919.195,847.135 921.27,843.018 
  923.345,839.174 925.419,835.609 927.494,832.327 929.569,829.332 931.643,826.627 933.718,824.214 935.793,822.095 937.867,820.271 939.942,818.741 942.017,817.505 
  944.092,816.562 946.166,815.911 948.241,815.547 950.316,815.469 952.39,815.672 954.465,816.152 956.54,816.905 958.615,817.925 960.689,819.206 962.764,820.743 
  964.839,822.529 966.913,824.556 968.988,826.819 971.063,829.309 973.138,832.02 975.212,834.943 977.287,838.07 979.362,841.393 981.436,844.905 983.511,848.597 
  985.586,852.46 987.66,856.487 989.735,860.669 991.81,864.998 993.885,869.466 995.959,874.065 998.034,878.786 1000.11,883.622 1002.18,888.566 1004.26,893.609 
  1006.33,898.744 1008.41,903.964 1010.48,909.261 1012.56,914.629 1014.63,920.061 1016.71,925.551 1018.78,931.091 1020.86,936.677 1022.93,942.301 1025.01,947.959 
  1027.08,953.644 1029.15,959.351 1031.23,965.076 1033.3,970.813 1035.38,976.557 1037.45,982.305 1039.53,988.051 1041.6,993.791 1043.68,999.523 1045.75,1005.24 
  1047.83,1010.94 1049.9,1016.62 1051.98,1022.28 1054.05,1027.92 1056.13,1033.52 1058.2,1039.09 1060.28,1044.63 1062.35,1050.13 1064.42,1055.59 1066.5,1061.01 
  1068.57,1066.39 1070.65,1071.73 1072.72,1077.01 1074.8,1082.25 1076.87,1087.45 1078.95,1092.59 1081.02,1097.67 1083.1,1102.71 1085.17,1107.69 1087.25,1112.62 
  1089.32,1117.49 1091.4,1122.31 1093.47,1127.07 1095.55,1131.77 1097.62,1136.41 1099.69,1141 1101.77,1145.53 1103.84,1150 1105.92,1154.41 1107.99,1158.76 
  1110.07,1163.05 1112.14,1167.28 1114.22,1171.45 1116.29,1175.57 1118.37,1179.62 1120.44,1183.62 1122.52,1187.55 1124.59,1191.43 1126.67,1195.25 1128.74,1199.02 
  1130.82,1202.72 1132.89,1206.37 1134.96,1209.96 1137.04,1213.5 1139.11,1216.98 1141.19,1220.4 1143.26,1223.77 1145.34,1227.08 1147.41,1230.34 1149.49,1233.55 
  1151.56,1236.7 1153.64,1239.8 1155.71,1242.85 1157.79,1245.85 1159.86,1248.79 1161.94,1251.69 1164.01,1254.53 1166.09,1257.33 1168.16,1260.08 1170.23,1262.78 
  1172.31,1265.44 1174.38,1268.04 1176.46,1270.6 1178.53,1273.12 1180.61,1275.59 1182.68,1278.02 1184.76,1280.4 1186.83,1282.74 1188.91,1285.04 1190.98,1287.29 
  1193.06,1289.51 1195.13,1291.68 1197.21,1293.82 1199.28,1295.91 1201.36,1297.97 1203.43,1299.98 1205.5,1301.96 1207.58,1303.9 1209.65,1305.81 1211.73,1307.68 
  1213.8,1309.51 1215.88,1311.31 1217.95,1313.08 1220.03,1314.81 1222.1,1316.51 1224.18,1318.17 1226.25,1319.8 1228.33,1321.4 1230.4,1322.97 1232.48,1324.51 
  1234.55,1326.02 1236.63,1327.5 1238.7,1328.95 1240.77,1330.37 1242.85,1331.76 1244.92,1333.12 1247,1334.46 1249.07,1335.77 1251.15,1337.05 1253.22,1338.3 
  1255.3,1339.53 1257.37,1340.74 1259.45,1341.92 1261.52,1343.07 1263.6,1344.2 1265.67,1345.31 1267.75,1346.39 1269.82,1347.45 1271.9,1348.49 1273.97,1349.5 
  1276.04,1350.5 1278.12,1351.47 1280.19,1352.41 1282.27,1353.34 1284.34,1354.25 1286.42,1355.14 1288.49,1356 1290.57,1356.85 1292.64,1357.67 1294.72,1358.48 
  1296.79,1359.27 1298.87,1360.04 1300.94,1360.79 1303.02,1361.52 1305.09,1362.23 1307.17,1362.93 1309.24,1363.61 1311.31,1364.27 1313.39,1364.91 1315.46,1365.54 
  1317.54,1366.14 1319.61,1366.74 1321.69,1367.31 1323.76,1367.87 1325.84,1368.42 1327.91,1368.94 1329.99,1369.46 1332.06,1369.95 1334.14,1370.43 1336.21,1370.9 
  1338.29,1371.35 1340.36,1371.79 1342.44,1372.21 1344.51,1372.61 1346.58,1373 1348.66,1373.38 1350.73,1373.74 1352.81,1374.09 1354.88,1374.42 1356.96,1374.74 
  1359.03,1375.05 1361.11,1375.34 1363.18,1375.61 1365.26,1375.87 1367.33,1376.12 1369.41,1376.36 1371.48,1376.58 1373.56,1376.78 1375.63,1376.98 1377.71,1377.16 
  1379.78,1377.32 1381.85,1377.47 1383.93,1377.61 1386,1377.73 1388.08,1377.84 1390.15,1377.94 1392.23,1378.02 1394.3,1378.09 1396.38,1378.14 1398.45,1378.18 
  1400.53,1378.2 1402.6,1378.21 1404.68,1378.21 1406.75,1378.19 1408.83,1378.16 1410.9,1378.11 1412.98,1378.04 1415.05,1377.97 1417.12,1377.87 1419.2,1377.76 
  1421.27,1377.64 1423.35,1377.5 1425.42,1377.34 1427.5,1377.17 1429.57,1376.98 1431.65,1376.77 1433.72,1376.55 1435.8,1376.31 1437.87,1376.05 1439.95,1375.77 
  1442.02,1375.48 1444.1,1375.17 1446.17,1374.84 1448.25,1374.49 1450.32,1374.12 1452.39,1373.73 1454.47,1373.32 1456.54,1372.89 1458.62,1372.44 1460.69,1371.97 
  1462.77,1371.47 1464.84,1370.95 1466.92,1370.41 1468.99,1369.85 1471.07,1369.26 1473.14,1368.65 1475.22,1368.01 1477.29,1367.35 1479.37,1366.66 1481.44,1365.94 
  1483.52,1365.19 1485.59,1364.42 1487.67,1363.62 1489.74,1362.78 1491.81,1361.92 1493.89,1361.02 1495.96,1360.09 1498.04,1359.13 1500.11,1358.13 1502.19,1357.1 
  1504.26,1356.03 1506.34,1354.92 1508.41,1353.78 1510.49,1352.59 1512.56,1351.36 1514.64,1350.1 1516.71,1348.78 1518.79,1347.43 1520.86,1346.02 1522.94,1344.57 
  1525.01,1343.07 1527.08,1341.53 1529.16,1339.92 1531.23,1338.27 1533.31,1336.56 1535.38,1334.79 1537.46,1332.97 1539.53,1331.09 1541.61,1329.14 1543.68,1327.13 
  1545.76,1325.06 1547.83,1322.92 1549.91,1320.7 1551.98,1318.42 1554.06,1316.06 1556.13,1313.63 1558.21,1311.12 1560.28,1308.53 1562.35,1305.86 1564.43,1303.1 
  1566.5,1300.26 1568.58,1297.32 1570.65,1294.3 1572.73,1291.18 1574.8,1287.96 1576.88,1284.65 1578.95,1281.23 1581.03,1277.71 1583.1,1274.08 1585.18,1270.34 
  1587.25,1266.49 1589.33,1262.52 1591.4,1258.44 1593.48,1254.24 1595.55,1249.92 1597.62,1245.47 1599.7,1240.9 1601.77,1236.2 1603.85,1231.36 1605.92,1226.4 
  1608,1221.3 1610.07,1216.06 1612.15,1210.69 1614.22,1205.18 1616.3,1199.52 1618.37,1193.73 1620.45,1187.79 1622.52,1181.71 1624.6,1175.49 1626.67,1169.13 
  1628.75,1162.62 1630.82,1155.98 1632.89,1149.19 1634.97,1142.27 1637.04,1135.21 1639.12,1128.02 1641.19,1120.7 1643.27,1113.25 1645.34,1105.67 1647.42,1097.98 
  1649.49,1090.18 1651.57,1082.27 1653.64,1074.25 1655.72,1066.15 1657.79,1057.95 1659.87,1049.68 1661.94,1041.34 1664.02,1032.93 1666.09,1024.47 1668.16,1015.98 
  1670.24,1007.45 1672.31,998.901 1674.39,990.347 1676.46,981.799 1678.54,973.269 1680.61,964.77 1682.69,956.317 1684.76,947.922 1686.84,939.601 1688.91,931.367 
  1690.99,923.236 1693.06,915.22 1695.14,907.336 1697.21,899.598 1699.29,892.02 1701.36,884.615 1703.43,877.399 1705.51,870.385 1707.58,863.586 1709.66,857.015 
  1711.73,850.684 1713.81,844.604 1715.88,838.787 1717.96,833.244 1720.03,827.983 1722.11,823.014 1724.18,818.344 1726.26,813.982 1728.33,809.933 1730.41,806.202 
  1732.48,802.795 1734.56,799.715 1736.63,796.965 1738.7,794.546 1740.78,792.461 1742.85,790.708 1744.93,789.288 1747,788.198 1749.08,787.437 1751.15,787.002 
  1753.23,786.888 1755.3,787.091 1757.38,787.606 1759.45,788.427 1761.53,789.548 1763.6,790.963 1765.68,792.663 1767.75,794.642 1769.83,796.891 1771.9,799.401 
  1773.97,802.164 1776.05,805.172 1778.12,808.414 1780.2,811.882 1782.27,815.566 1784.35,819.456 1786.42,823.543 1788.5,827.818 1790.57,832.27 1792.65,836.891 
  1794.72,841.67 1796.8,846.598 1798.87,851.666 1800.95,856.866 1803.02,862.186 1805.1,867.62 1807.17,873.158 1809.24,878.792 1811.32,884.513 1813.39,890.314 
  1815.47,896.186 1817.54,902.123 1819.62,908.117 1821.69,914.16 1823.77,920.246 1825.84,926.369 1827.92,932.521 1829.99,938.698 1832.07,944.892 1834.14,951.099 
  1836.22,957.314 1838.29,963.53 1840.37,969.743 1842.44,975.949 1844.51,982.143 1846.59,988.321 1848.66,994.479 1850.74,1000.61 1852.81,1006.72 1854.89,1012.8 
  1856.96,1018.84 1859.04,1024.84 1861.11,1030.81 1863.19,1036.73 1865.26,1042.61 1867.34,1048.45 1869.41,1054.23 1871.49,1059.96 1873.56,1065.64 1875.64,1071.27 
  1877.71,1076.84 1879.78,1082.35 1881.86,1087.81 1883.93,1093.2 1886.01,1098.54 1888.08,1103.81 1890.16,1109.03 1892.23,1114.17 1894.31,1119.26 1896.38,1124.28 
  1898.46,1129.24 1900.53,1134.13 1902.61,1138.96 1904.68,1143.72 1906.76,1148.41 1908.83,1153.04 1910.91,1157.61 1912.98,1162.11 1915.05,1166.54 1917.13,1170.91 
  1919.2,1175.22 1921.28,1179.45 1923.35,1183.63 1925.43,1187.74 1927.5,1191.79 1929.58,1195.77 1931.65,1199.69 1933.73,1203.55 1935.8,1207.34 1937.88,1211.08 
  1939.95,1214.75 1942.03,1218.36 1944.1,1221.91 1946.18,1225.41 1948.25,1228.84 1950.32,1232.22 1952.4,1235.53 1954.47,1238.8 1956.55,1242 1958.62,1245.15 
  1960.7,1248.24 1962.77,1251.29 1964.85,1254.27 1966.92,1257.21 1969,1260.09 1971.07,1262.92 1973.15,1265.7 1975.22,1268.43 1977.3,1271.11 1979.37,1273.74 
  1981.45,1276.32 1983.52,1278.86 1985.59,1281.35 1987.67,1283.79 1989.74,1286.19 1991.82,1288.54 1993.89,1290.85 1995.97,1293.12 1998.04,1295.34 2000.12,1297.52 
  2002.19,1299.66 2004.27,1301.76 2006.34,1303.82 2008.42,1305.84 2010.49,1307.83 2012.57,1309.77 2014.64,1311.68 2016.72,1313.54 2018.79,1315.38 2020.86,1317.17 
  2022.94,1318.94 2025.01,1320.66 2027.09,1322.36 2029.16,1324.02 2031.24,1325.64 2033.31,1327.24 2035.39,1328.8 2037.46,1330.34 2039.54,1331.84 2041.61,1333.31 
  2043.69,1334.75 2045.76,1336.16 2047.84,1337.54 2049.91,1338.9 2051.99,1340.23 2054.06,1341.53 2056.13,1342.8 2058.21,1344.05 2060.28,1345.27 2062.36,1346.46 
  2064.43,1347.63 2066.51,1348.78 2068.58,1349.9 2070.66,1351 2072.73,1352.07 2074.81,1353.12 2076.88,1354.15 2078.96,1355.16 2081.03,1356.14 2083.11,1357.1 
  2085.18,1358.04 2087.26,1358.96 2089.33,1359.86 2091.4,1360.74 2093.48,1361.6 2095.55,1362.44 2097.63,1363.26 2099.7,1364.06 2101.78,1364.84 2103.85,1365.6 
  2105.93,1366.35 2108,1367.07 2110.08,1367.78 2112.15,1368.47 2114.23,1369.15 2116.3,1369.8 2118.38,1370.44 2120.45,1371.07 2122.53,1371.67 2124.6,1372.26 
  2126.68,1372.84 2128.75,1373.4 2130.82,1373.94 2132.9,1374.47 2134.97,1374.98 2137.05,1375.48 2139.12,1375.96 2141.2,1376.43 2143.27,1376.88 2145.35,1377.32 
  2147.42,1377.75 2149.5,1378.16 2151.57,1378.56 2153.65,1378.94 2155.72,1379.31 2157.8,1379.66 2159.87,1380 2161.95,1380.33 2164.02,1380.64 2166.09,1380.94 
  2168.17,1381.23 2170.24,1381.51 2172.32,1381.77 2174.39,1382.01 2176.47,1382.25 2178.54,1382.47 2180.62,1382.68 2182.69,1382.87 2184.77,1383.06 2186.84,1383.23 
  2188.92,1383.38 2190.99,1383.53 2193.07,1383.66 2195.14,1383.77 2197.22,1383.88 2199.29,1383.97 2201.36,1384.05 2203.44,1384.11 2205.51,1384.16 2207.59,1384.2 
  2209.66,1384.23 2211.74,1384.24 2213.81,1384.24 2215.89,1384.22 2217.96,1384.19 2220.04,1384.15 2222.11,1384.09 2224.19,1384.02 2226.26,1383.93 2228.34,1383.83 
  2230.41,1383.72 2232.49,1383.59 2234.56,1383.44 2236.63,1383.28 2238.71,1383.11 2240.78,1382.91 2242.86,1382.71 2244.93,1382.48 2247.01,1382.24 2249.08,1381.99 
  2251.16,1381.71 2253.23,1381.42 2255.31,1381.11 2257.38,1380.79 2259.46,1380.44 2261.53,1380.08 2263.61,1379.69 2265.68,1379.29 2267.76,1378.87 2269.83,1378.42 
  2271.9,1377.96 2273.98,1377.47 2276.05,1376.97 2278.13,1376.44 2280.2,1375.88 2282.28,1375.31 2284.35,1374.71 2286.43,1374.08 2288.5,1373.43 2290.58,1372.75 
  
  "/>
<path clip-path="url(#clip740)" d="
M2010.18 248.629 L2279.52 248.629 L2279.52 93.1086 L2010.18 93.1086  Z
  " fill="#ffffff" fill-rule="evenodd" fill-opacity="1"/>
<polyline clip-path="url(#clip740)" style="stroke:#000000; stroke-linecap:butt; stroke-linejoin:round; stroke-width:4; stroke-opacity:1; fill:none" points="
  2010.18,248.629 2279.52,248.629 2279.52,93.1086 2010.18,93.1086 2010.18,248.629 
  "/>
<polyline clip-path="url(#clip740)" style="stroke:#009af9; stroke-linecap:butt; stroke-linejoin:round; stroke-width:4; stroke-opacity:1; fill:none" points="
  2034.59,144.949 2181.06,144.949 
  "/>
<path clip-path="url(#clip740)" d="M2230.12 136.303 L2220.75 148.919 L2230.61 162.229 L2225.59 162.229 L2218.04 152.043 L2210.49 162.229 L2205.47 162.229 L2215.54 148.664 L2206.33 136.303 L2211.35 136.303 L2218.22 145.539 L2225.1 136.303 L2230.12 136.303 Z" fill="#000000" fill-rule="evenodd" fill-opacity="1" /><polyline clip-path="url(#clip740)" style="stroke:#e26f46; stroke-linecap:butt; stroke-linejoin:round; stroke-width:4; stroke-opacity:1; fill:none" points="
  2034.59,196.789 2181.06,196.789 
  "/>
<path clip-path="url(#clip740)" d="M2219.31 216.476 Q2217.51 221.106 2215.79 222.518 Q2214.08 223.93 2211.21 223.93 L2207.81 223.93 L2207.81 220.365 L2210.31 220.365 Q2212.07 220.365 2213.04 219.532 Q2214.01 218.698 2215.19 215.596 L2215.96 213.652 L2205.47 188.143 L2209.98 188.143 L2218.09 208.421 L2226.19 188.143 L2230.7 188.143 L2219.31 216.476 Z" fill="#000000" fill-rule="evenodd" fill-opacity="1" /></svg>
