<?xml version="1.0" encoding="utf-8"?>
<svg xmlns="http://www.w3.org/2000/svg" xmlns:xlink="http://www.w3.org/1999/xlink" width="1000" height="1000" viewBox="0 0 4000 4000">
<defs>
  <clipPath id="clip070">
    <rect x="0" y="0" width="4000" height="4000"/>
  </clipPath>
</defs>
<path clip-path="url(#clip070)" d="
M0 4000 L4000 4000 L4000 0 L0 0  Z
  " fill="#ffffff" fill-rule="evenodd" fill-opacity="1"/>
<defs>
  <clipPath id="clip071">
    <rect x="800" y="400" width="2801" height="2801"/>
  </clipPath>
</defs>
<path clip-path="url(#clip070)" d="
M47.2441 3627.3 L3952.76 3627.3 L3952.76 372.703 L47.2441 372.703  Z
  " fill="#ffffff" fill-rule="evenodd" fill-opacity="1"/>
<defs>
  <clipPath id="clip072">
    <rect x="47" y="372" width="3907" height="3256"/>
  </clipPath>
</defs>
<polyline clip-path="url(#clip072)" style="stroke:#000000; stroke-linecap:butt; stroke-linejoin:round; stroke-width:4; stroke-opacity:1; fill:none" points="
  1070.12,3162.35 1094.6,2354.88 
  "/>
<polyline clip-path="url(#clip072)" style="stroke:#000000; stroke-linecap:butt; stroke-linejoin:round; stroke-width:4; stroke-opacity:1; fill:none" points="
  1062.79,2413.95 1094.6,2354.88 1122.77,2415.76 
  "/>
<polyline clip-path="url(#clip072)" style="stroke:#000000; stroke-linecap:butt; stroke-linejoin:round; stroke-width:4; stroke-opacity:1; fill:none" points="
  1094.6,2354.88 1070.12,3162.35 
  "/>
<polyline clip-path="url(#clip072)" style="stroke:#000000; stroke-linecap:butt; stroke-linejoin:round; stroke-width:4; stroke-opacity:1; fill:none" points="
  1070.12,3162.35 624.475,1864.78 
  "/>
<polyline clip-path="url(#clip072)" style="stroke:#000000; stroke-linecap:butt; stroke-linejoin:round; stroke-width:4; stroke-opacity:1; fill:none" points="
  615.591,1931.27 624.475,1864.78 672.338,1911.78 
  "/>
<polyline clip-path="url(#clip072)" style="stroke:#000000; stroke-linecap:butt; stroke-linejoin:round; stroke-width:4; stroke-opacity:1; fill:none" points="
  624.475,1864.78 1070.12,3162.35 
  "/>
<polyline clip-path="url(#clip072)" style="stroke:#000000; stroke-linecap:butt; stroke-linejoin:round; stroke-width:4; stroke-opacity:1; fill:none" points="
  1070.12,3162.35 2478.16,3187.41 
  "/>
<polyline clip-path="url(#clip072)" style="stroke:#000000; stroke-linecap:butt; stroke-linejoin:round; stroke-width:4; stroke-opacity:1; fill:none" points="
  2418.7,3156.35 2478.16,3187.41 2417.64,3216.34 
  "/>
<polyline clip-path="url(#clip072)" style="stroke:#000000; stroke-linecap:butt; stroke-linejoin:round; stroke-width:4; stroke-opacity:1; fill:none" points="
  2478.16,3187.41 1070.12,3162.35 
  "/>
<polyline clip-path="url(#clip072)" style="stroke:#000000; stroke-linecap:butt; stroke-linejoin:round; stroke-width:4; stroke-opacity:1; fill:none" points="
  605.174,2697.41 624.624,1864.78 
  "/>
<polyline clip-path="url(#clip072)" style="stroke:#000000; stroke-linecap:butt; stroke-linejoin:round; stroke-width:4; stroke-opacity:1; fill:none" points="
  593.231,1924.06 624.624,1864.78 653.214,1925.46 
  "/>
<polyline clip-path="url(#clip072)" style="stroke:#000000; stroke-linecap:butt; stroke-linejoin:round; stroke-width:4; stroke-opacity:1; fill:none" points="
  624.624,1864.78 605.174,2697.41 
  "/>
<polyline clip-path="url(#clip072)" style="stroke:#000000; stroke-linecap:butt; stroke-linejoin:round; stroke-width:4; stroke-opacity:1; fill:none" points="
  605.174,2697.41 2590.6,2706.91 
  "/>
<polyline clip-path="url(#clip072)" style="stroke:#000000; stroke-linecap:butt; stroke-linejoin:round; stroke-width:4; stroke-opacity:1; fill:none" points="
  2530.75,2676.62 2590.6,2706.91 2530.46,2736.62 
  "/>
<polyline clip-path="url(#clip072)" style="stroke:#000000; stroke-linecap:butt; stroke-linejoin:round; stroke-width:4; stroke-opacity:1; fill:none" points="
  2590.6,2706.91 605.174,2697.41 
  "/>
<polyline clip-path="url(#clip072)" style="stroke:#000000; stroke-linecap:butt; stroke-linejoin:round; stroke-width:4; stroke-opacity:1; fill:none" points="
  1070.12,2232.47 1089.57,1399.83 
  "/>
<polyline clip-path="url(#clip072)" style="stroke:#000000; stroke-linecap:butt; stroke-linejoin:round; stroke-width:4; stroke-opacity:1; fill:none" points="
  1058.17,1459.12 1089.57,1399.83 1118.16,1460.52 
  "/>
<polyline clip-path="url(#clip072)" style="stroke:#000000; stroke-linecap:butt; stroke-linejoin:round; stroke-width:4; stroke-opacity:1; fill:none" points="
  1089.57,1399.83 1070.12,2232.47 
  "/>
<polyline clip-path="url(#clip072)" style="stroke:#000000; stroke-linecap:butt; stroke-linejoin:round; stroke-width:4; stroke-opacity:1; fill:none" points="
  1070.12,2232.47 1657.45,2261.83 
  "/>
<polyline clip-path="url(#clip072)" style="stroke:#000000; stroke-linecap:butt; stroke-linejoin:round; stroke-width:4; stroke-opacity:1; fill:none" points="
  1599.02,2228.87 1657.45,2261.83 1596.03,2288.79 
  "/>
<polyline clip-path="url(#clip072)" style="stroke:#000000; stroke-linecap:butt; stroke-linejoin:round; stroke-width:4; stroke-opacity:1; fill:none" points="
  1657.45,2261.83 1070.12,2232.47 
  "/>
<polyline clip-path="url(#clip072)" style="stroke:#000000; stroke-linecap:butt; stroke-linejoin:round; stroke-width:4; stroke-opacity:1; fill:none" points="
  605.174,1767.53 1015.75,1399.83 
  "/>
<polyline clip-path="url(#clip072)" style="stroke:#000000; stroke-linecap:butt; stroke-linejoin:round; stroke-width:4; stroke-opacity:1; fill:none" points="
  951.042,1417.51 1015.75,1399.83 991.07,1462.21 
  "/>
<polyline clip-path="url(#clip072)" style="stroke:#000000; stroke-linecap:butt; stroke-linejoin:round; stroke-width:4; stroke-opacity:1; fill:none" points="
  1015.75,1399.83 605.174,1767.53 
  "/>
<polyline clip-path="url(#clip072)" style="stroke:#000000; stroke-linecap:butt; stroke-linejoin:round; stroke-width:4; stroke-opacity:1; fill:none" points="
  605.174,1767.53 1651.24,1786.13 
  "/>
<polyline clip-path="url(#clip072)" style="stroke:#000000; stroke-linecap:butt; stroke-linejoin:round; stroke-width:4; stroke-opacity:1; fill:none" points="
  1591.79,1755.07 1651.24,1786.13 1590.72,1815.06 
  "/>
<polyline clip-path="url(#clip072)" style="stroke:#000000; stroke-linecap:butt; stroke-linejoin:round; stroke-width:4; stroke-opacity:1; fill:none" points="
  1651.24,1786.13 605.174,1767.53 
  "/>
<polyline clip-path="url(#clip072)" style="stroke:#000000; stroke-linecap:butt; stroke-linejoin:round; stroke-width:4; stroke-opacity:1; fill:none" points="
  1070.12,1302.59 1079.39,860.838 
  "/>
<polyline clip-path="url(#clip072)" style="stroke:#000000; stroke-linecap:butt; stroke-linejoin:round; stroke-width:4; stroke-opacity:1; fill:none" points="
  1048.14,920.195 1079.39,860.838 1108.13,921.455 
  "/>
<polyline clip-path="url(#clip072)" style="stroke:#000000; stroke-linecap:butt; stroke-linejoin:round; stroke-width:4; stroke-opacity:1; fill:none" points="
  1079.39,860.838 1070.12,1302.59 
  "/>
<polyline clip-path="url(#clip072)" style="stroke:#000000; stroke-linecap:butt; stroke-linejoin:round; stroke-width:4; stroke-opacity:1; fill:none" points="
  1070.12,1302.59 1670.22,1328.54 
  "/>
<polyline clip-path="url(#clip072)" style="stroke:#000000; stroke-linecap:butt; stroke-linejoin:round; stroke-width:4; stroke-opacity:1; fill:none" points="
  1611.57,1295.97 1670.22,1328.54 1608.98,1355.92 
  "/>
<polyline clip-path="url(#clip072)" style="stroke:#000000; stroke-linecap:butt; stroke-linejoin:round; stroke-width:4; stroke-opacity:1; fill:none" points="
  1670.22,1328.54 1070.12,1302.59 
  "/>
<polyline clip-path="url(#clip072)" style="stroke:#000000; stroke-linecap:butt; stroke-linejoin:round; stroke-width:4; stroke-opacity:1; fill:none" points="
  1767.53,1302.59 2147.58,1720.07 
  "/>
<polyline clip-path="url(#clip072)" style="stroke:#000000; stroke-linecap:butt; stroke-linejoin:round; stroke-width:4; stroke-opacity:1; fill:none" points="
  2129.37,1655.51 2147.58,1720.07 2085.01,1695.9 
  "/>
<polyline clip-path="url(#clip072)" style="stroke:#000000; stroke-linecap:butt; stroke-linejoin:round; stroke-width:4; stroke-opacity:1; fill:none" points="
  2147.58,1720.07 1767.53,1302.59 
  "/>
<polyline clip-path="url(#clip072)" style="stroke:#000000; stroke-linecap:butt; stroke-linejoin:round; stroke-width:4; stroke-opacity:1; fill:none" points="
  1767.53,1302.59 2169.19,2147.59 
  "/>
<polyline clip-path="url(#clip072)" style="stroke:#000000; stroke-linecap:butt; stroke-linejoin:round; stroke-width:4; stroke-opacity:1; fill:none" points="
  2170.52,2080.52 2169.19,2147.59 2116.33,2106.28 
  "/>
<polyline clip-path="url(#clip072)" style="stroke:#000000; stroke-linecap:butt; stroke-linejoin:round; stroke-width:4; stroke-opacity:1; fill:none" points="
  2169.19,2147.59 1767.53,1302.59 
  "/>
<polyline clip-path="url(#clip072)" style="stroke:#000000; stroke-linecap:butt; stroke-linejoin:round; stroke-width:4; stroke-opacity:1; fill:none" points="
  1767.53,1767.53 2141.25,1804.02 
  "/>
<polyline clip-path="url(#clip072)" style="stroke:#000000; stroke-linecap:butt; stroke-linejoin:round; stroke-width:4; stroke-opacity:1; fill:none" points="
  2084.45,1768.33 2141.25,1804.02 2078.62,1828.05 
  "/>
<polyline clip-path="url(#clip072)" style="stroke:#000000; stroke-linecap:butt; stroke-linejoin:round; stroke-width:4; stroke-opacity:1; fill:none" points="
  2141.25,1804.02 1767.53,1767.53 
  "/>
<polyline clip-path="url(#clip072)" style="stroke:#000000; stroke-linecap:butt; stroke-linejoin:round; stroke-width:4; stroke-opacity:1; fill:none" points="
  2232.47,1767.53 2634.13,2612.53 
  "/>
<polyline clip-path="url(#clip072)" style="stroke:#000000; stroke-linecap:butt; stroke-linejoin:round; stroke-width:4; stroke-opacity:1; fill:none" points="
  2635.47,2545.46 2634.13,2612.53 2581.28,2571.22 
  "/>
<polyline clip-path="url(#clip072)" style="stroke:#000000; stroke-linecap:butt; stroke-linejoin:round; stroke-width:4; stroke-opacity:1; fill:none" points="
  2634.13,2612.53 2232.47,1767.53 
  "/>
<polyline clip-path="url(#clip072)" style="stroke:#000000; stroke-linecap:butt; stroke-linejoin:round; stroke-width:4; stroke-opacity:1; fill:none" points="
  2232.47,1767.53 3332.79,3101.71 
  "/>
<polyline clip-path="url(#clip072)" style="stroke:#000000; stroke-linecap:butt; stroke-linejoin:round; stroke-width:4; stroke-opacity:1; fill:none" points="
  3317.76,3036.34 3332.79,3101.71 3271.47,3074.51 
  "/>
<polyline clip-path="url(#clip072)" style="stroke:#000000; stroke-linecap:butt; stroke-linejoin:round; stroke-width:4; stroke-opacity:1; fill:none" points="
  3332.79,3101.71 2232.47,1767.53 
  "/>
<polyline clip-path="url(#clip072)" style="stroke:#000000; stroke-linecap:butt; stroke-linejoin:round; stroke-width:4; stroke-opacity:1; fill:none" points="
  1767.53,2232.47 2141.25,2268.96 
  "/>
<polyline clip-path="url(#clip072)" style="stroke:#000000; stroke-linecap:butt; stroke-linejoin:round; stroke-width:4; stroke-opacity:1; fill:none" points="
  2084.45,2233.27 2141.25,2268.96 2078.62,2292.99 
  "/>
<polyline clip-path="url(#clip072)" style="stroke:#000000; stroke-linecap:butt; stroke-linejoin:round; stroke-width:4; stroke-opacity:1; fill:none" points="
  2141.25,2268.96 1767.53,2232.47 
  "/>
<polyline clip-path="url(#clip072)" style="stroke:#000000; stroke-linecap:butt; stroke-linejoin:round; stroke-width:4; stroke-opacity:1; fill:none" points="
  2232.47,2232.47 3323.17,3118.38 
  "/>
<polyline clip-path="url(#clip072)" style="stroke:#000000; stroke-linecap:butt; stroke-linejoin:round; stroke-width:4; stroke-opacity:1; fill:none" points="
  3295.51,3057.26 3323.17,3118.38 3257.68,3103.83 
  "/>
<polyline clip-path="url(#clip072)" style="stroke:#000000; stroke-linecap:butt; stroke-linejoin:round; stroke-width:4; stroke-opacity:1; fill:none" points="
  3323.17,3118.38 2232.47,2232.47 
  "/>
<polyline clip-path="url(#clip072)" style="stroke:#000000; stroke-linecap:butt; stroke-linejoin:round; stroke-width:4; stroke-opacity:1; fill:none" points="
  2697.41,3162.35 3310.72,3184.78 
  "/>
<polyline clip-path="url(#clip072)" style="stroke:#000000; stroke-linecap:butt; stroke-linejoin:round; stroke-width:4; stroke-opacity:1; fill:none" points="
  3251.86,3152.61 3310.72,3184.78 3249.67,3212.57 
  "/>
<polyline clip-path="url(#clip072)" style="stroke:#000000; stroke-linecap:butt; stroke-linejoin:round; stroke-width:4; stroke-opacity:1; fill:none" points="
  3310.72,3184.78 2697.41,3162.35 
  "/>
<path clip-path="url(#clip072)" d="
M1096.9 3162.35 L1083.51 3139.16 L1056.73 3139.16 L1043.34 3162.35 L1056.73 3185.55 L1083.51 3185.55 L1096.9 3162.35 L1096.9 3162.35  Z
  " fill="#add8e6" fill-rule="evenodd" fill-opacity="1"/>
<polyline clip-path="url(#clip072)" style="stroke:#000000; stroke-linecap:butt; stroke-linejoin:round; stroke-width:4; stroke-opacity:1; fill:none" points="
  1096.9,3162.35 1083.51,3139.16 1056.73,3139.16 1043.34,3162.35 1056.73,3185.55 1083.51,3185.55 1096.9,3162.35 
  "/>
<path clip-path="url(#clip072)" d="
M631.955 2697.41 L618.565 2674.22 L591.784 2674.22 L578.394 2697.41 L591.784 2720.61 L618.565 2720.61 L631.955 2697.41 L631.955 2697.41  Z
  " fill="#ffa500" fill-rule="evenodd" fill-opacity="1"/>
<polyline clip-path="url(#clip072)" style="stroke:#000000; stroke-linecap:butt; stroke-linejoin:round; stroke-width:4; stroke-opacity:1; fill:none" points="
  631.955,2697.41 618.565,2674.22 591.784,2674.22 578.394,2697.41 591.784,2720.61 618.565,2720.61 631.955,2697.41 
  "/>
<path clip-path="url(#clip072)" d="
M1211.47 2232.47 L1140.79 2110.06 L999.442 2110.06 L928.767 2232.47 L999.442 2354.88 L1140.79 2354.88 L1211.47 2232.47 L1211.47 2232.47  Z
  " fill="#ffa500" fill-rule="evenodd" fill-opacity="1"/>
<polyline clip-path="url(#clip072)" style="stroke:#000000; stroke-linecap:butt; stroke-linejoin:round; stroke-width:4; stroke-opacity:1; fill:none" points="
  1211.47,2232.47 1140.79,2110.06 999.442,2110.06 928.767,2232.47 999.442,2354.88 1140.79,2354.88 1211.47,2232.47 
  "/>
<path clip-path="url(#clip072)" d="
M717.465 1767.53 L661.319 1670.28 L549.029 1670.28 L492.884 1767.53 L549.029 1864.78 L661.319 1864.78 L717.465 1767.53 L717.465 1767.53  Z
  " fill="#ffa500" fill-rule="evenodd" fill-opacity="1"/>
<polyline clip-path="url(#clip072)" style="stroke:#000000; stroke-linecap:butt; stroke-linejoin:round; stroke-width:4; stroke-opacity:1; fill:none" points="
  717.465,1767.53 661.319,1670.28 549.029,1670.28 492.884,1767.53 549.029,1864.78 661.319,1864.78 717.465,1767.53 
  "/>
<path clip-path="url(#clip072)" d="
M1182.41 1302.59 L1126.26 1205.34 L1013.97 1205.34 L957.826 1302.59 L1013.97 1399.83 L1126.26 1399.83 L1182.41 1302.59 L1182.41 1302.59  Z
  " fill="#ffa500" fill-rule="evenodd" fill-opacity="1"/>
<polyline clip-path="url(#clip072)" style="stroke:#000000; stroke-linecap:butt; stroke-linejoin:round; stroke-width:4; stroke-opacity:1; fill:none" points="
  1182.41,1302.59 1126.26,1205.34 1013.97,1205.34 957.826,1302.59 1013.97,1399.83 1126.26,1399.83 1182.41,1302.59 
  "/>
<path clip-path="url(#clip072)" d="
M1096.9 837.645 L1083.51 814.453 L1056.73 814.453 L1043.34 837.645 L1056.73 860.838 L1083.51 860.838 L1096.9 837.645 L1096.9 837.645  Z
  " fill="#ffa500" fill-rule="evenodd" fill-opacity="1"/>
<polyline clip-path="url(#clip072)" style="stroke:#000000; stroke-linecap:butt; stroke-linejoin:round; stroke-width:4; stroke-opacity:1; fill:none" points="
  1096.9,837.645 1083.51,814.453 1056.73,814.453 1043.34,837.645 1056.73,860.838 1083.51,860.838 1096.9,837.645 
  "/>
<path clip-path="url(#clip072)" d="
M1879.82 1302.59 L1823.67 1205.34 L1711.38 1205.34 L1655.24 1302.59 L1711.38 1399.83 L1823.67 1399.83 L1879.82 1302.59 L1879.82 1302.59  Z
  " fill="#ffa500" fill-rule="evenodd" fill-opacity="1"/>
<polyline clip-path="url(#clip072)" style="stroke:#000000; stroke-linecap:butt; stroke-linejoin:round; stroke-width:4; stroke-opacity:1; fill:none" points="
  1879.82,1302.59 1823.67,1205.34 1711.38,1205.34 1655.24,1302.59 1711.38,1399.83 1823.67,1399.83 1879.82,1302.59 
  "/>
<path clip-path="url(#clip072)" d="
M1894.56 1767.53 L1831.04 1657.52 L1704.02 1657.52 L1640.5 1767.53 L1704.02 1877.54 L1831.04 1877.54 L1894.56 1767.53 L1894.56 1767.53  Z
  " fill="#ffa500" fill-rule="evenodd" fill-opacity="1"/>
<polyline clip-path="url(#clip072)" style="stroke:#000000; stroke-linecap:butt; stroke-linejoin:round; stroke-width:4; stroke-opacity:1; fill:none" points="
  1894.56,1767.53 1831.04,1657.52 1704.02,1657.52 1640.5,1767.53 1704.02,1877.54 1831.04,1877.54 1894.56,1767.53 
  "/>
<path clip-path="url(#clip072)" d="
M2344.76 1767.53 L2288.62 1670.28 L2176.33 1670.28 L2120.18 1767.53 L2176.33 1864.78 L2288.62 1864.78 L2344.76 1767.53 L2344.76 1767.53  Z
  " fill="#ffa500" fill-rule="evenodd" fill-opacity="1"/>
<polyline clip-path="url(#clip072)" style="stroke:#000000; stroke-linecap:butt; stroke-linejoin:round; stroke-width:4; stroke-opacity:1; fill:none" points="
  2344.76,1767.53 2288.62,1670.28 2176.33,1670.28 2120.18,1767.53 2176.33,1864.78 2288.62,1864.78 2344.76,1767.53 
  "/>
<path clip-path="url(#clip072)" d="
M1894.56 2232.47 L1831.04 2122.46 L1704.02 2122.46 L1640.5 2232.47 L1704.02 2342.48 L1831.04 2342.48 L1894.56 2232.47 L1894.56 2232.47  Z
  " fill="#add8e6" fill-rule="evenodd" fill-opacity="1"/>
<polyline clip-path="url(#clip072)" style="stroke:#000000; stroke-linecap:butt; stroke-linejoin:round; stroke-width:4; stroke-opacity:1; fill:none" points="
  1894.56,2232.47 1831.04,2122.46 1704.02,2122.46 1640.5,2232.47 1704.02,2342.48 1831.04,2342.48 1894.56,2232.47 
  "/>
<path clip-path="url(#clip072)" d="
M2344.76 2232.47 L2288.62 2135.22 L2176.33 2135.22 L2120.18 2232.47 L2176.33 2329.72 L2288.62 2329.72 L2344.76 2232.47 L2344.76 2232.47  Z
  " fill="#add8e6" fill-rule="evenodd" fill-opacity="1"/>
<polyline clip-path="url(#clip072)" style="stroke:#000000; stroke-linecap:butt; stroke-linejoin:round; stroke-width:4; stroke-opacity:1; fill:none" points="
  2344.76,2232.47 2288.62,2135.22 2176.33,2135.22 2120.18,2232.47 2176.33,2329.72 2288.62,2329.72 2344.76,2232.47 
  "/>
<path clip-path="url(#clip072)" d="
M2809.7 2697.41 L2753.56 2600.17 L2641.27 2600.17 L2585.12 2697.41 L2641.27 2794.66 L2753.56 2794.66 L2809.7 2697.41 L2809.7 2697.41  Z
  " fill="#add8e6" fill-rule="evenodd" fill-opacity="1"/>
<polyline clip-path="url(#clip072)" style="stroke:#000000; stroke-linecap:butt; stroke-linejoin:round; stroke-width:4; stroke-opacity:1; fill:none" points="
  2809.7,2697.41 2753.56,2600.17 2641.27,2600.17 2585.12,2697.41 2641.27,2794.66 2753.56,2794.66 2809.7,2697.41 
  "/>
<path clip-path="url(#clip072)" d="
M2931.13 3162.35 L2814.27 2959.95 L2580.55 2959.95 L2463.69 3162.35 L2580.55 3364.76 L2814.27 3364.76 L2931.13 3162.35 L2931.13 3162.35  Z
  " fill="#add8e6" fill-rule="evenodd" fill-opacity="1"/>
<polyline clip-path="url(#clip072)" style="stroke:#000000; stroke-linecap:butt; stroke-linejoin:round; stroke-width:4; stroke-opacity:1; fill:none" points="
  2931.13,3162.35 2814.27,2959.95 2580.55,2959.95 2463.69,3162.35 2580.55,3364.76 2814.27,3364.76 2931.13,3162.35 2931.13,3162.35 
  "/>
<path clip-path="url(#clip072)" d="
M3491.88 3162.35 L3443.35 3078.31 L3346.3 3078.31 L3297.78 3162.35 L3346.3 3246.4 L3443.35 3246.4 L3491.88 3162.35 L3491.88 3162.35  Z
  " fill="#add8e6" fill-rule="evenodd" fill-opacity="1"/>
<polyline clip-path="url(#clip072)" style="stroke:#000000; stroke-linecap:butt; stroke-linejoin:round; stroke-width:4; stroke-opacity:1; fill:none" points="
  3491.88,3162.35 3443.35,3078.31 3346.3,3078.31 3297.78,3162.35 3346.3,3246.4 3443.35,3246.4 3491.88,3162.35 
  "/>
<circle clip-path="url(#clip072)" style="fill:#add8e6; stroke:none; fill-opacity:1" cx="1070.12" cy="3162.35" r="2"/>
<circle clip-path="url(#clip072)" style="fill:#add8e6; stroke:none; fill-opacity:1" cx="605.174" cy="2697.41" r="2"/>
<circle clip-path="url(#clip072)" style="fill:#add8e6; stroke:none; fill-opacity:1" cx="1070.12" cy="2232.47" r="2"/>
<circle clip-path="url(#clip072)" style="fill:#add8e6; stroke:none; fill-opacity:1" cx="605.174" cy="1767.53" r="2"/>
<circle clip-path="url(#clip072)" style="fill:#add8e6; stroke:none; fill-opacity:1" cx="1070.12" cy="1302.59" r="2"/>
<circle clip-path="url(#clip072)" style="fill:#add8e6; stroke:none; fill-opacity:1" cx="1070.12" cy="837.645" r="2"/>
<circle clip-path="url(#clip072)" style="fill:#add8e6; stroke:none; fill-opacity:1" cx="1767.53" cy="1302.59" r="2"/>
<circle clip-path="url(#clip072)" style="fill:#add8e6; stroke:none; fill-opacity:1" cx="1767.53" cy="1767.53" r="2"/>
<circle clip-path="url(#clip072)" style="fill:#add8e6; stroke:none; fill-opacity:1" cx="2232.47" cy="1767.53" r="2"/>
<circle clip-path="url(#clip072)" style="fill:#add8e6; stroke:none; fill-opacity:1" cx="1767.53" cy="2232.47" r="2"/>
<circle clip-path="url(#clip072)" style="fill:#add8e6; stroke:none; fill-opacity:1" cx="2232.47" cy="2232.47" r="2"/>
<circle clip-path="url(#clip072)" style="fill:#add8e6; stroke:none; fill-opacity:1" cx="2697.41" cy="2697.41" r="2"/>
<circle clip-path="url(#clip072)" style="fill:#add8e6; stroke:none; fill-opacity:1" cx="2697.41" cy="3162.35" r="2"/>
<circle clip-path="url(#clip072)" style="fill:#add8e6; stroke:none; fill-opacity:1" cx="3394.83" cy="3162.35" r="2"/>
<path clip-path="url(#clip070)" d="M1080.69 3154.79 L1072.49 3165.83 L1081.11 3177.47 L1076.72 3177.47 L1070.12 3168.56 L1063.51 3177.47 L1059.12 3177.47 L1067.93 3165.61 L1059.87 3154.79 L1064.26 3154.79 L1070.28 3162.87 L1076.29 3154.79 L1080.69 3154.79 Z" fill="#000000" fill-rule="evenodd" fill-opacity="1" /><path clip-path="url(#clip070)" d="M606.248 2714.64 Q604.668 2718.69 603.169 2719.93 Q601.67 2721.16 599.159 2721.16 L596.181 2721.16 L596.181 2718.04 L598.369 2718.04 Q599.908 2718.04 600.759 2717.31 Q601.61 2716.58 602.643 2713.87 L603.311 2712.17 L594.136 2689.85 L598.085 2689.85 L605.174 2707.59 L612.263 2689.85 L616.213 2689.85 L606.248 2714.64 Z" fill="#000000" fill-rule="evenodd" fill-opacity="1" /><path clip-path="url(#clip070)" d="M1003.74 2249.7 Q1002.16 2253.75 1000.66 2254.98 Q999.165 2256.22 996.653 2256.22 L993.676 2256.22 L993.676 2253.1 L995.863 2253.1 Q997.403 2253.1 998.253 2252.37 Q999.104 2251.64 1000.14 2248.93 L1000.81 2247.23 L991.63 2224.91 L995.58 2224.91 L1002.67 2242.65 L1009.76 2224.91 L1013.71 2224.91 L1003.74 2249.7 Z" fill="#000000" fill-rule="evenodd" fill-opacity="1" /><path clip-path="url(#clip070)" d="M1018.1 2245.36 L1022.23 2245.36 L1022.23 2232.99 L1017.72 2233.82 L1017.72 2231.47 L1022.38 2230.68 L1025.15 2230.68 L1025.15 2245.36 L1029.3 2245.36 L1029.3 2247.59 L1018.1 2247.59 L1018.1 2245.36 Z" fill="#000000" fill-rule="evenodd" fill-opacity="1" /><path clip-path="url(#clip070)" d="M1049.15 2228.75 L1075.12 2228.75 L1075.12 2232.16 L1049.15 2232.16 L1049.15 2228.75 M1049.15 2237.02 L1075.12 2237.02 L1075.12 2240.46 L1049.15 2240.46 L1049.15 2237.02 Z" fill="#000000" fill-rule="evenodd" fill-opacity="1" /><path clip-path="url(#clip070)" d="M1111.07 2225.57 L1111.07 2229.1 Q1109.49 2228.29 1107.79 2227.88 Q1106.09 2227.48 1104.27 2227.48 Q1101.49 2227.48 1100.09 2228.33 Q1098.72 2229.18 1098.72 2230.88 Q1098.72 2232.18 1099.71 2232.93 Q1100.7 2233.66 1103.7 2234.32 L1104.97 2234.61 Q1108.94 2235.46 1110.61 2237.02 Q1112.29 2238.56 1112.29 2241.33 Q1112.29 2244.49 1109.77 2246.34 Q1107.28 2248.18 1102.91 2248.18 Q1101.09 2248.18 1099.1 2247.81 Q1097.14 2247.47 1094.95 2246.76 L1094.95 2242.91 Q1097.01 2243.99 1099.02 2244.53 Q1101.02 2245.06 1102.99 2245.06 Q1105.62 2245.06 1107.04 2244.17 Q1108.46 2243.26 1108.46 2241.62 Q1108.46 2240.1 1107.43 2239.29 Q1106.41 2238.48 1102.95 2237.73 L1101.65 2237.42 Q1098.19 2236.69 1096.65 2235.2 Q1095.11 2233.68 1095.11 2231.04 Q1095.11 2227.84 1097.38 2226.1 Q1099.65 2224.36 1103.82 2224.36 Q1105.89 2224.36 1107.71 2224.66 Q1109.53 2224.97 1111.07 2225.57 Z" fill="#000000" fill-rule="evenodd" fill-opacity="1" /><path clip-path="url(#clip070)" d="M1118.22 2224.91 L1121.95 2224.91 L1121.95 2247.59 L1118.22 2247.59 L1118.22 2224.91 M1118.22 2216.07 L1121.95 2216.07 L1121.95 2220.79 L1118.22 2220.79 L1118.22 2216.07 Z" fill="#000000" fill-rule="evenodd" fill-opacity="1" /><path clip-path="url(#clip070)" d="M1148.6 2233.9 L1148.6 2247.59 L1144.88 2247.59 L1144.88 2234.02 Q1144.88 2230.8 1143.62 2229.2 Q1142.36 2227.6 1139.85 2227.6 Q1136.83 2227.6 1135.09 2229.52 Q1133.35 2231.45 1133.35 2234.77 L1133.35 2247.59 L1129.6 2247.59 L1129.6 2224.91 L1133.35 2224.91 L1133.35 2228.43 Q1134.69 2226.38 1136.49 2225.37 Q1138.31 2224.36 1140.68 2224.36 Q1144.59 2224.36 1146.6 2226.79 Q1148.6 2229.2 1148.6 2233.9 Z" fill="#000000" fill-rule="evenodd" fill-opacity="1" /><path clip-path="url(#clip070)" d="M556.999 1784.76 Q555.419 1788.81 553.92 1790.04 Q552.421 1791.28 549.91 1791.28 L546.932 1791.28 L546.932 1788.16 L549.12 1788.16 Q550.659 1788.16 551.51 1787.43 Q552.361 1786.7 553.394 1783.99 L554.062 1782.28 L544.887 1759.96 L548.836 1759.96 L555.925 1777.71 L563.015 1759.96 L566.964 1759.96 L556.999 1784.76 Z" fill="#000000" fill-rule="evenodd" fill-opacity="1" /><path clip-path="url(#clip070)" d="M573.628 1780.34 L582.216 1780.34 L582.216 1782.65 L570.104 1782.65 L570.104 1780.42 Q570.792 1779.79 572.068 1778.66 Q579.036 1772.48 579.036 1770.58 Q579.036 1769.24 577.983 1768.43 Q576.929 1767.6 575.208 1767.6 Q574.155 1767.6 572.919 1767.96 Q571.684 1768.31 570.225 1769.02 L570.225 1766.53 Q571.785 1765.96 573.122 1765.68 Q574.479 1765.39 575.633 1765.39 Q578.57 1765.39 580.332 1766.73 Q582.094 1768.07 582.094 1770.25 Q582.094 1773.07 575.39 1778.82 Q574.256 1779.79 573.628 1780.34 Z" fill="#000000" fill-rule="evenodd" fill-opacity="1" /><path clip-path="url(#clip070)" d="M602.41 1763.81 L628.376 1763.81 L628.376 1767.22 L602.41 1767.22 L602.41 1763.81 M602.41 1772.08 L628.376 1772.08 L628.376 1775.52 L602.41 1775.52 L602.41 1772.08 Z" fill="#000000" fill-rule="evenodd" fill-opacity="1" /><path clip-path="url(#clip070)" d="M665.462 1757.39 L658.191 1761.32 L665.462 1765.27 L664.287 1767.26 L657.482 1763.14 L657.482 1770.78 L655.173 1770.78 L655.173 1763.14 L648.367 1767.26 L647.192 1765.27 L654.464 1761.32 L647.192 1757.39 L648.367 1755.39 L655.173 1759.5 L655.173 1751.86 L657.482 1751.86 L657.482 1759.5 L664.287 1755.39 L665.462 1757.39 Z" fill="#000000" fill-rule="evenodd" fill-opacity="1" /><path clip-path="url(#clip070)" d="M1016.51 1319.81 Q1014.93 1323.86 1013.43 1325.1 Q1011.94 1326.34 1009.42 1326.34 L1006.45 1326.34 L1006.45 1323.22 L1008.63 1323.22 Q1010.17 1323.22 1011.02 1322.49 Q1011.87 1321.76 1012.91 1319.04 L1013.58 1317.34 L1004.4 1295.02 L1008.35 1295.02 L1015.44 1312.77 L1022.53 1295.02 L1026.48 1295.02 L1016.51 1319.81 Z" fill="#000000" fill-rule="evenodd" fill-opacity="1" /><path clip-path="url(#clip070)" d="M1038.33 1308.55 Q1040.19 1308.92 1041.2 1310.03 Q1042.24 1311.12 1042.24 1312.79 Q1042.24 1315.3 1040.31 1316.65 Q1038.39 1318.01 1034.8 1318.01 Q1033.65 1318.01 1032.37 1317.79 Q1031.12 1317.59 1029.7 1317.18 L1029.7 1314.73 Q1030.75 1315.28 1031.95 1315.54 Q1033.16 1315.8 1034.52 1315.8 Q1036.73 1315.8 1037.94 1315.01 Q1039.16 1314.2 1039.16 1312.79 Q1039.16 1311.29 1038.02 1310.52 Q1036.91 1309.75 1034.72 1309.75 L1032.98 1309.75 L1032.98 1307.56 L1034.88 1307.56 Q1036.79 1307.56 1037.76 1306.93 Q1038.75 1306.28 1038.75 1305.07 Q1038.75 1303.89 1037.74 1303.29 Q1036.73 1302.66 1034.8 1302.66 Q1033.99 1302.66 1032.96 1302.84 Q1031.93 1303.02 1030.29 1303.49 L1030.29 1301.16 Q1031.76 1300.81 1033.06 1300.63 Q1034.36 1300.45 1035.47 1300.45 Q1038.39 1300.45 1040.09 1301.65 Q1041.81 1302.84 1041.81 1304.85 Q1041.81 1306.24 1040.9 1307.22 Q1039.99 1308.19 1038.33 1308.55 Z" fill="#000000" fill-rule="evenodd" fill-opacity="1" /><path clip-path="url(#clip070)" d="M1061.92 1298.87 L1087.89 1298.87 L1087.89 1302.27 L1061.92 1302.27 L1061.92 1298.87 M1061.92 1307.13 L1087.89 1307.13 L1087.89 1310.58 L1061.92 1310.58 L1061.92 1307.13 Z" fill="#000000" fill-rule="evenodd" fill-opacity="1" /><path clip-path="url(#clip070)" d="M1124.55 1291.7 L1124.55 1302.98 L1135.83 1302.98 L1135.83 1306.43 L1124.55 1306.43 L1124.55 1317.71 L1121.15 1317.71 L1121.15 1306.43 L1109.87 1306.43 L1109.87 1302.98 L1121.15 1302.98 L1121.15 1291.7 L1124.55 1291.7 Z" fill="#000000" fill-rule="evenodd" fill-opacity="1" /><path clip-path="url(#clip070)" d="M1061.52 830.08 L1079.22 830.08 L1079.22 833.483 L1065.2 849.788 L1079.22 849.788 L1079.22 852.765 L1061.01 852.765 L1061.01 849.363 L1075.03 833.058 L1061.52 833.058 L1061.52 830.08 Z" fill="#000000" fill-rule="evenodd" fill-opacity="1" /><path clip-path="url(#clip070)" d="M1716.56 1318.29 Q1713.7 1318.29 1711.84 1316.57 Q1709.63 1314.53 1709.63 1310.82 Q1709.63 1306.97 1711.58 1303.97 Q1713.58 1300.9 1717.19 1300.9 Q1719.56 1300.9 1721.42 1302.37 Q1722.51 1303.25 1723.26 1304.7 Q1723.53 1303.06 1723.53 1301.2 Q1723.53 1298.47 1722.88 1296.89 Q1721.44 1293.38 1717.63 1293.38 Q1716.19 1293.38 1713.97 1294.27 L1713.97 1290.87 Q1716.32 1290.24 1718.42 1290.24 Q1723.85 1290.24 1726.16 1295.22 Q1727.23 1297.57 1727.23 1301.08 Q1727.23 1303.37 1726.73 1306.02 Q1725.45 1312.66 1722.15 1315.82 Q1719.56 1318.29 1716.56 1318.29 M1713.1 1311.43 Q1713.1 1313.45 1713.99 1314.55 Q1714.94 1315.7 1716.4 1315.7 Q1717.69 1315.7 1718.73 1314.79 Q1720.18 1313.53 1721.26 1311.49 Q1722.15 1309.81 1722.59 1308.01 Q1720.79 1303.65 1717.67 1303.65 Q1715 1303.65 1713.82 1307.17 Q1713.1 1309.36 1713.1 1311.43 Z" fill="#000000" fill-rule="evenodd" fill-opacity="1" /><path clip-path="url(#clip070)" d="M1731.45 1295.02 L1749.15 1295.02 L1749.15 1298.42 L1735.13 1314.73 L1749.15 1314.73 L1749.15 1317.71 L1730.94 1317.71 L1730.94 1314.3 L1744.96 1298 L1731.45 1298 L1731.45 1295.02 Z" fill="#000000" fill-rule="evenodd" fill-opacity="1" /><path clip-path="url(#clip070)" d="M1761.46 1287.47 L1764.91 1287.47 L1754.37 1321.56 L1750.93 1321.56 L1761.46 1287.47 Z" fill="#000000" fill-rule="evenodd" fill-opacity="1" /><path clip-path="url(#clip070)" d="M1773.76 1318.29 Q1770.9 1318.29 1769.04 1316.57 Q1766.83 1314.53 1766.83 1310.82 Q1766.83 1306.97 1768.77 1303.97 Q1770.78 1300.9 1774.39 1300.9 Q1776.75 1300.9 1778.62 1302.37 Q1779.71 1303.25 1780.46 1304.7 Q1780.72 1303.06 1780.72 1301.2 Q1780.72 1298.47 1780.08 1296.89 Q1778.64 1293.38 1774.83 1293.38 Q1773.39 1293.38 1771.16 1294.27 L1771.16 1290.87 Q1773.51 1290.24 1775.62 1290.24 Q1781.05 1290.24 1783.36 1295.22 Q1784.43 1297.57 1784.43 1301.08 Q1784.43 1303.37 1783.93 1306.02 Q1782.65 1312.66 1779.35 1315.82 Q1776.75 1318.29 1773.76 1318.29 M1770.29 1311.43 Q1770.29 1313.45 1771.18 1314.55 Q1772.14 1315.7 1773.6 1315.7 Q1774.89 1315.7 1775.92 1314.79 Q1777.38 1313.53 1778.46 1311.49 Q1779.35 1309.81 1779.79 1308.01 Q1777.99 1303.65 1774.87 1303.65 Q1772.2 1303.65 1771.02 1307.17 Q1770.29 1309.36 1770.29 1311.43 Z" fill="#000000" fill-rule="evenodd" fill-opacity="1" /><path clip-path="url(#clip070)" d="M1799.7 1319.81 Q1798.12 1323.86 1796.62 1325.1 Q1795.13 1326.34 1792.61 1326.34 L1789.64 1326.34 L1789.64 1323.22 L1791.82 1323.22 Q1793.36 1323.22 1794.21 1322.49 Q1795.07 1321.76 1796.1 1319.04 L1796.77 1317.34 L1787.59 1295.02 L1791.54 1295.02 L1798.63 1312.77 L1805.72 1295.02 L1809.67 1295.02 L1799.7 1319.81 Z" fill="#000000" fill-rule="evenodd" fill-opacity="1" /><path clip-path="url(#clip070)" d="M1821.52 1308.55 Q1823.38 1308.92 1824.39 1310.03 Q1825.43 1311.12 1825.43 1312.79 Q1825.43 1315.3 1823.5 1316.65 Q1821.58 1318.01 1817.99 1318.01 Q1816.84 1318.01 1815.56 1317.79 Q1814.31 1317.59 1812.89 1317.18 L1812.89 1314.73 Q1813.94 1315.28 1815.14 1315.54 Q1816.35 1315.8 1817.71 1315.8 Q1819.92 1315.8 1821.13 1315.01 Q1822.35 1314.2 1822.35 1312.79 Q1822.35 1311.29 1821.21 1310.52 Q1820.1 1309.75 1817.91 1309.75 L1816.17 1309.75 L1816.17 1307.56 L1818.07 1307.56 Q1819.98 1307.56 1820.95 1306.93 Q1821.94 1306.28 1821.94 1305.07 Q1821.94 1303.89 1820.93 1303.29 Q1819.92 1302.66 1817.99 1302.66 Q1817.18 1302.66 1816.15 1302.84 Q1815.12 1303.02 1813.48 1303.49 L1813.48 1301.16 Q1814.96 1300.81 1816.25 1300.63 Q1817.55 1300.45 1818.66 1300.45 Q1821.58 1300.45 1823.28 1301.65 Q1825 1302.84 1825 1304.85 Q1825 1306.24 1824.09 1307.22 Q1823.18 1308.19 1821.52 1308.55 Z" fill="#000000" fill-rule="evenodd" fill-opacity="1" /><path clip-path="url(#clip070)" d="M1707.11 1783.24 Q1704.25 1783.24 1702.39 1781.51 Q1700.18 1779.47 1700.18 1775.76 Q1700.18 1771.91 1702.13 1768.92 Q1704.13 1765.84 1707.74 1765.84 Q1710.11 1765.84 1711.97 1767.32 Q1713.06 1768.19 1713.81 1769.65 Q1714.08 1768.01 1714.08 1766.14 Q1714.08 1763.41 1713.43 1761.83 Q1711.99 1758.32 1708.18 1758.32 Q1706.75 1758.32 1704.52 1759.21 L1704.52 1755.81 Q1706.87 1755.18 1708.97 1755.18 Q1714.4 1755.18 1716.71 1760.17 Q1717.78 1762.52 1717.78 1766.02 Q1717.78 1768.31 1717.28 1770.96 Q1716 1777.61 1712.7 1780.77 Q1710.11 1783.24 1707.11 1783.24 M1703.65 1776.37 Q1703.65 1778.4 1704.54 1779.49 Q1705.49 1780.64 1706.95 1780.64 Q1708.24 1780.64 1709.28 1779.73 Q1710.74 1778.48 1711.81 1776.43 Q1712.7 1774.75 1713.15 1772.95 Q1711.34 1768.59 1708.22 1768.59 Q1705.55 1768.59 1704.38 1772.12 Q1703.65 1774.3 1703.65 1776.37 Z" fill="#000000" fill-rule="evenodd" fill-opacity="1" /><path clip-path="url(#clip070)" d="M1733.06 1784.76 Q1731.48 1788.81 1729.98 1790.04 Q1728.48 1791.28 1725.97 1791.28 L1722.99 1791.28 L1722.99 1788.16 L1725.18 1788.16 Q1726.72 1788.16 1727.57 1787.43 Q1728.42 1786.7 1729.45 1783.99 L1730.12 1782.28 L1720.94 1759.96 L1724.89 1759.96 L1731.98 1777.71 L1739.07 1759.96 L1743.02 1759.96 L1733.06 1784.76 Z" fill="#000000" fill-rule="evenodd" fill-opacity="1" /><path clip-path="url(#clip070)" d="M1754.87 1773.49 Q1756.73 1773.86 1757.75 1774.97 Q1758.78 1776.07 1758.78 1777.73 Q1758.78 1780.24 1756.85 1781.6 Q1754.93 1782.95 1751.35 1782.95 Q1750.19 1782.95 1748.92 1782.73 Q1747.66 1782.53 1746.24 1782.12 L1746.24 1779.67 Q1747.29 1780.22 1748.49 1780.48 Q1749.71 1780.75 1751.06 1780.75 Q1753.27 1780.75 1754.49 1779.96 Q1755.7 1779.15 1755.7 1777.73 Q1755.7 1776.23 1754.57 1775.46 Q1753.45 1774.69 1751.26 1774.69 L1749.52 1774.69 L1749.52 1772.5 L1751.43 1772.5 Q1753.33 1772.5 1754.3 1771.87 Q1755.3 1771.23 1755.3 1770.01 Q1755.3 1768.84 1754.28 1768.23 Q1753.27 1767.6 1751.35 1767.6 Q1750.54 1767.6 1749.5 1767.78 Q1748.47 1767.96 1746.83 1768.43 L1746.83 1766.1 Q1748.31 1765.76 1749.6 1765.57 Q1750.9 1765.39 1752.01 1765.39 Q1754.93 1765.39 1756.63 1766.59 Q1758.35 1767.78 1758.35 1769.79 Q1758.35 1771.18 1757.44 1772.16 Q1756.53 1773.13 1754.87 1773.49 Z" fill="#000000" fill-rule="evenodd" fill-opacity="1" /><path clip-path="url(#clip070)" d="M1771.42 1752.41 L1774.86 1752.41 L1764.33 1786.5 L1760.89 1786.5 L1771.42 1752.41 Z" fill="#000000" fill-rule="evenodd" fill-opacity="1" /><path clip-path="url(#clip070)" d="M1783.71 1783.24 Q1780.86 1783.24 1778.99 1781.51 Q1776.79 1779.47 1776.79 1775.76 Q1776.79 1771.91 1778.73 1768.92 Q1780.74 1765.84 1784.34 1765.84 Q1786.71 1765.84 1788.57 1767.32 Q1789.67 1768.19 1790.42 1769.65 Q1790.68 1768.01 1790.68 1766.14 Q1790.68 1763.41 1790.03 1761.83 Q1788.59 1758.32 1784.79 1758.32 Q1783.35 1758.32 1781.12 1759.21 L1781.12 1755.81 Q1783.47 1755.18 1785.58 1755.18 Q1791 1755.18 1793.31 1760.17 Q1794.39 1762.52 1794.39 1766.02 Q1794.39 1768.31 1793.88 1770.96 Q1792.6 1777.61 1789.3 1780.77 Q1786.71 1783.24 1783.71 1783.24 M1780.25 1776.37 Q1780.25 1778.4 1781.14 1779.49 Q1782.09 1780.64 1783.55 1780.64 Q1784.85 1780.64 1785.88 1779.73 Q1787.34 1778.48 1788.41 1776.43 Q1789.3 1774.75 1789.75 1772.95 Q1787.95 1768.59 1784.83 1768.59 Q1782.15 1768.59 1780.98 1772.12 Q1780.25 1774.3 1780.25 1776.37 Z" fill="#000000" fill-rule="evenodd" fill-opacity="1" /><path clip-path="url(#clip070)" d="M1809.66 1784.76 Q1808.08 1788.81 1806.58 1790.04 Q1805.08 1791.28 1802.57 1791.28 L1799.59 1791.28 L1799.59 1788.16 L1801.78 1788.16 Q1803.32 1788.16 1804.17 1787.43 Q1805.02 1786.7 1806.05 1783.99 L1806.72 1782.28 L1797.55 1759.96 L1801.5 1759.96 L1808.58 1777.71 L1815.67 1759.96 L1819.62 1759.96 L1809.66 1784.76 Z" fill="#000000" fill-rule="evenodd" fill-opacity="1" /><path clip-path="url(#clip070)" d="M1826.29 1780.34 L1834.88 1780.34 L1834.88 1782.65 L1822.76 1782.65 L1822.76 1780.42 Q1823.45 1779.79 1824.73 1778.66 Q1831.7 1772.48 1831.7 1770.58 Q1831.7 1769.24 1830.64 1768.43 Q1829.59 1767.6 1827.87 1767.6 Q1826.81 1767.6 1825.58 1767.96 Q1824.34 1768.31 1822.88 1769.02 L1822.88 1766.53 Q1824.44 1765.96 1825.78 1765.68 Q1827.14 1765.39 1828.29 1765.39 Q1831.23 1765.39 1832.99 1766.73 Q1834.75 1768.07 1834.75 1770.25 Q1834.75 1773.07 1828.05 1778.82 Q1826.92 1779.79 1826.29 1780.34 Z" fill="#000000" fill-rule="evenodd" fill-opacity="1" /><path clip-path="url(#clip070)" d="M2181.75 1783.24 Q2178.9 1783.24 2177.03 1781.51 Q2174.83 1779.47 2174.83 1775.76 Q2174.83 1771.91 2176.77 1768.92 Q2178.78 1765.84 2182.38 1765.84 Q2184.75 1765.84 2186.61 1767.32 Q2187.71 1768.19 2188.46 1769.65 Q2188.72 1768.01 2188.72 1766.14 Q2188.72 1763.41 2188.07 1761.83 Q2186.63 1758.32 2182.83 1758.32 Q2181.39 1758.32 2179.16 1759.21 L2179.16 1755.81 Q2181.51 1755.18 2183.62 1755.18 Q2189.05 1755.18 2191.35 1760.17 Q2192.43 1762.52 2192.43 1766.02 Q2192.43 1768.31 2191.92 1770.96 Q2190.65 1777.61 2187.34 1780.77 Q2184.75 1783.24 2181.75 1783.24 M2178.29 1776.37 Q2178.29 1778.4 2179.18 1779.49 Q2180.13 1780.64 2181.59 1780.64 Q2182.89 1780.64 2183.92 1779.73 Q2185.38 1778.48 2186.45 1776.43 Q2187.34 1774.75 2187.79 1772.95 Q2185.99 1768.59 2182.87 1768.59 Q2180.19 1768.59 2179.02 1772.12 Q2178.29 1774.3 2178.29 1776.37 Z" fill="#000000" fill-rule="evenodd" fill-opacity="1" /><path clip-path="url(#clip070)" d="M2196.64 1759.96 L2214.34 1759.96 L2214.34 1763.37 L2200.33 1779.67 L2214.34 1779.67 L2214.34 1782.65 L2196.13 1782.65 L2196.13 1779.25 L2210.15 1762.94 L2196.64 1762.94 L2196.64 1759.96 Z" fill="#000000" fill-rule="evenodd" fill-opacity="1" /><path clip-path="url(#clip070)" d="M2226.66 1752.41 L2230.1 1752.41 L2219.57 1786.5 L2216.13 1786.5 L2226.66 1752.41 Z" fill="#000000" fill-rule="evenodd" fill-opacity="1" /><path clip-path="url(#clip070)" d="M2238.95 1783.24 Q2236.1 1783.24 2234.23 1781.51 Q2232.03 1779.47 2232.03 1775.76 Q2232.03 1771.91 2233.97 1768.92 Q2235.97 1765.84 2239.58 1765.84 Q2241.95 1765.84 2243.81 1767.32 Q2244.91 1768.19 2245.66 1769.65 Q2245.92 1768.01 2245.92 1766.14 Q2245.92 1763.41 2245.27 1761.83 Q2243.83 1758.32 2240.03 1758.32 Q2238.59 1758.32 2236.36 1759.21 L2236.36 1755.81 Q2238.71 1755.18 2240.82 1755.18 Q2246.24 1755.18 2248.55 1760.17 Q2249.63 1762.52 2249.63 1766.02 Q2249.63 1768.31 2249.12 1770.96 Q2247.84 1777.61 2244.54 1780.77 Q2241.95 1783.24 2238.95 1783.24 M2235.49 1776.37 Q2235.49 1778.4 2236.38 1779.49 Q2237.33 1780.64 2238.79 1780.64 Q2240.09 1780.64 2241.12 1779.73 Q2242.58 1778.48 2243.65 1776.43 Q2244.54 1774.75 2244.99 1772.95 Q2243.19 1768.59 2240.07 1768.59 Q2237.39 1768.59 2236.22 1772.12 Q2235.49 1774.3 2235.49 1776.37 Z" fill="#000000" fill-rule="evenodd" fill-opacity="1" /><path clip-path="url(#clip070)" d="M2264.9 1784.76 Q2263.32 1788.81 2261.82 1790.04 Q2260.32 1791.28 2257.81 1791.28 L2254.83 1791.28 L2254.83 1788.16 L2257.02 1788.16 Q2258.56 1788.16 2259.41 1787.43 Q2260.26 1786.7 2261.29 1783.99 L2261.96 1782.28 L2252.79 1759.96 L2256.74 1759.96 L2263.82 1777.71 L2270.91 1759.96 L2274.86 1759.96 L2264.9 1784.76 Z" fill="#000000" fill-rule="evenodd" fill-opacity="1" /><path clip-path="url(#clip070)" d="M2281.53 1780.34 L2290.12 1780.34 L2290.12 1782.65 L2278 1782.65 L2278 1780.42 Q2278.69 1779.79 2279.97 1778.66 Q2286.94 1772.48 2286.94 1770.58 Q2286.94 1769.24 2285.88 1768.43 Q2284.83 1767.6 2283.11 1767.6 Q2282.05 1767.6 2280.82 1767.96 Q2279.58 1768.31 2278.12 1769.02 L2278.12 1766.53 Q2279.68 1765.96 2281.02 1765.68 Q2282.38 1765.39 2283.53 1765.39 Q2286.47 1765.39 2288.23 1766.73 Q2289.99 1768.07 2289.99 1770.25 Q2289.99 1773.07 2283.29 1778.82 Q2282.16 1779.79 2281.53 1780.34 Z" fill="#000000" fill-rule="evenodd" fill-opacity="1" /><path clip-path="url(#clip070)" d="M1706.94 2248.18 Q1704.08 2248.18 1702.22 2246.46 Q1700.01 2244.41 1700.01 2240.7 Q1700.01 2236.86 1701.96 2233.86 Q1703.96 2230.78 1707.57 2230.78 Q1709.94 2230.78 1711.8 2232.26 Q1712.89 2233.13 1713.64 2234.59 Q1713.91 2232.95 1713.91 2231.08 Q1713.91 2228.35 1713.26 2226.77 Q1711.82 2223.27 1708.01 2223.27 Q1706.57 2223.27 1704.35 2224.16 L1704.35 2220.75 Q1706.69 2220.13 1708.8 2220.13 Q1714.23 2220.13 1716.54 2225.11 Q1717.61 2227.46 1717.61 2230.96 Q1717.61 2233.25 1717.11 2235.9 Q1715.83 2242.55 1712.53 2245.71 Q1709.94 2248.18 1706.94 2248.18 M1703.47 2241.31 Q1703.47 2243.34 1704.37 2244.43 Q1705.32 2245.59 1706.78 2245.59 Q1708.07 2245.59 1709.1 2244.67 Q1710.56 2243.42 1711.64 2241.37 Q1712.53 2239.69 1712.97 2237.89 Q1711.17 2233.53 1708.05 2233.53 Q1705.38 2233.53 1704.2 2237.06 Q1703.47 2239.25 1703.47 2241.31 Z" fill="#000000" fill-rule="evenodd" fill-opacity="1" /><path clip-path="url(#clip070)" d="M1732.88 2249.7 Q1731.3 2253.75 1729.81 2254.98 Q1728.31 2256.22 1725.79 2256.22 L1722.82 2256.22 L1722.82 2253.1 L1725 2253.1 Q1726.54 2253.1 1727.39 2252.37 Q1728.25 2251.64 1729.28 2248.93 L1729.95 2247.23 L1720.77 2224.91 L1724.72 2224.91 L1731.81 2242.65 L1738.9 2224.91 L1742.85 2224.91 L1732.88 2249.7 Z" fill="#000000" fill-rule="evenodd" fill-opacity="1" /><path clip-path="url(#clip070)" d="M1754.7 2238.44 Q1756.56 2238.8 1757.57 2239.91 Q1758.61 2241.01 1758.61 2242.67 Q1758.61 2245.18 1756.68 2246.54 Q1754.76 2247.89 1751.17 2247.89 Q1750.02 2247.89 1748.74 2247.67 Q1747.49 2247.47 1746.07 2247.06 L1746.07 2244.61 Q1747.12 2245.16 1748.32 2245.42 Q1749.53 2245.69 1750.89 2245.69 Q1753.1 2245.69 1754.31 2244.9 Q1755.53 2244.09 1755.53 2242.67 Q1755.53 2241.17 1754.39 2240.4 Q1753.28 2239.63 1751.09 2239.63 L1749.35 2239.63 L1749.35 2237.44 L1751.25 2237.44 Q1753.16 2237.44 1754.13 2236.82 Q1755.12 2236.17 1755.12 2234.95 Q1755.12 2233.78 1754.11 2233.17 Q1753.1 2232.54 1751.17 2232.54 Q1750.36 2232.54 1749.33 2232.72 Q1748.3 2232.91 1746.66 2233.37 L1746.66 2231.04 Q1748.14 2230.7 1749.43 2230.52 Q1750.73 2230.33 1751.84 2230.33 Q1754.76 2230.33 1756.46 2231.53 Q1758.18 2232.72 1758.18 2234.73 Q1758.18 2236.13 1757.27 2237.1 Q1756.36 2238.07 1754.7 2238.44 Z" fill="#000000" fill-rule="evenodd" fill-opacity="1" /><path clip-path="url(#clip070)" d="M1771.25 2217.35 L1774.69 2217.35 L1764.16 2251.44 L1760.71 2251.44 L1771.25 2217.35 Z" fill="#000000" fill-rule="evenodd" fill-opacity="1" /><path clip-path="url(#clip070)" d="M1783.54 2248.18 Q1780.68 2248.18 1778.82 2246.46 Q1776.61 2244.41 1776.61 2240.7 Q1776.61 2236.86 1778.56 2233.86 Q1780.56 2230.78 1784.17 2230.78 Q1786.54 2230.78 1788.4 2232.26 Q1789.5 2233.13 1790.24 2234.59 Q1790.51 2232.95 1790.51 2231.08 Q1790.51 2228.35 1789.86 2226.77 Q1788.42 2223.27 1784.61 2223.27 Q1783.18 2223.27 1780.95 2224.16 L1780.95 2220.75 Q1783.3 2220.13 1785.4 2220.13 Q1790.83 2220.13 1793.14 2225.11 Q1794.21 2227.46 1794.21 2230.96 Q1794.21 2233.25 1793.71 2235.9 Q1792.43 2242.55 1789.13 2245.71 Q1786.54 2248.18 1783.54 2248.18 M1780.08 2241.31 Q1780.08 2243.34 1780.97 2244.43 Q1781.92 2245.59 1783.38 2245.59 Q1784.67 2245.59 1785.71 2244.67 Q1787.17 2243.42 1788.24 2241.37 Q1789.13 2239.69 1789.58 2237.89 Q1787.77 2233.53 1784.65 2233.53 Q1781.98 2233.53 1780.81 2237.06 Q1780.08 2239.25 1780.08 2241.31 Z" fill="#000000" fill-rule="evenodd" fill-opacity="1" /><path clip-path="url(#clip070)" d="M1809.49 2249.7 Q1807.91 2253.75 1806.41 2254.98 Q1804.91 2256.22 1802.4 2256.22 L1799.42 2256.22 L1799.42 2253.1 L1801.61 2253.1 Q1803.15 2253.1 1804 2252.37 Q1804.85 2251.64 1805.88 2248.93 L1806.55 2247.23 L1797.37 2224.91 L1801.32 2224.91 L1808.41 2242.65 L1815.5 2224.91 L1819.45 2224.91 L1809.49 2249.7 Z" fill="#000000" fill-rule="evenodd" fill-opacity="1" /><path clip-path="url(#clip070)" d="M1823.85 2245.36 L1827.98 2245.36 L1827.98 2232.99 L1823.46 2233.82 L1823.46 2231.47 L1828.12 2230.68 L1830.9 2230.68 L1830.9 2245.36 L1835.05 2245.36 L1835.05 2247.59 L1823.85 2247.59 L1823.85 2245.36 Z" fill="#000000" fill-rule="evenodd" fill-opacity="1" /><path clip-path="url(#clip070)" d="M2181.58 2248.18 Q2178.73 2248.18 2176.86 2246.46 Q2174.65 2244.41 2174.65 2240.7 Q2174.65 2236.86 2176.6 2233.86 Q2178.6 2230.78 2182.21 2230.78 Q2184.58 2230.78 2186.44 2232.26 Q2187.54 2233.13 2188.29 2234.59 Q2188.55 2232.95 2188.55 2231.08 Q2188.55 2228.35 2187.9 2226.77 Q2186.46 2223.27 2182.65 2223.27 Q2181.22 2223.27 2178.99 2224.16 L2178.99 2220.75 Q2181.34 2220.13 2183.44 2220.13 Q2188.87 2220.13 2191.18 2225.11 Q2192.26 2227.46 2192.26 2230.96 Q2192.26 2233.25 2191.75 2235.9 Q2190.47 2242.55 2187.17 2245.71 Q2184.58 2248.18 2181.58 2248.18 M2178.12 2241.31 Q2178.12 2243.34 2179.01 2244.43 Q2179.96 2245.59 2181.42 2245.59 Q2182.72 2245.59 2183.75 2244.67 Q2185.21 2243.42 2186.28 2241.37 Q2187.17 2239.69 2187.62 2237.89 Q2185.81 2233.53 2182.7 2233.53 Q2180.02 2233.53 2178.85 2237.06 Q2178.12 2239.25 2178.12 2241.31 Z" fill="#000000" fill-rule="evenodd" fill-opacity="1" /><path clip-path="url(#clip070)" d="M2196.47 2224.91 L2214.17 2224.91 L2214.17 2228.31 L2200.15 2244.61 L2214.17 2244.61 L2214.17 2247.59 L2195.96 2247.59 L2195.96 2244.19 L2209.98 2227.88 L2196.47 2227.88 L2196.47 2224.91 Z" fill="#000000" fill-rule="evenodd" fill-opacity="1" /><path clip-path="url(#clip070)" d="M2226.49 2217.35 L2229.93 2217.35 L2219.4 2251.44 L2215.95 2251.44 L2226.49 2217.35 Z" fill="#000000" fill-rule="evenodd" fill-opacity="1" /><path clip-path="url(#clip070)" d="M2238.78 2248.18 Q2235.92 2248.18 2234.06 2246.46 Q2231.85 2244.41 2231.85 2240.7 Q2231.85 2236.86 2233.8 2233.86 Q2235.8 2230.78 2239.41 2230.78 Q2241.78 2230.78 2243.64 2232.26 Q2244.74 2233.13 2245.48 2234.59 Q2245.75 2232.95 2245.75 2231.08 Q2245.75 2228.35 2245.1 2226.77 Q2243.66 2223.27 2239.85 2223.27 Q2238.42 2223.27 2236.19 2224.16 L2236.19 2220.75 Q2238.54 2220.13 2240.64 2220.13 Q2246.07 2220.13 2248.38 2225.11 Q2249.45 2227.46 2249.45 2230.96 Q2249.45 2233.25 2248.95 2235.9 Q2247.67 2242.55 2244.37 2245.71 Q2241.78 2248.18 2238.78 2248.18 M2235.32 2241.31 Q2235.32 2243.34 2236.21 2244.43 Q2237.16 2245.59 2238.62 2245.59 Q2239.91 2245.59 2240.95 2244.67 Q2242.41 2243.42 2243.48 2241.37 Q2244.37 2239.69 2244.82 2237.89 Q2243.01 2233.53 2239.89 2233.53 Q2237.22 2233.53 2236.05 2237.06 Q2235.32 2239.25 2235.32 2241.31 Z" fill="#000000" fill-rule="evenodd" fill-opacity="1" /><path clip-path="url(#clip070)" d="M2264.73 2249.7 Q2263.15 2253.75 2261.65 2254.98 Q2260.15 2256.22 2257.64 2256.22 L2254.66 2256.22 L2254.66 2253.1 L2256.85 2253.1 Q2258.39 2253.1 2259.24 2252.37 Q2260.09 2251.64 2261.12 2248.93 L2261.79 2247.23 L2252.61 2224.91 L2256.56 2224.91 L2263.65 2242.65 L2270.74 2224.91 L2274.69 2224.91 L2264.73 2249.7 Z" fill="#000000" fill-rule="evenodd" fill-opacity="1" /><path clip-path="url(#clip070)" d="M2279.09 2245.36 L2283.22 2245.36 L2283.22 2232.99 L2278.7 2233.82 L2278.7 2231.47 L2283.36 2230.68 L2286.14 2230.68 L2286.14 2245.36 L2290.29 2245.36 L2290.29 2247.59 L2279.09 2247.59 L2279.09 2245.36 Z" fill="#000000" fill-rule="evenodd" fill-opacity="1" /><path clip-path="url(#clip070)" d="M2644.62 2713.12 Q2641.76 2713.12 2639.9 2711.4 Q2637.69 2709.35 2637.69 2705.65 Q2637.69 2701.8 2639.64 2698.8 Q2641.64 2695.72 2645.25 2695.72 Q2647.62 2695.72 2649.48 2697.2 Q2650.57 2698.07 2651.32 2699.53 Q2651.59 2697.89 2651.59 2696.03 Q2651.59 2693.29 2650.94 2691.71 Q2649.5 2688.21 2645.69 2688.21 Q2644.25 2688.21 2642.03 2689.1 L2642.03 2685.7 Q2644.38 2685.07 2646.48 2685.07 Q2651.91 2685.07 2654.22 2690.05 Q2655.29 2692.4 2655.29 2695.9 Q2655.29 2698.19 2654.79 2700.85 Q2653.51 2707.49 2650.21 2710.65 Q2647.62 2713.12 2644.62 2713.12 M2641.16 2706.25 Q2641.16 2708.28 2642.05 2709.37 Q2643 2710.53 2644.46 2710.53 Q2645.75 2710.53 2646.79 2709.62 Q2648.24 2708.36 2649.32 2706.31 Q2650.21 2704.63 2650.66 2702.83 Q2648.85 2698.48 2645.73 2698.48 Q2643.06 2698.48 2641.89 2702 Q2641.16 2704.19 2641.16 2706.25 Z" fill="#000000" fill-rule="evenodd" fill-opacity="1" /><path clip-path="url(#clip070)" d="M2670.57 2714.64 Q2668.99 2718.69 2667.49 2719.93 Q2665.99 2721.16 2663.48 2721.16 L2660.5 2721.16 L2660.5 2718.04 L2662.69 2718.04 Q2664.23 2718.04 2665.08 2717.31 Q2665.93 2716.58 2666.96 2713.87 L2667.63 2712.17 L2658.45 2689.85 L2662.4 2689.85 L2669.49 2707.59 L2676.58 2689.85 L2680.53 2689.85 L2670.57 2714.64 Z" fill="#000000" fill-rule="evenodd" fill-opacity="1" /><path clip-path="url(#clip070)" d="M2687.19 2710.22 L2695.78 2710.22 L2695.78 2712.53 L2683.67 2712.53 L2683.67 2710.3 Q2684.36 2709.68 2685.63 2708.54 Q2692.6 2702.37 2692.6 2700.46 Q2692.6 2699.12 2691.55 2698.31 Q2690.5 2697.48 2688.77 2697.48 Q2687.72 2697.48 2686.49 2697.85 Q2685.25 2698.19 2683.79 2698.9 L2683.79 2696.41 Q2685.35 2695.84 2686.69 2695.56 Q2688.05 2695.28 2689.2 2695.28 Q2692.14 2695.28 2693.9 2696.61 Q2695.66 2697.95 2695.66 2700.14 Q2695.66 2702.95 2688.96 2708.7 Q2687.82 2709.68 2687.19 2710.22 Z" fill="#000000" fill-rule="evenodd" fill-opacity="1" /><path clip-path="url(#clip070)" d="M2708.93 2682.29 L2712.37 2682.29 L2701.84 2716.38 L2698.4 2716.38 L2708.93 2682.29 Z" fill="#000000" fill-rule="evenodd" fill-opacity="1" /><path clip-path="url(#clip070)" d="M2721.22 2713.12 Q2718.37 2713.12 2716.5 2711.4 Q2714.29 2709.35 2714.29 2705.65 Q2714.29 2701.8 2716.24 2698.8 Q2718.24 2695.72 2721.85 2695.72 Q2724.22 2695.72 2726.08 2697.2 Q2727.18 2698.07 2727.93 2699.53 Q2728.19 2697.89 2728.19 2696.03 Q2728.19 2693.29 2727.54 2691.71 Q2726.1 2688.21 2722.3 2688.21 Q2720.86 2688.21 2718.63 2689.1 L2718.63 2685.7 Q2720.98 2685.07 2723.09 2685.07 Q2728.51 2685.07 2730.82 2690.05 Q2731.9 2692.4 2731.9 2695.9 Q2731.9 2698.19 2731.39 2700.85 Q2730.11 2707.49 2726.81 2710.65 Q2724.22 2713.12 2721.22 2713.12 M2717.76 2706.25 Q2717.76 2708.28 2718.65 2709.37 Q2719.6 2710.53 2721.06 2710.53 Q2722.36 2710.53 2723.39 2709.62 Q2724.85 2708.36 2725.92 2706.31 Q2726.81 2704.63 2727.26 2702.83 Q2725.46 2698.48 2722.34 2698.48 Q2719.66 2698.48 2718.49 2702 Q2717.76 2704.19 2717.76 2706.25 Z" fill="#000000" fill-rule="evenodd" fill-opacity="1" /><path clip-path="url(#clip070)" d="M2747.17 2714.64 Q2745.59 2718.69 2744.09 2719.93 Q2742.59 2721.16 2740.08 2721.16 L2737.1 2721.16 L2737.1 2718.04 L2739.29 2718.04 Q2740.83 2718.04 2741.68 2717.31 Q2742.53 2716.58 2743.56 2713.87 L2744.23 2712.17 L2735.06 2689.85 L2739.01 2689.85 L2746.09 2707.59 L2753.18 2689.85 L2757.13 2689.85 L2747.17 2714.64 Z" fill="#000000" fill-rule="evenodd" fill-opacity="1" /><path clip-path="url(#clip070)" d="M2552.82 3178.06 Q2549.96 3178.06 2548.1 3176.34 Q2545.89 3174.29 2545.89 3170.59 Q2545.89 3166.74 2547.83 3163.74 Q2549.84 3160.66 2553.44 3160.66 Q2555.81 3160.66 2557.68 3162.14 Q2558.77 3163.01 2559.52 3164.47 Q2559.78 3162.83 2559.78 3160.97 Q2559.78 3158.23 2559.14 3156.65 Q2557.7 3153.15 2553.89 3153.15 Q2552.45 3153.15 2550.22 3154.04 L2550.22 3150.64 Q2552.57 3150.01 2554.68 3150.01 Q2560.11 3150.01 2562.42 3154.99 Q2563.49 3157.34 2563.49 3160.85 Q2563.49 3163.13 2562.98 3165.79 Q2561.71 3172.43 2558.41 3175.59 Q2555.81 3178.06 2552.82 3178.06 M2549.35 3171.2 Q2549.35 3173.22 2550.24 3174.32 Q2551.2 3175.47 2552.65 3175.47 Q2553.95 3175.47 2554.98 3174.56 Q2556.44 3173.3 2557.51 3171.26 Q2558.41 3169.58 2558.85 3167.77 Q2557.05 3163.42 2553.93 3163.42 Q2551.26 3163.42 2550.08 3166.94 Q2549.35 3169.13 2549.35 3171.2 Z" fill="#000000" fill-rule="evenodd" fill-opacity="1" /><path clip-path="url(#clip070)" d="M2578.76 3179.58 Q2577.18 3183.63 2575.68 3184.87 Q2574.18 3186.1 2571.67 3186.1 L2568.7 3186.1 L2568.7 3182.98 L2570.88 3182.98 Q2572.42 3182.98 2573.27 3182.25 Q2574.12 3181.53 2575.16 3178.81 L2575.82 3177.11 L2566.65 3154.79 L2570.6 3154.79 L2577.69 3172.53 L2584.78 3154.79 L2588.73 3154.79 L2578.76 3179.58 Z" fill="#000000" fill-rule="evenodd" fill-opacity="1" /><path clip-path="url(#clip070)" d="M2595.39 3175.17 L2603.98 3175.17 L2603.98 3177.47 L2591.87 3177.47 L2591.87 3175.25 Q2592.56 3174.62 2593.83 3173.48 Q2600.8 3167.31 2600.8 3165.4 Q2600.8 3164.07 2599.75 3163.26 Q2598.69 3162.43 2596.97 3162.43 Q2595.92 3162.43 2594.68 3162.79 Q2593.45 3163.13 2591.99 3163.84 L2591.99 3161.35 Q2593.55 3160.78 2594.88 3160.5 Q2596.24 3160.22 2597.4 3160.22 Q2600.33 3160.22 2602.1 3161.55 Q2603.86 3162.89 2603.86 3165.08 Q2603.86 3167.89 2597.15 3173.65 Q2596.02 3174.62 2595.39 3175.17 Z" fill="#000000" fill-rule="evenodd" fill-opacity="1" /><path clip-path="url(#clip070)" d="M2617.12 3147.23 L2620.57 3147.23 L2610.03 3181.32 L2606.59 3181.32 L2617.12 3147.23 Z" fill="#000000" fill-rule="evenodd" fill-opacity="1" /><path clip-path="url(#clip070)" d="M2629.42 3178.06 Q2626.56 3178.06 2624.7 3176.34 Q2622.49 3174.29 2622.49 3170.59 Q2622.49 3166.74 2624.44 3163.74 Q2626.44 3160.66 2630.05 3160.66 Q2632.42 3160.66 2634.28 3162.14 Q2635.37 3163.01 2636.12 3164.47 Q2636.39 3162.83 2636.39 3160.97 Q2636.39 3158.23 2635.74 3156.65 Q2634.3 3153.15 2630.49 3153.15 Q2629.05 3153.15 2626.83 3154.04 L2626.83 3150.64 Q2629.18 3150.01 2631.28 3150.01 Q2636.71 3150.01 2639.02 3154.99 Q2640.09 3157.34 2640.09 3160.85 Q2640.09 3163.13 2639.59 3165.79 Q2638.31 3172.43 2635.01 3175.59 Q2632.42 3178.06 2629.42 3178.06 M2625.95 3171.2 Q2625.95 3173.22 2626.85 3174.32 Q2627.8 3175.47 2629.26 3175.47 Q2630.55 3175.47 2631.59 3174.56 Q2633.04 3173.3 2634.12 3171.26 Q2635.01 3169.58 2635.45 3167.77 Q2633.65 3163.42 2630.53 3163.42 Q2627.86 3163.42 2626.68 3166.94 Q2625.95 3169.13 2625.95 3171.2 Z" fill="#000000" fill-rule="evenodd" fill-opacity="1" /><path clip-path="url(#clip070)" d="M2664.78 3154.79 L2656.58 3165.83 L2665.21 3177.47 L2660.81 3177.47 L2654.21 3168.56 L2647.61 3177.47 L2643.21 3177.47 L2652.02 3165.61 L2643.96 3154.79 L2648.36 3154.79 L2654.37 3162.87 L2660.39 3154.79 L2664.78 3154.79 Z" fill="#000000" fill-rule="evenodd" fill-opacity="1" /><path clip-path="url(#clip070)" d="M2698.83 3151.47 L2698.83 3162.75 L2710.11 3162.75 L2710.11 3166.19 L2698.83 3166.19 L2698.83 3177.47 L2695.43 3177.47 L2695.43 3166.19 L2684.15 3166.19 L2684.15 3162.75 L2695.43 3162.75 L2695.43 3151.47 L2698.83 3151.47 Z" fill="#000000" fill-rule="evenodd" fill-opacity="1" /><path clip-path="url(#clip070)" d="M2736.54 3178.06 Q2733.69 3178.06 2731.83 3176.34 Q2729.62 3174.29 2729.62 3170.59 Q2729.62 3166.74 2731.56 3163.74 Q2733.57 3160.66 2737.17 3160.66 Q2739.54 3160.66 2741.41 3162.14 Q2742.5 3163.01 2743.25 3164.47 Q2743.51 3162.83 2743.51 3160.97 Q2743.51 3158.23 2742.86 3156.65 Q2741.43 3153.15 2737.62 3153.15 Q2736.18 3153.15 2733.95 3154.04 L2733.95 3150.64 Q2736.3 3150.01 2738.41 3150.01 Q2743.84 3150.01 2746.15 3154.99 Q2747.22 3157.34 2747.22 3160.85 Q2747.22 3163.13 2746.71 3165.79 Q2745.44 3172.43 2742.13 3175.59 Q2739.54 3178.06 2736.54 3178.06 M2733.08 3171.2 Q2733.08 3173.22 2733.97 3174.32 Q2734.92 3175.47 2736.38 3175.47 Q2737.68 3175.47 2738.71 3174.56 Q2740.17 3173.3 2741.24 3171.26 Q2742.13 3169.58 2742.58 3167.77 Q2740.78 3163.42 2737.66 3163.42 Q2734.98 3163.42 2733.81 3166.94 Q2733.08 3169.13 2733.08 3171.2 Z" fill="#000000" fill-rule="evenodd" fill-opacity="1" /><path clip-path="url(#clip070)" d="M2762.49 3179.58 Q2760.91 3183.63 2759.41 3184.87 Q2757.91 3186.1 2755.4 3186.1 L2752.42 3186.1 L2752.42 3182.98 L2754.61 3182.98 Q2756.15 3182.98 2757 3182.25 Q2757.85 3181.53 2758.89 3178.81 L2759.55 3177.11 L2750.38 3154.79 L2754.33 3154.79 L2761.42 3172.53 L2768.51 3154.79 L2772.46 3154.79 L2762.49 3179.58 Z" fill="#000000" fill-rule="evenodd" fill-opacity="1" /><path clip-path="url(#clip070)" d="M2776.85 3175.25 L2780.98 3175.25 L2780.98 3162.87 L2776.47 3163.7 L2776.47 3161.35 L2781.12 3160.56 L2783.9 3160.56 L2783.9 3175.25 L2788.05 3175.25 L2788.05 3177.47 L2776.85 3177.47 L2776.85 3175.25 Z" fill="#000000" fill-rule="evenodd" fill-opacity="1" /><path clip-path="url(#clip070)" d="M2800.85 3147.23 L2804.3 3147.23 L2793.76 3181.32 L2790.32 3181.32 L2800.85 3147.23 Z" fill="#000000" fill-rule="evenodd" fill-opacity="1" /><path clip-path="url(#clip070)" d="M2813.15 3178.06 Q2810.29 3178.06 2808.43 3176.34 Q2806.22 3174.29 2806.22 3170.59 Q2806.22 3166.74 2808.16 3163.74 Q2810.17 3160.66 2813.78 3160.66 Q2816.14 3160.66 2818.01 3162.14 Q2819.1 3163.01 2819.85 3164.47 Q2820.11 3162.83 2820.11 3160.97 Q2820.11 3158.23 2819.47 3156.65 Q2818.03 3153.15 2814.22 3153.15 Q2812.78 3153.15 2810.55 3154.04 L2810.55 3150.64 Q2812.9 3150.01 2815.01 3150.01 Q2820.44 3150.01 2822.75 3154.99 Q2823.82 3157.34 2823.82 3160.85 Q2823.82 3163.13 2823.31 3165.79 Q2822.04 3172.43 2818.74 3175.59 Q2816.14 3178.06 2813.15 3178.06 M2809.68 3171.2 Q2809.68 3173.22 2810.57 3174.32 Q2811.53 3175.47 2812.99 3175.47 Q2814.28 3175.47 2815.31 3174.56 Q2816.77 3173.3 2817.85 3171.26 Q2818.74 3169.58 2819.18 3167.77 Q2817.38 3163.42 2814.26 3163.42 Q2811.59 3163.42 2810.41 3166.94 Q2809.68 3169.13 2809.68 3171.2 Z" fill="#000000" fill-rule="evenodd" fill-opacity="1" /><path clip-path="url(#clip070)" d="M2848.51 3154.79 L2840.31 3165.83 L2848.94 3177.47 L2844.54 3177.47 L2837.94 3168.56 L2831.34 3177.47 L2826.94 3177.47 L2835.75 3165.61 L2827.69 3154.79 L2832.09 3154.79 L2838.1 3162.87 L2844.12 3154.79 L2848.51 3154.79 Z" fill="#000000" fill-rule="evenodd" fill-opacity="1" /><path clip-path="url(#clip070)" d="M3351.79 3178.06 Q3348.94 3178.06 3347.08 3176.34 Q3344.87 3174.29 3344.87 3170.59 Q3344.87 3166.74 3346.81 3163.74 Q3348.82 3160.66 3352.42 3160.66 Q3354.79 3160.66 3356.66 3162.14 Q3357.75 3163.01 3358.5 3164.47 Q3358.76 3162.83 3358.76 3160.97 Q3358.76 3158.23 3358.11 3156.65 Q3356.68 3153.15 3352.87 3153.15 Q3351.43 3153.15 3349.2 3154.04 L3349.2 3150.64 Q3351.55 3150.01 3353.66 3150.01 Q3359.09 3150.01 3361.4 3154.99 Q3362.47 3157.34 3362.47 3160.85 Q3362.47 3163.13 3361.96 3165.79 Q3360.69 3172.43 3357.39 3175.59 Q3354.79 3178.06 3351.79 3178.06 M3348.33 3171.2 Q3348.33 3173.22 3349.22 3174.32 Q3350.17 3175.47 3351.63 3175.47 Q3352.93 3175.47 3353.96 3174.56 Q3355.42 3173.3 3356.49 3171.26 Q3357.39 3169.58 3357.83 3167.77 Q3356.03 3163.42 3352.91 3163.42 Q3350.24 3163.42 3349.06 3166.94 Q3348.33 3169.13 3348.33 3171.2 Z" fill="#000000" fill-rule="evenodd" fill-opacity="1" /><path clip-path="url(#clip070)" d="M3366.68 3154.79 L3384.38 3154.79 L3384.38 3158.19 L3370.37 3174.5 L3384.38 3174.5 L3384.38 3177.47 L3366.18 3177.47 L3366.18 3174.07 L3380.19 3157.77 L3366.68 3157.77 L3366.68 3154.79 Z" fill="#000000" fill-rule="evenodd" fill-opacity="1" /><path clip-path="url(#clip070)" d="M3396.7 3147.23 L3400.14 3147.23 L3389.61 3181.32 L3386.17 3181.32 L3396.7 3147.23 Z" fill="#000000" fill-rule="evenodd" fill-opacity="1" /><path clip-path="url(#clip070)" d="M3408.99 3178.06 Q3406.14 3178.06 3404.27 3176.34 Q3402.07 3174.29 3402.07 3170.59 Q3402.07 3166.74 3404.01 3163.74 Q3406.02 3160.66 3409.62 3160.66 Q3411.99 3160.66 3413.85 3162.14 Q3414.95 3163.01 3415.7 3164.47 Q3415.96 3162.83 3415.96 3160.97 Q3415.96 3158.23 3415.31 3156.65 Q3413.88 3153.15 3410.07 3153.15 Q3408.63 3153.15 3406.4 3154.04 L3406.4 3150.64 Q3408.75 3150.01 3410.86 3150.01 Q3416.29 3150.01 3418.59 3154.99 Q3419.67 3157.34 3419.67 3160.85 Q3419.67 3163.13 3419.16 3165.79 Q3417.89 3172.43 3414.58 3175.59 Q3411.99 3178.06 3408.99 3178.06 M3405.53 3171.2 Q3405.53 3173.22 3406.42 3174.32 Q3407.37 3175.47 3408.83 3175.47 Q3410.13 3175.47 3411.16 3174.56 Q3412.62 3173.3 3413.69 3171.26 Q3414.58 3169.58 3415.03 3167.77 Q3413.23 3163.42 3410.11 3163.42 Q3407.43 3163.42 3406.26 3166.94 Q3405.53 3169.13 3405.53 3171.2 Z" fill="#000000" fill-rule="evenodd" fill-opacity="1" /><path clip-path="url(#clip070)" d="M3444.36 3154.79 L3436.15 3165.83 L3444.78 3177.47 L3440.39 3177.47 L3433.79 3168.56 L3427.18 3177.47 L3422.79 3177.47 L3431.6 3165.61 L3423.54 3154.79 L3427.93 3154.79 L3433.95 3162.87 L3439.96 3154.79 L3444.36 3154.79 Z" fill="#000000" fill-rule="evenodd" fill-opacity="1" /></svg>
