<?xml version="1.0" encoding="utf-8"?>
<svg xmlns="http://www.w3.org/2000/svg" xmlns:xlink="http://www.w3.org/1999/xlink" width="1000" height="1000" viewBox="0 0 4000 4000">
<defs>
  <clipPath id="clip980">
    <rect x="0" y="0" width="4000" height="4000"/>
  </clipPath>
</defs>
<path clip-path="url(#clip980)" d="
M0 4000 L4000 4000 L4000 0 L0 0  Z
  " fill="#ffffff" fill-rule="evenodd" fill-opacity="1"/>
<defs>
  <clipPath id="clip981">
    <rect x="800" y="400" width="2801" height="2801"/>
  </clipPath>
</defs>
<path clip-path="url(#clip980)" d="
M633.071 3952.76 L3366.93 3952.76 L3366.93 47.2441 L633.071 47.2441  Z
  " fill="#ffffff" fill-rule="evenodd" fill-opacity="1"/>
<defs>
  <clipPath id="clip982">
    <rect x="633" y="47" width="2735" height="3907"/>
  </clipPath>
</defs>
<polyline clip-path="url(#clip982)" style="stroke:#000000; stroke-linecap:butt; stroke-linejoin:round; stroke-width:4; stroke-opacity:1; fill:none" points="
  1581.55,3394.83 1617.73,2459.86 
  "/>
<polyline clip-path="url(#clip982)" style="stroke:#000000; stroke-linecap:butt; stroke-linejoin:round; stroke-width:4; stroke-opacity:1; fill:none" points="
  1585.43,2518.66 1617.73,2459.86 1645.39,2520.98 
  "/>
<polyline clip-path="url(#clip982)" style="stroke:#000000; stroke-linecap:butt; stroke-linejoin:round; stroke-width:4; stroke-opacity:1; fill:none" points="
  1617.73,2459.86 1581.55,3394.83 
  "/>
<polyline clip-path="url(#clip982)" style="stroke:#000000; stroke-linecap:butt; stroke-linejoin:round; stroke-width:4; stroke-opacity:1; fill:none" points="
  1581.55,3394.83 1052.14,1864.74 
  "/>
<polyline clip-path="url(#clip982)" style="stroke:#000000; stroke-linecap:butt; stroke-linejoin:round; stroke-width:4; stroke-opacity:1; fill:none" points="
  1043.41,1931.25 1052.14,1864.74 1100.11,1911.64 
  "/>
<polyline clip-path="url(#clip982)" style="stroke:#000000; stroke-linecap:butt; stroke-linejoin:round; stroke-width:4; stroke-opacity:1; fill:none" points="
  1052.14,1864.74 1581.55,3394.83 
  "/>
<polyline clip-path="url(#clip982)" style="stroke:#000000; stroke-linecap:butt; stroke-linejoin:round; stroke-width:4; stroke-opacity:1; fill:none" points="
  1023.62,2836.9 1052.36,1864.74 
  "/>
<polyline clip-path="url(#clip982)" style="stroke:#000000; stroke-linecap:butt; stroke-linejoin:round; stroke-width:4; stroke-opacity:1; fill:none" points="
  1020.6,1923.83 1052.36,1864.74 1080.58,1925.6 
  "/>
<polyline clip-path="url(#clip982)" style="stroke:#000000; stroke-linecap:butt; stroke-linejoin:round; stroke-width:4; stroke-opacity:1; fill:none" points="
  1052.36,1864.74 1023.62,2836.9 
  "/>
<polyline clip-path="url(#clip982)" style="stroke:#000000; stroke-linecap:butt; stroke-linejoin:round; stroke-width:4; stroke-opacity:1; fill:none" points="
  1581.55,2278.97 1610.29,1306.81 
  "/>
<polyline clip-path="url(#clip982)" style="stroke:#000000; stroke-linecap:butt; stroke-linejoin:round; stroke-width:4; stroke-opacity:1; fill:none" points="
  1578.53,1365.9 1610.29,1306.81 1638.51,1367.67 
  "/>
<polyline clip-path="url(#clip982)" style="stroke:#000000; stroke-linecap:butt; stroke-linejoin:round; stroke-width:4; stroke-opacity:1; fill:none" points="
  1610.29,1306.81 1581.55,2278.97 
  "/>
<polyline clip-path="url(#clip982)" style="stroke:#000000; stroke-linecap:butt; stroke-linejoin:round; stroke-width:4; stroke-opacity:1; fill:none" points="
  1023.62,1721.03 1501.21,1306.81 
  "/>
<polyline clip-path="url(#clip982)" style="stroke:#000000; stroke-linecap:butt; stroke-linejoin:round; stroke-width:4; stroke-opacity:1; fill:none" points="
  1436.23,1323.46 1501.21,1306.81 1475.54,1368.79 
  "/>
<polyline clip-path="url(#clip982)" style="stroke:#000000; stroke-linecap:butt; stroke-linejoin:round; stroke-width:4; stroke-opacity:1; fill:none" points="
  1501.21,1306.81 1023.62,1721.03 
  "/>
<polyline clip-path="url(#clip982)" style="stroke:#000000; stroke-linecap:butt; stroke-linejoin:round; stroke-width:4; stroke-opacity:1; fill:none" points="
  1023.62,1721.03 2246.6,1748.53 
  "/>
<polyline clip-path="url(#clip982)" style="stroke:#000000; stroke-linecap:butt; stroke-linejoin:round; stroke-width:4; stroke-opacity:1; fill:none" points="
  2187.29,1717.19 2246.6,1748.53 2185.94,1777.17 
  "/>
<polyline clip-path="url(#clip982)" style="stroke:#000000; stroke-linecap:butt; stroke-linejoin:round; stroke-width:4; stroke-opacity:1; fill:none" points="
  2246.6,1748.53 1023.62,1721.03 
  "/>
<polyline clip-path="url(#clip982)" style="stroke:#000000; stroke-linecap:butt; stroke-linejoin:round; stroke-width:4; stroke-opacity:1; fill:none" points="
  1581.55,1163.1 1595.26,639.448 
  "/>
<polyline clip-path="url(#clip982)" style="stroke:#000000; stroke-linecap:butt; stroke-linejoin:round; stroke-width:4; stroke-opacity:1; fill:none" points="
  1563.7,698.642 1595.26,639.448 1623.68,700.213 
  "/>
<polyline clip-path="url(#clip982)" style="stroke:#000000; stroke-linecap:butt; stroke-linejoin:round; stroke-width:4; stroke-opacity:1; fill:none" points="
  1595.26,639.448 1581.55,1163.1 
  "/>
<polyline clip-path="url(#clip982)" style="stroke:#000000; stroke-linecap:butt; stroke-linejoin:round; stroke-width:4; stroke-opacity:1; fill:none" points="
  1581.55,1163.1 2274.65,1201.45 
  "/>
<polyline clip-path="url(#clip982)" style="stroke:#000000; stroke-linecap:butt; stroke-linejoin:round; stroke-width:4; stroke-opacity:1; fill:none" points="
  2216.4,1168.18 2274.65,1201.45 2213.08,1228.09 
  "/>
<polyline clip-path="url(#clip982)" style="stroke:#000000; stroke-linecap:butt; stroke-linejoin:round; stroke-width:4; stroke-opacity:1; fill:none" points="
  2274.65,1201.45 1581.55,1163.1 
  "/>
<polyline clip-path="url(#clip982)" style="stroke:#000000; stroke-linecap:butt; stroke-linejoin:round; stroke-width:4; stroke-opacity:1; fill:none" points="
  2418.45,1163.1 2850.93,1650.9 
  "/>
<polyline clip-path="url(#clip982)" style="stroke:#000000; stroke-linecap:butt; stroke-linejoin:round; stroke-width:4; stroke-opacity:1; fill:none" points="
  2833.57,1586.11 2850.93,1650.9 2788.68,1625.91 
  "/>
<polyline clip-path="url(#clip982)" style="stroke:#000000; stroke-linecap:butt; stroke-linejoin:round; stroke-width:4; stroke-opacity:1; fill:none" points="
  2850.93,1650.9 2418.45,1163.1 
  "/>
<polyline clip-path="url(#clip982)" style="stroke:#000000; stroke-linecap:butt; stroke-linejoin:round; stroke-width:4; stroke-opacity:1; fill:none" points="
  2418.45,1721.03 2841.57,1774.96 
  "/>
<polyline clip-path="url(#clip982)" style="stroke:#000000; stroke-linecap:butt; stroke-linejoin:round; stroke-width:4; stroke-opacity:1; fill:none" points="
  2785.84,1737.61 2841.57,1774.96 2778.26,1797.13 
  "/>
<polyline clip-path="url(#clip982)" style="stroke:#000000; stroke-linecap:butt; stroke-linejoin:round; stroke-width:4; stroke-opacity:1; fill:none" points="
  2841.57,1774.96 2418.45,1721.03 
  "/>
<path clip-path="url(#clip982)" d="
M1621.13 3394.83 L1601.34 3360.55 L1561.76 3360.55 L1541.98 3394.83 L1561.76 3429.1 L1601.34 3429.1 L1621.13 3394.83 L1621.13 3394.83  Z
  " fill="#add8e6" fill-rule="evenodd" fill-opacity="1"/>
<polyline clip-path="url(#clip982)" style="stroke:#000000; stroke-linecap:butt; stroke-linejoin:round; stroke-width:4; stroke-opacity:1; fill:none" points="
  1621.13,3394.83 1601.34,3360.55 1561.76,3360.55 1541.98,3394.83 1561.76,3429.1 1601.34,3429.1 1621.13,3394.83 
  "/>
<path clip-path="url(#clip982)" d="
M1063.2 2836.9 L1043.41 2802.62 L1003.83 2802.62 L984.046 2836.9 L1003.83 2871.17 L1043.41 2871.17 L1063.2 2836.9 L1063.2 2836.9  Z
  " fill="#add8e6" fill-rule="evenodd" fill-opacity="1"/>
<polyline clip-path="url(#clip982)" style="stroke:#000000; stroke-linecap:butt; stroke-linejoin:round; stroke-width:4; stroke-opacity:1; fill:none" points="
  1063.2,2836.9 1043.41,2802.62 1003.83,2802.62 984.046,2836.9 1003.83,2871.17 1043.41,2871.17 1063.2,2836.9 
  "/>
<path clip-path="url(#clip982)" d="
M1790.43 2278.97 L1685.99 2098.07 L1477.11 2098.07 L1372.67 2278.97 L1477.11 2459.86 L1685.99 2459.86 L1790.43 2278.97 L1790.43 2278.97  Z
  " fill="#add8e6" fill-rule="evenodd" fill-opacity="1"/>
<polyline clip-path="url(#clip982)" style="stroke:#000000; stroke-linecap:butt; stroke-linejoin:round; stroke-width:4; stroke-opacity:1; fill:none" points="
  1790.43,2278.97 1685.99,2098.07 1477.11,2098.07 1372.67,2278.97 1477.11,2459.86 1685.99,2459.86 1790.43,2278.97 
  "/>
<path clip-path="url(#clip982)" d="
M1189.56 1721.03 L1106.59 1577.33 L940.652 1577.33 L857.682 1721.03 L940.652 1864.74 L1106.59 1864.74 L1189.56 1721.03 L1189.56 1721.03  Z
  " fill="#add8e6" fill-rule="evenodd" fill-opacity="1"/>
<polyline clip-path="url(#clip982)" style="stroke:#000000; stroke-linecap:butt; stroke-linejoin:round; stroke-width:4; stroke-opacity:1; fill:none" points="
  1189.56,1721.03 1106.59,1577.33 940.652,1577.33 857.682,1721.03 940.652,1864.74 1106.59,1864.74 1189.56,1721.03 
  "/>
<path clip-path="url(#clip982)" d="
M1747.49 1163.1 L1664.52 1019.4 L1498.58 1019.4 L1415.61 1163.1 L1498.58 1306.81 L1664.52 1306.81 L1747.49 1163.1 L1747.49 1163.1  Z
  " fill="#add8e6" fill-rule="evenodd" fill-opacity="1"/>
<polyline clip-path="url(#clip982)" style="stroke:#000000; stroke-linecap:butt; stroke-linejoin:round; stroke-width:4; stroke-opacity:1; fill:none" points="
  1747.49,1163.1 1664.52,1019.4 1498.58,1019.4 1415.61,1163.1 1498.58,1306.81 1664.52,1306.81 1747.49,1163.1 
  "/>
<path clip-path="url(#clip982)" d="
M1621.13 605.174 L1601.34 570.901 L1561.76 570.901 L1541.98 605.174 L1561.76 639.448 L1601.34 639.448 L1621.13 605.174 L1621.13 605.174  Z
  " fill="#ffa500" fill-rule="evenodd" fill-opacity="1"/>
<polyline clip-path="url(#clip982)" style="stroke:#000000; stroke-linecap:butt; stroke-linejoin:round; stroke-width:4; stroke-opacity:1; fill:none" points="
  1621.13,605.174 1601.34,570.901 1561.76,570.901 1541.98,605.174 1561.76,639.448 1601.34,639.448 1621.13,605.174 
  "/>
<path clip-path="url(#clip982)" d="
M2584.39 1163.1 L2501.42 1019.4 L2335.48 1019.4 L2252.51 1163.1 L2335.48 1306.81 L2501.42 1306.81 L2584.39 1163.1 L2584.39 1163.1  Z
  " fill="#ffa500" fill-rule="evenodd" fill-opacity="1"/>
<polyline clip-path="url(#clip982)" style="stroke:#000000; stroke-linecap:butt; stroke-linejoin:round; stroke-width:4; stroke-opacity:1; fill:none" points="
  2584.39,1163.1 2501.42,1019.4 2335.48,1019.4 2252.51,1163.1 2335.48,1306.81 2501.42,1306.81 2584.39,1163.1 
  "/>
<path clip-path="url(#clip982)" d="
M2606.17 1721.03 L2512.31 1558.47 L2324.59 1558.47 L2230.73 1721.03 L2324.59 1883.6 L2512.31 1883.6 L2606.17 1721.03 L2606.17 1721.03  Z
  " fill="#ffa500" fill-rule="evenodd" fill-opacity="1"/>
<polyline clip-path="url(#clip982)" style="stroke:#000000; stroke-linecap:butt; stroke-linejoin:round; stroke-width:4; stroke-opacity:1; fill:none" points="
  2606.17,1721.03 2512.31,1558.47 2324.59,1558.47 2230.73,1721.03 2324.59,1883.6 2512.31,1883.6 2606.17,1721.03 
  "/>
<path clip-path="url(#clip982)" d="
M3142.32 1721.03 L3059.35 1577.33 L2893.41 1577.33 L2810.44 1721.03 L2893.41 1864.74 L3059.35 1864.74 L3142.32 1721.03 L3142.32 1721.03  Z
  " fill="#add8e6" fill-rule="evenodd" fill-opacity="1"/>
<polyline clip-path="url(#clip982)" style="stroke:#000000; stroke-linecap:butt; stroke-linejoin:round; stroke-width:4; stroke-opacity:1; fill:none" points="
  3142.32,1721.03 3059.35,1577.33 2893.41,1577.33 2810.44,1721.03 2893.41,1864.74 3059.35,1864.74 3142.32,1721.03 
  "/>
<circle clip-path="url(#clip982)" style="fill:#add8e6; stroke:none; fill-opacity:1" cx="1581.55" cy="3394.83" r="2"/>
<circle clip-path="url(#clip982)" style="fill:#add8e6; stroke:none; fill-opacity:1" cx="1023.62" cy="2836.9" r="2"/>
<circle clip-path="url(#clip982)" style="fill:#add8e6; stroke:none; fill-opacity:1" cx="1581.55" cy="2278.97" r="2"/>
<circle clip-path="url(#clip982)" style="fill:#add8e6; stroke:none; fill-opacity:1" cx="1023.62" cy="1721.03" r="2"/>
<circle clip-path="url(#clip982)" style="fill:#add8e6; stroke:none; fill-opacity:1" cx="1581.55" cy="1163.1" r="2"/>
<circle clip-path="url(#clip982)" style="fill:#add8e6; stroke:none; fill-opacity:1" cx="1581.55" cy="605.174" r="2"/>
<circle clip-path="url(#clip982)" style="fill:#add8e6; stroke:none; fill-opacity:1" cx="2418.45" cy="1163.1" r="2"/>
<circle clip-path="url(#clip982)" style="fill:#add8e6; stroke:none; fill-opacity:1" cx="2418.45" cy="1721.03" r="2"/>
<circle clip-path="url(#clip982)" style="fill:#add8e6; stroke:none; fill-opacity:1" cx="2976.38" cy="1721.03" r="2"/>
<path clip-path="url(#clip980)" d="M1592.13 3387.26 L1583.92 3398.3 L1592.55 3409.95 L1588.16 3409.95 L1581.55 3401.03 L1574.95 3409.95 L1570.55 3409.95 L1579.36 3398.08 L1571.3 3387.26 L1575.7 3387.26 L1581.71 3395.34 L1587.73 3387.26 L1592.13 3387.26 Z" fill="#000000" fill-rule="evenodd" fill-opacity="1" /><path clip-path="url(#clip980)" d="M1024.7 2854.12 Q1023.12 2858.17 1021.62 2859.41 Q1020.12 2860.64 1017.61 2860.64 L1014.63 2860.64 L1014.63 2857.52 L1016.82 2857.52 Q1018.36 2857.52 1019.21 2856.8 Q1020.06 2856.07 1021.09 2853.35 L1021.76 2851.65 L1012.58 2829.33 L1016.53 2829.33 L1023.62 2847.07 L1030.71 2829.33 L1034.66 2829.33 L1024.7 2854.12 Z" fill="#000000" fill-rule="evenodd" fill-opacity="1" /><path clip-path="url(#clip980)" d="M1515.18 2296.19 Q1513.6 2300.24 1512.1 2301.48 Q1510.6 2302.71 1508.09 2302.71 L1505.11 2302.71 L1505.11 2299.59 L1507.3 2299.59 Q1508.84 2299.59 1509.69 2298.87 Q1510.54 2298.14 1511.57 2295.42 L1512.24 2293.72 L1503.07 2271.4 L1507.02 2271.4 L1514.1 2289.14 L1521.19 2271.4 L1525.14 2271.4 L1515.18 2296.19 Z" fill="#000000" fill-rule="evenodd" fill-opacity="1" /><path clip-path="url(#clip980)" d="M1529.54 2291.86 L1533.67 2291.86 L1533.67 2279.48 L1529.15 2280.31 L1529.15 2277.96 L1533.81 2277.17 L1536.59 2277.17 L1536.59 2291.86 L1540.74 2291.86 L1540.74 2294.09 L1529.54 2294.09 L1529.54 2291.86 Z" fill="#000000" fill-rule="evenodd" fill-opacity="1" /><path clip-path="url(#clip980)" d="M1560.59 2275.25 L1586.56 2275.25 L1586.56 2278.65 L1560.59 2278.65 L1560.59 2275.25 M1560.59 2283.51 L1586.56 2283.51 L1586.56 2286.96 L1560.59 2286.96 L1560.59 2283.51 Z" fill="#000000" fill-rule="evenodd" fill-opacity="1" /><path clip-path="url(#clip980)" d="M1622.51 2272.07 L1622.51 2275.59 Q1620.93 2274.78 1619.23 2274.38 Q1617.52 2273.97 1615.7 2273.97 Q1612.93 2273.97 1611.53 2274.82 Q1610.15 2275.67 1610.15 2277.38 Q1610.15 2278.67 1611.14 2279.42 Q1612.14 2280.15 1615.13 2280.82 L1616.41 2281.1 Q1620.38 2281.95 1622.04 2283.51 Q1623.72 2285.05 1623.72 2287.83 Q1623.72 2290.99 1621.21 2292.83 Q1618.72 2294.67 1614.34 2294.67 Q1612.52 2294.67 1610.54 2294.31 Q1608.57 2293.96 1606.38 2293.25 L1606.38 2289.41 Q1608.45 2290.48 1610.46 2291.03 Q1612.46 2291.55 1614.43 2291.55 Q1617.06 2291.55 1618.48 2290.66 Q1619.89 2289.75 1619.89 2288.11 Q1619.89 2286.59 1618.86 2285.78 Q1617.85 2284.97 1614.38 2284.22 L1613.09 2283.92 Q1609.63 2283.19 1608.09 2281.69 Q1606.55 2280.17 1606.55 2277.54 Q1606.55 2274.34 1608.81 2272.6 Q1611.08 2270.85 1615.26 2270.85 Q1617.32 2270.85 1619.14 2271.16 Q1620.97 2271.46 1622.51 2272.07 Z" fill="#000000" fill-rule="evenodd" fill-opacity="1" /><path clip-path="url(#clip980)" d="M1629.66 2271.4 L1633.38 2271.4 L1633.38 2294.09 L1629.66 2294.09 L1629.66 2271.4 M1629.66 2262.57 L1633.38 2262.57 L1633.38 2267.29 L1629.66 2267.29 L1629.66 2262.57 Z" fill="#000000" fill-rule="evenodd" fill-opacity="1" /><path clip-path="url(#clip980)" d="M1660.04 2280.39 L1660.04 2294.09 L1656.31 2294.09 L1656.31 2280.51 Q1656.31 2277.29 1655.06 2275.69 Q1653.8 2274.09 1651.29 2274.09 Q1648.27 2274.09 1646.53 2276.02 Q1644.79 2277.94 1644.79 2281.26 L1644.79 2294.09 L1641.04 2294.09 L1641.04 2271.4 L1644.79 2271.4 L1644.79 2274.92 Q1646.12 2272.88 1647.93 2271.87 Q1649.75 2270.85 1652.12 2270.85 Q1656.03 2270.85 1658.03 2273.28 Q1660.04 2275.69 1660.04 2280.39 Z" fill="#000000" fill-rule="evenodd" fill-opacity="1" /><path clip-path="url(#clip980)" d="M975.447 1738.26 Q973.867 1742.31 972.368 1743.55 Q970.869 1744.78 968.358 1744.78 L965.38 1744.78 L965.38 1741.66 L967.568 1741.66 Q969.107 1741.66 969.958 1740.93 Q970.808 1740.21 971.841 1737.49 L972.51 1735.79 L963.334 1713.47 L967.284 1713.47 L974.373 1731.21 L981.462 1713.47 L985.412 1713.47 L975.447 1738.26 Z" fill="#000000" fill-rule="evenodd" fill-opacity="1" /><path clip-path="url(#clip980)" d="M992.076 1733.85 L1000.66 1733.85 L1000.66 1736.15 L988.551 1736.15 L988.551 1733.93 Q989.24 1733.3 990.516 1732.16 Q997.484 1725.99 997.484 1724.08 Q997.484 1722.75 996.43 1721.94 Q995.377 1721.11 993.655 1721.11 Q992.602 1721.11 991.367 1721.47 Q990.131 1721.81 988.673 1722.52 L988.673 1720.03 Q990.232 1719.47 991.569 1719.18 Q992.926 1718.9 994.081 1718.9 Q997.018 1718.9 998.78 1720.23 Q1000.54 1721.57 1000.54 1723.76 Q1000.54 1726.57 993.838 1732.33 Q992.704 1733.3 992.076 1733.85 Z" fill="#000000" fill-rule="evenodd" fill-opacity="1" /><path clip-path="url(#clip980)" d="M1020.86 1717.32 L1046.82 1717.32 L1046.82 1720.72 L1020.86 1720.72 L1020.86 1717.32 M1020.86 1725.58 L1046.82 1725.58 L1046.82 1729.03 L1020.86 1729.03 L1020.86 1725.58 Z" fill="#000000" fill-rule="evenodd" fill-opacity="1" /><path clip-path="url(#clip980)" d="M1083.91 1710.9 L1076.64 1714.83 L1083.91 1718.78 L1082.73 1720.76 L1075.93 1716.65 L1075.93 1724.29 L1073.62 1724.29 L1073.62 1716.65 L1066.81 1720.76 L1065.64 1718.78 L1072.91 1714.83 L1065.64 1710.9 L1066.81 1708.89 L1073.62 1713 L1073.62 1705.37 L1075.93 1705.37 L1075.93 1713 L1082.73 1708.89 L1083.91 1710.9 Z" fill="#000000" fill-rule="evenodd" fill-opacity="1" /><path clip-path="url(#clip980)" d="M1527.95 1180.33 Q1526.37 1184.38 1524.87 1185.62 Q1523.37 1186.85 1520.86 1186.85 L1517.88 1186.85 L1517.88 1183.73 L1520.07 1183.73 Q1521.61 1183.73 1522.46 1183 Q1523.31 1182.28 1524.34 1179.56 L1525.01 1177.86 L1515.84 1155.54 L1519.79 1155.54 L1526.88 1173.28 L1533.96 1155.54 L1537.91 1155.54 L1527.95 1180.33 Z" fill="#000000" fill-rule="evenodd" fill-opacity="1" /><path clip-path="url(#clip980)" d="M1549.76 1169.07 Q1551.63 1169.43 1552.64 1170.55 Q1553.67 1171.64 1553.67 1173.3 Q1553.67 1175.81 1551.75 1177.17 Q1549.82 1178.53 1546.24 1178.53 Q1545.08 1178.53 1543.81 1178.31 Q1542.55 1178.1 1541.13 1177.7 L1541.13 1175.25 Q1542.19 1175.79 1543.38 1176.06 Q1544.6 1176.32 1545.95 1176.32 Q1548.16 1176.32 1549.38 1175.53 Q1550.59 1174.72 1550.59 1173.3 Q1550.59 1171.8 1549.46 1171.03 Q1548.35 1170.26 1546.16 1170.26 L1544.42 1170.26 L1544.42 1168.08 L1546.32 1168.08 Q1548.22 1168.08 1549.2 1167.45 Q1550.19 1166.8 1550.19 1165.59 Q1550.19 1164.41 1549.18 1163.8 Q1548.16 1163.18 1546.24 1163.18 Q1545.43 1163.18 1544.4 1163.36 Q1543.36 1163.54 1541.72 1164.01 L1541.72 1161.68 Q1543.2 1161.33 1544.5 1161.15 Q1545.79 1160.97 1546.91 1160.97 Q1549.82 1160.97 1551.52 1162.16 Q1553.25 1163.36 1553.25 1165.36 Q1553.25 1166.76 1552.34 1167.73 Q1551.42 1168.7 1549.76 1169.07 Z" fill="#000000" fill-rule="evenodd" fill-opacity="1" /><path clip-path="url(#clip980)" d="M1573.36 1159.39 L1599.33 1159.39 L1599.33 1162.79 L1573.36 1162.79 L1573.36 1159.39 M1573.36 1167.65 L1599.33 1167.65 L1599.33 1171.1 L1573.36 1171.1 L1573.36 1167.65 Z" fill="#000000" fill-rule="evenodd" fill-opacity="1" /><path clip-path="url(#clip980)" d="M1635.99 1152.22 L1635.99 1163.5 L1647.27 1163.5 L1647.27 1166.94 L1635.99 1166.94 L1635.99 1178.22 L1632.58 1178.22 L1632.58 1166.94 L1621.3 1166.94 L1621.3 1163.5 L1632.58 1163.5 L1632.58 1152.22 L1635.99 1152.22 Z" fill="#000000" fill-rule="evenodd" fill-opacity="1" /><path clip-path="url(#clip980)" d="M1572.95 597.609 L1590.66 597.609 L1590.66 601.012 L1576.64 617.317 L1590.66 617.317 L1590.66 620.294 L1572.45 620.294 L1572.45 616.892 L1586.46 600.587 L1572.95 600.587 L1572.95 597.609 Z" fill="#000000" fill-rule="evenodd" fill-opacity="1" /><path clip-path="url(#clip980)" d="M2367.48 1178.81 Q2364.62 1178.81 2362.76 1177.09 Q2360.55 1175.04 2360.55 1171.34 Q2360.55 1167.49 2362.49 1164.49 Q2364.5 1161.41 2368.11 1161.41 Q2370.47 1161.41 2372.34 1162.89 Q2373.43 1163.76 2374.18 1165.22 Q2374.44 1163.58 2374.44 1161.72 Q2374.44 1158.98 2373.8 1157.4 Q2372.36 1153.9 2368.55 1153.9 Q2367.11 1153.9 2364.88 1154.79 L2364.88 1151.39 Q2367.23 1150.76 2369.34 1150.76 Q2374.77 1150.76 2377.08 1155.74 Q2378.15 1158.09 2378.15 1161.6 Q2378.15 1163.88 2377.64 1166.54 Q2376.37 1173.18 2373.07 1176.34 Q2370.47 1178.81 2367.48 1178.81 M2364.01 1171.95 Q2364.01 1173.97 2364.9 1175.06 Q2365.86 1176.22 2367.32 1176.22 Q2368.61 1176.22 2369.64 1175.31 Q2371.1 1174.05 2372.18 1172.01 Q2373.07 1170.33 2373.51 1168.52 Q2371.71 1164.17 2368.59 1164.17 Q2365.92 1164.17 2364.74 1167.69 Q2364.01 1169.88 2364.01 1171.95 Z" fill="#000000" fill-rule="evenodd" fill-opacity="1" /><path clip-path="url(#clip980)" d="M2382.36 1155.54 L2400.07 1155.54 L2400.07 1158.94 L2386.05 1175.25 L2400.07 1175.25 L2400.07 1178.22 L2381.86 1178.22 L2381.86 1174.82 L2395.87 1158.52 L2382.36 1158.52 L2382.36 1155.54 Z" fill="#000000" fill-rule="evenodd" fill-opacity="1" /><path clip-path="url(#clip980)" d="M2412.38 1147.98 L2415.82 1147.98 L2405.29 1182.07 L2401.85 1182.07 L2412.38 1147.98 Z" fill="#000000" fill-rule="evenodd" fill-opacity="1" /><path clip-path="url(#clip980)" d="M2424.68 1178.81 Q2421.82 1178.81 2419.96 1177.09 Q2417.75 1175.04 2417.75 1171.34 Q2417.75 1167.49 2419.69 1164.49 Q2421.7 1161.41 2425.3 1161.41 Q2427.67 1161.41 2429.54 1162.89 Q2430.63 1163.76 2431.38 1165.22 Q2431.64 1163.58 2431.64 1161.72 Q2431.64 1158.98 2431 1157.4 Q2429.56 1153.9 2425.75 1153.9 Q2424.31 1153.9 2422.08 1154.79 L2422.08 1151.39 Q2424.43 1150.76 2426.54 1150.76 Q2431.97 1150.76 2434.28 1155.74 Q2435.35 1158.09 2435.35 1161.6 Q2435.35 1163.88 2434.84 1166.54 Q2433.57 1173.18 2430.27 1176.34 Q2427.67 1178.81 2424.68 1178.81 M2421.21 1171.95 Q2421.21 1173.97 2422.1 1175.06 Q2423.06 1176.22 2424.51 1176.22 Q2425.81 1176.22 2426.84 1175.31 Q2428.3 1174.05 2429.38 1172.01 Q2430.27 1170.33 2430.71 1168.52 Q2428.91 1164.17 2425.79 1164.17 Q2423.12 1164.17 2421.94 1167.69 Q2421.21 1169.88 2421.21 1171.95 Z" fill="#000000" fill-rule="evenodd" fill-opacity="1" /><path clip-path="url(#clip980)" d="M2450.62 1180.33 Q2449.04 1184.38 2447.54 1185.62 Q2446.04 1186.85 2443.53 1186.85 L2440.56 1186.85 L2440.56 1183.73 L2442.74 1183.73 Q2444.28 1183.73 2445.13 1183 Q2445.98 1182.28 2447.02 1179.56 L2447.69 1177.86 L2438.51 1155.54 L2442.46 1155.54 L2449.55 1173.28 L2456.64 1155.54 L2460.59 1155.54 L2450.62 1180.33 Z" fill="#000000" fill-rule="evenodd" fill-opacity="1" /><path clip-path="url(#clip980)" d="M2472.44 1169.07 Q2474.3 1169.43 2475.31 1170.55 Q2476.35 1171.64 2476.35 1173.3 Q2476.35 1175.81 2474.42 1177.17 Q2472.5 1178.53 2468.91 1178.53 Q2467.76 1178.53 2466.48 1178.31 Q2465.23 1178.1 2463.81 1177.7 L2463.81 1175.25 Q2464.86 1175.79 2466.06 1176.06 Q2467.27 1176.32 2468.63 1176.32 Q2470.84 1176.32 2472.05 1175.53 Q2473.27 1174.72 2473.27 1173.3 Q2473.27 1171.8 2472.13 1171.03 Q2471.02 1170.26 2468.83 1170.26 L2467.09 1170.26 L2467.09 1168.08 L2468.99 1168.08 Q2470.9 1168.08 2471.87 1167.45 Q2472.86 1166.8 2472.86 1165.59 Q2472.86 1164.41 2471.85 1163.8 Q2470.84 1163.18 2468.91 1163.18 Q2468.1 1163.18 2467.07 1163.36 Q2466.04 1163.54 2464.4 1164.01 L2464.4 1161.68 Q2465.87 1161.33 2467.17 1161.15 Q2468.47 1160.97 2469.58 1160.97 Q2472.5 1160.97 2474.2 1162.16 Q2475.92 1163.36 2475.92 1165.36 Q2475.92 1166.76 2475.01 1167.73 Q2474.1 1168.7 2472.44 1169.07 Z" fill="#000000" fill-rule="evenodd" fill-opacity="1" /><path clip-path="url(#clip980)" d="M2358.03 1736.74 Q2355.17 1736.74 2353.31 1735.02 Q2351.1 1732.97 2351.1 1729.27 Q2351.1 1725.42 2353.05 1722.42 Q2355.05 1719.34 2358.66 1719.34 Q2361.03 1719.34 2362.89 1720.82 Q2363.98 1721.69 2364.73 1723.15 Q2365 1721.51 2365 1719.65 Q2365 1716.91 2364.35 1715.33 Q2362.91 1711.83 2359.1 1711.83 Q2357.66 1711.83 2355.44 1712.72 L2355.44 1709.32 Q2357.79 1708.69 2359.89 1708.69 Q2365.32 1708.69 2367.63 1713.67 Q2368.7 1716.02 2368.7 1719.53 Q2368.7 1721.81 2368.2 1724.47 Q2366.92 1731.11 2363.62 1734.27 Q2361.03 1736.74 2358.03 1736.74 M2354.56 1729.88 Q2354.56 1731.9 2355.46 1733 Q2356.41 1734.15 2357.87 1734.15 Q2359.16 1734.15 2360.2 1733.24 Q2361.65 1731.98 2362.73 1729.94 Q2363.62 1728.26 2364.06 1726.45 Q2362.26 1722.1 2359.14 1722.1 Q2356.47 1722.1 2355.29 1725.62 Q2354.56 1727.81 2354.56 1729.88 Z" fill="#000000" fill-rule="evenodd" fill-opacity="1" /><path clip-path="url(#clip980)" d="M2383.97 1738.26 Q2382.39 1742.31 2380.9 1743.55 Q2379.4 1744.78 2376.89 1744.78 L2373.91 1744.78 L2373.91 1741.66 L2376.1 1741.66 Q2377.63 1741.66 2378.49 1740.93 Q2379.34 1740.21 2380.37 1737.49 L2381.04 1735.79 L2371.86 1713.47 L2375.81 1713.47 L2382.9 1731.21 L2389.99 1713.47 L2393.94 1713.47 L2383.97 1738.26 Z" fill="#000000" fill-rule="evenodd" fill-opacity="1" /><path clip-path="url(#clip980)" d="M2405.79 1727 Q2407.65 1727.36 2408.66 1728.48 Q2409.7 1729.57 2409.7 1731.23 Q2409.7 1733.74 2407.77 1735.1 Q2405.85 1736.46 2402.26 1736.46 Q2401.11 1736.46 2399.83 1736.24 Q2398.58 1736.03 2397.16 1735.63 L2397.16 1733.18 Q2398.21 1733.72 2399.41 1733.99 Q2400.62 1734.25 2401.98 1734.25 Q2404.19 1734.25 2405.4 1733.46 Q2406.62 1732.65 2406.62 1731.23 Q2406.62 1729.73 2405.48 1728.96 Q2404.37 1728.19 2402.18 1728.19 L2400.44 1728.19 L2400.44 1726.01 L2402.35 1726.01 Q2404.25 1726.01 2405.22 1725.38 Q2406.21 1724.73 2406.21 1723.52 Q2406.21 1722.34 2405.2 1721.73 Q2404.19 1721.11 2402.26 1721.11 Q2401.45 1721.11 2400.42 1721.29 Q2399.39 1721.47 2397.75 1721.94 L2397.75 1719.61 Q2399.23 1719.26 2400.52 1719.08 Q2401.82 1718.9 2402.93 1718.9 Q2405.85 1718.9 2407.55 1720.09 Q2409.27 1721.29 2409.27 1723.29 Q2409.27 1724.69 2408.36 1725.66 Q2407.45 1726.64 2405.79 1727 Z" fill="#000000" fill-rule="evenodd" fill-opacity="1" /><path clip-path="url(#clip980)" d="M2422.34 1705.91 L2425.78 1705.91 L2415.25 1740 L2411.8 1740 L2422.34 1705.91 Z" fill="#000000" fill-rule="evenodd" fill-opacity="1" /><path clip-path="url(#clip980)" d="M2434.63 1736.74 Q2431.78 1736.74 2429.91 1735.02 Q2427.7 1732.97 2427.7 1729.27 Q2427.7 1725.42 2429.65 1722.42 Q2431.65 1719.34 2435.26 1719.34 Q2437.63 1719.34 2439.49 1720.82 Q2440.59 1721.69 2441.34 1723.15 Q2441.6 1721.51 2441.6 1719.65 Q2441.6 1716.91 2440.95 1715.33 Q2439.51 1711.83 2435.7 1711.83 Q2434.27 1711.83 2432.04 1712.72 L2432.04 1709.32 Q2434.39 1708.69 2436.49 1708.69 Q2441.92 1708.69 2444.23 1713.67 Q2445.31 1716.02 2445.31 1719.53 Q2445.31 1721.81 2444.8 1724.47 Q2443.52 1731.11 2440.22 1734.27 Q2437.63 1736.74 2434.63 1736.74 M2431.17 1729.88 Q2431.17 1731.9 2432.06 1733 Q2433.01 1734.15 2434.47 1734.15 Q2435.77 1734.15 2436.8 1733.24 Q2438.26 1731.98 2439.33 1729.94 Q2440.22 1728.26 2440.67 1726.45 Q2438.86 1722.1 2435.75 1722.1 Q2433.07 1722.1 2431.9 1725.62 Q2431.17 1727.81 2431.17 1729.88 Z" fill="#000000" fill-rule="evenodd" fill-opacity="1" /><path clip-path="url(#clip980)" d="M2460.58 1738.26 Q2459 1742.31 2457.5 1743.55 Q2456 1744.78 2453.49 1744.78 L2450.51 1744.78 L2450.51 1741.66 L2452.7 1741.66 Q2454.24 1741.66 2455.09 1740.93 Q2455.94 1740.21 2456.97 1737.49 L2457.64 1735.79 L2448.46 1713.47 L2452.41 1713.47 L2459.5 1731.21 L2466.59 1713.47 L2470.54 1713.47 L2460.58 1738.26 Z" fill="#000000" fill-rule="evenodd" fill-opacity="1" /><path clip-path="url(#clip980)" d="M2477.21 1733.85 L2485.79 1733.85 L2485.79 1736.15 L2473.68 1736.15 L2473.68 1733.93 Q2474.37 1733.3 2475.65 1732.16 Q2482.61 1725.99 2482.61 1724.08 Q2482.61 1722.75 2481.56 1721.94 Q2480.51 1721.11 2478.79 1721.11 Q2477.73 1721.11 2476.5 1721.47 Q2475.26 1721.81 2473.8 1722.52 L2473.8 1720.03 Q2475.36 1719.47 2476.7 1719.18 Q2478.06 1718.9 2479.21 1718.9 Q2482.15 1718.9 2483.91 1720.23 Q2485.67 1721.57 2485.67 1723.76 Q2485.67 1726.57 2478.97 1732.33 Q2477.83 1733.3 2477.21 1733.85 Z" fill="#000000" fill-rule="evenodd" fill-opacity="1" /><path clip-path="url(#clip980)" d="M2925.66 1736.74 Q2922.8 1736.74 2920.94 1735.02 Q2918.73 1732.97 2918.73 1729.27 Q2918.73 1725.42 2920.68 1722.42 Q2922.68 1719.34 2926.29 1719.34 Q2928.66 1719.34 2930.52 1720.82 Q2931.62 1721.69 2932.36 1723.15 Q2932.63 1721.51 2932.63 1719.65 Q2932.63 1716.91 2931.98 1715.33 Q2930.54 1711.83 2926.73 1711.83 Q2925.3 1711.83 2923.07 1712.72 L2923.07 1709.32 Q2925.42 1708.69 2927.52 1708.69 Q2932.95 1708.69 2935.26 1713.67 Q2936.33 1716.02 2936.33 1719.53 Q2936.33 1721.81 2935.83 1724.47 Q2934.55 1731.11 2931.25 1734.27 Q2928.66 1736.74 2925.66 1736.74 M2922.2 1729.88 Q2922.2 1731.9 2923.09 1733 Q2924.04 1734.15 2925.5 1734.15 Q2926.79 1734.15 2927.83 1733.24 Q2929.29 1731.98 2930.36 1729.94 Q2931.25 1728.26 2931.7 1726.45 Q2929.89 1722.1 2926.77 1722.1 Q2924.1 1722.1 2922.93 1725.62 Q2922.2 1727.81 2922.2 1729.88 Z" fill="#000000" fill-rule="evenodd" fill-opacity="1" /><path clip-path="url(#clip980)" d="M2940.55 1713.47 L2958.25 1713.47 L2958.25 1716.87 L2944.23 1733.18 L2958.25 1733.18 L2958.25 1736.15 L2940.04 1736.15 L2940.04 1732.75 L2954.06 1716.45 L2940.55 1716.45 L2940.55 1713.47 Z" fill="#000000" fill-rule="evenodd" fill-opacity="1" /><path clip-path="url(#clip980)" d="M2970.56 1705.91 L2974.01 1705.91 L2963.48 1740 L2960.03 1740 L2970.56 1705.91 Z" fill="#000000" fill-rule="evenodd" fill-opacity="1" /><path clip-path="url(#clip980)" d="M2982.86 1736.74 Q2980 1736.74 2978.14 1735.02 Q2975.93 1732.97 2975.93 1729.27 Q2975.93 1725.42 2977.88 1722.42 Q2979.88 1719.34 2983.49 1719.34 Q2985.86 1719.34 2987.72 1720.82 Q2988.81 1721.69 2989.56 1723.15 Q2989.83 1721.51 2989.83 1719.65 Q2989.83 1716.91 2989.18 1715.33 Q2987.74 1711.83 2983.93 1711.83 Q2982.49 1711.83 2980.27 1712.72 L2980.27 1709.32 Q2982.62 1708.69 2984.72 1708.69 Q2990.15 1708.69 2992.46 1713.67 Q2993.53 1716.02 2993.53 1719.53 Q2993.53 1721.81 2993.03 1724.47 Q2991.75 1731.11 2988.45 1734.27 Q2985.86 1736.74 2982.86 1736.74 M2979.4 1729.88 Q2979.4 1731.9 2980.29 1733 Q2981.24 1734.15 2982.7 1734.15 Q2983.99 1734.15 2985.03 1733.24 Q2986.48 1731.98 2987.56 1729.94 Q2988.45 1728.26 2988.9 1726.45 Q2987.09 1722.1 2983.97 1722.1 Q2981.3 1722.1 2980.13 1725.62 Q2979.4 1727.81 2979.4 1729.88 Z" fill="#000000" fill-rule="evenodd" fill-opacity="1" /><path clip-path="url(#clip980)" d="M3008.81 1738.26 Q3007.23 1742.31 3005.73 1743.55 Q3004.23 1744.78 3001.72 1744.78 L2998.74 1744.78 L2998.74 1741.66 L3000.93 1741.66 Q3002.47 1741.66 3003.32 1740.93 Q3004.17 1740.21 3005.2 1737.49 L3005.87 1735.79 L2996.69 1713.47 L3000.64 1713.47 L3007.73 1731.21 L3014.82 1713.47 L3018.77 1713.47 L3008.81 1738.26 Z" fill="#000000" fill-rule="evenodd" fill-opacity="1" /><path clip-path="url(#clip980)" d="M3025.43 1733.85 L3034.02 1733.85 L3034.02 1736.15 L3021.91 1736.15 L3021.91 1733.93 Q3022.6 1733.3 3023.87 1732.16 Q3030.84 1725.99 3030.84 1724.08 Q3030.84 1722.75 3029.79 1721.94 Q3028.74 1721.11 3027.01 1721.11 Q3025.96 1721.11 3024.73 1721.47 Q3023.49 1721.81 3022.03 1722.52 L3022.03 1720.03 Q3023.59 1719.47 3024.93 1719.18 Q3026.29 1718.9 3027.44 1718.9 Q3030.38 1718.9 3032.14 1720.23 Q3033.9 1721.57 3033.9 1723.76 Q3033.9 1726.57 3027.2 1732.33 Q3026.06 1733.3 3025.43 1733.85 Z" fill="#000000" fill-rule="evenodd" fill-opacity="1" /></svg>
