<?xml version="1.0" encoding="utf-8"?>
<svg xmlns="http://www.w3.org/2000/svg" xmlns:xlink="http://www.w3.org/1999/xlink" width="1000" height="1000" viewBox="0 0 4000 4000">
<defs>
  <clipPath id="clip040">
    <rect x="0" y="0" width="4000" height="4000"/>
  </clipPath>
</defs>
<path clip-path="url(#clip040)" d="
M0 4000 L4000 4000 L4000 0 L0 0  Z
  " fill="#ffffff" fill-rule="evenodd" fill-opacity="1"/>
<defs>
  <clipPath id="clip041">
    <rect x="800" y="400" width="2801" height="2801"/>
  </clipPath>
</defs>
<path clip-path="url(#clip040)" d="
M242.52 3952.76 L3757.48 3952.76 L3757.48 47.2441 L242.52 47.2441  Z
  " fill="#ffffff" fill-rule="evenodd" fill-opacity="1"/>
<defs>
  <clipPath id="clip042">
    <rect x="242" y="47" width="3516" height="3907"/>
  </clipPath>
</defs>
<polyline clip-path="url(#clip042)" style="stroke:#000000; stroke-linecap:butt; stroke-linejoin:round; stroke-width:4; stroke-opacity:1; fill:none" points="
  1302.59,3394.83 1332.91,2430.57 
  "/>
<polyline clip-path="url(#clip042)" style="stroke:#000000; stroke-linecap:butt; stroke-linejoin:round; stroke-width:4; stroke-opacity:1; fill:none" points="
  1301.04,2489.6 1332.91,2430.57 1361.01,2491.48 
  "/>
<polyline clip-path="url(#clip042)" style="stroke:#000000; stroke-linecap:butt; stroke-linejoin:round; stroke-width:4; stroke-opacity:1; fill:none" points="
  1332.91,2430.57 1302.59,3394.83 
  "/>
<polyline clip-path="url(#clip042)" style="stroke:#000000; stroke-linecap:butt; stroke-linejoin:round; stroke-width:4; stroke-opacity:1; fill:none" points="
  1302.59,3394.83 768.56,1841.47 
  "/>
<polyline clip-path="url(#clip042)" style="stroke:#000000; stroke-linecap:butt; stroke-linejoin:round; stroke-width:4; stroke-opacity:1; fill:none" points="
  759.697,1907.96 768.56,1841.47 816.437,1888.46 
  "/>
<polyline clip-path="url(#clip042)" style="stroke:#000000; stroke-linecap:butt; stroke-linejoin:round; stroke-width:4; stroke-opacity:1; fill:none" points="
  768.56,1841.47 1302.59,3394.83 
  "/>
<polyline clip-path="url(#clip042)" style="stroke:#000000; stroke-linecap:butt; stroke-linejoin:round; stroke-width:4; stroke-opacity:1; fill:none" points="
  1302.59,3394.83 2983.81,3425.86 
  "/>
<polyline clip-path="url(#clip042)" style="stroke:#000000; stroke-linecap:butt; stroke-linejoin:round; stroke-width:4; stroke-opacity:1; fill:none" points="
  2924.37,3394.76 2983.81,3425.86 2923.26,3454.75 
  "/>
<polyline clip-path="url(#clip042)" style="stroke:#000000; stroke-linecap:butt; stroke-linejoin:round; stroke-width:4; stroke-opacity:1; fill:none" points="
  2983.81,3425.86 1302.59,3394.83 
  "/>
<polyline clip-path="url(#clip042)" style="stroke:#000000; stroke-linecap:butt; stroke-linejoin:round; stroke-width:4; stroke-opacity:1; fill:none" points="
  744.657,2836.9 768.744,1841.47 
  "/>
<polyline clip-path="url(#clip042)" style="stroke:#000000; stroke-linecap:butt; stroke-linejoin:round; stroke-width:4; stroke-opacity:1; fill:none" points="
  737.301,1900.73 768.744,1841.47 797.284,1902.18 
  "/>
<polyline clip-path="url(#clip042)" style="stroke:#000000; stroke-linecap:butt; stroke-linejoin:round; stroke-width:4; stroke-opacity:1; fill:none" points="
  768.744,1841.47 744.657,2836.9 
  "/>
<polyline clip-path="url(#clip042)" style="stroke:#000000; stroke-linecap:butt; stroke-linejoin:round; stroke-width:4; stroke-opacity:1; fill:none" points="
  744.657,2836.9 3123.06,2848.65 
  "/>
<polyline clip-path="url(#clip042)" style="stroke:#000000; stroke-linecap:butt; stroke-linejoin:round; stroke-width:4; stroke-opacity:1; fill:none" points="
  3063.21,2818.36 3123.06,2848.65 3062.92,2878.36 
  "/>
<polyline clip-path="url(#clip042)" style="stroke:#000000; stroke-linecap:butt; stroke-linejoin:round; stroke-width:4; stroke-opacity:1; fill:none" points="
  3123.06,2848.65 744.657,2836.9 
  "/>
<polyline clip-path="url(#clip042)" style="stroke:#000000; stroke-linecap:butt; stroke-linejoin:round; stroke-width:4; stroke-opacity:1; fill:none" points="
  1302.59,2278.97 1326.67,1283.54 
  "/>
<polyline clip-path="url(#clip042)" style="stroke:#000000; stroke-linecap:butt; stroke-linejoin:round; stroke-width:4; stroke-opacity:1; fill:none" points="
  1295.23,1342.8 1326.67,1283.54 1355.21,1344.25 
  "/>
<polyline clip-path="url(#clip042)" style="stroke:#000000; stroke-linecap:butt; stroke-linejoin:round; stroke-width:4; stroke-opacity:1; fill:none" points="
  1326.67,1283.54 1302.59,2278.97 
  "/>
<polyline clip-path="url(#clip042)" style="stroke:#000000; stroke-linecap:butt; stroke-linejoin:round; stroke-width:4; stroke-opacity:1; fill:none" points="
  1302.59,2278.97 2003.15,2315.32 
  "/>
<polyline clip-path="url(#clip042)" style="stroke:#000000; stroke-linecap:butt; stroke-linejoin:round; stroke-width:4; stroke-opacity:1; fill:none" points="
  1944.79,2282.25 2003.15,2315.32 1941.68,2342.17 
  "/>
<polyline clip-path="url(#clip042)" style="stroke:#000000; stroke-linecap:butt; stroke-linejoin:round; stroke-width:4; stroke-opacity:1; fill:none" points="
  2003.15,2315.32 1302.59,2278.97 
  "/>
<polyline clip-path="url(#clip042)" style="stroke:#000000; stroke-linecap:butt; stroke-linejoin:round; stroke-width:4; stroke-opacity:1; fill:none" points="
  744.657,1721.03 1235.26,1283.54 
  "/>
<polyline clip-path="url(#clip042)" style="stroke:#000000; stroke-linecap:butt; stroke-linejoin:round; stroke-width:4; stroke-opacity:1; fill:none" points="
  1170.51,1301.08 1235.26,1283.54 1210.44,1345.86 
  "/>
<polyline clip-path="url(#clip042)" style="stroke:#000000; stroke-linecap:butt; stroke-linejoin:round; stroke-width:4; stroke-opacity:1; fill:none" points="
  1235.26,1283.54 744.657,1721.03 
  "/>
<polyline clip-path="url(#clip042)" style="stroke:#000000; stroke-linecap:butt; stroke-linejoin:round; stroke-width:4; stroke-opacity:1; fill:none" points="
  744.657,1721.03 1995.47,1744.08 
  "/>
<polyline clip-path="url(#clip042)" style="stroke:#000000; stroke-linecap:butt; stroke-linejoin:round; stroke-width:4; stroke-opacity:1; fill:none" points="
  1936.03,1712.98 1995.47,1744.08 1934.92,1772.97 
  "/>
<polyline clip-path="url(#clip042)" style="stroke:#000000; stroke-linecap:butt; stroke-linejoin:round; stroke-width:4; stroke-opacity:1; fill:none" points="
  1995.47,1744.08 744.657,1721.03 
  "/>
<polyline clip-path="url(#clip042)" style="stroke:#000000; stroke-linecap:butt; stroke-linejoin:round; stroke-width:4; stroke-opacity:1; fill:none" points="
  1302.59,1163.1 1314.08,633.898 
  "/>
<polyline clip-path="url(#clip042)" style="stroke:#000000; stroke-linecap:butt; stroke-linejoin:round; stroke-width:4; stroke-opacity:1; fill:none" points="
  1282.78,693.232 1314.08,633.898 1342.77,694.535 
  "/>
<polyline clip-path="url(#clip042)" style="stroke:#000000; stroke-linecap:butt; stroke-linejoin:round; stroke-width:4; stroke-opacity:1; fill:none" points="
  1314.08,633.898 1302.59,1163.1 
  "/>
<polyline clip-path="url(#clip042)" style="stroke:#000000; stroke-linecap:butt; stroke-linejoin:round; stroke-width:4; stroke-opacity:1; fill:none" points="
  1302.59,1163.1 2018.97,1195.24 
  "/>
<polyline clip-path="url(#clip042)" style="stroke:#000000; stroke-linecap:butt; stroke-linejoin:round; stroke-width:4; stroke-opacity:1; fill:none" points="
  1960.37,1162.58 2018.97,1195.24 1957.69,1222.52 
  "/>
<polyline clip-path="url(#clip042)" style="stroke:#000000; stroke-linecap:butt; stroke-linejoin:round; stroke-width:4; stroke-opacity:1; fill:none" points="
  2018.97,1195.24 1302.59,1163.1 
  "/>
<polyline clip-path="url(#clip042)" style="stroke:#000000; stroke-linecap:butt; stroke-linejoin:round; stroke-width:4; stroke-opacity:1; fill:none" points="
  2139.48,1163.1 2592.28,1662.26 
  "/>
<polyline clip-path="url(#clip042)" style="stroke:#000000; stroke-linecap:butt; stroke-linejoin:round; stroke-width:4; stroke-opacity:1; fill:none" points="
  2574.19,1597.66 2592.28,1662.26 2529.75,1637.98 
  "/>
<polyline clip-path="url(#clip042)" style="stroke:#000000; stroke-linecap:butt; stroke-linejoin:round; stroke-width:4; stroke-opacity:1; fill:none" points="
  2592.28,1662.26 2139.48,1163.1 
  "/>
<polyline clip-path="url(#clip042)" style="stroke:#000000; stroke-linecap:butt; stroke-linejoin:round; stroke-width:4; stroke-opacity:1; fill:none" points="
  2139.48,1163.1 2619.04,2173.84 
  "/>
<polyline clip-path="url(#clip042)" style="stroke:#000000; stroke-linecap:butt; stroke-linejoin:round; stroke-width:4; stroke-opacity:1; fill:none" points="
  2620.42,2106.78 2619.04,2173.84 2566.21,2132.5 
  "/>
<polyline clip-path="url(#clip042)" style="stroke:#000000; stroke-linecap:butt; stroke-linejoin:round; stroke-width:4; stroke-opacity:1; fill:none" points="
  2619.04,2173.84 2139.48,1163.1 
  "/>
<polyline clip-path="url(#clip042)" style="stroke:#000000; stroke-linecap:butt; stroke-linejoin:round; stroke-width:4; stroke-opacity:1; fill:none" points="
  2139.48,1721.03 2584.44,1766.23 
  "/>
<polyline clip-path="url(#clip042)" style="stroke:#000000; stroke-linecap:butt; stroke-linejoin:round; stroke-width:4; stroke-opacity:1; fill:none" points="
  2527.77,1730.32 2584.44,1766.23 2521.71,1790.01 
  "/>
<polyline clip-path="url(#clip042)" style="stroke:#000000; stroke-linecap:butt; stroke-linejoin:round; stroke-width:4; stroke-opacity:1; fill:none" points="
  2584.44,1766.23 2139.48,1721.03 
  "/>
<polyline clip-path="url(#clip042)" style="stroke:#000000; stroke-linecap:butt; stroke-linejoin:round; stroke-width:4; stroke-opacity:1; fill:none" points="
  2697.41,1721.03 3176.97,2731.77 
  "/>
<polyline clip-path="url(#clip042)" style="stroke:#000000; stroke-linecap:butt; stroke-linejoin:round; stroke-width:4; stroke-opacity:1; fill:none" points="
  3178.35,2664.71 3176.97,2731.77 3124.14,2690.43 
  "/>
<polyline clip-path="url(#clip042)" style="stroke:#000000; stroke-linecap:butt; stroke-linejoin:round; stroke-width:4; stroke-opacity:1; fill:none" points="
  3176.97,2731.77 2697.41,1721.03 
  "/>
<polyline clip-path="url(#clip042)" style="stroke:#000000; stroke-linecap:butt; stroke-linejoin:round; stroke-width:4; stroke-opacity:1; fill:none" points="
  2139.48,2278.97 2584.44,2324.16 
  "/>
<polyline clip-path="url(#clip042)" style="stroke:#000000; stroke-linecap:butt; stroke-linejoin:round; stroke-width:4; stroke-opacity:1; fill:none" points="
  2527.77,2288.25 2584.44,2324.16 2521.71,2347.94 
  "/>
<polyline clip-path="url(#clip042)" style="stroke:#000000; stroke-linecap:butt; stroke-linejoin:round; stroke-width:4; stroke-opacity:1; fill:none" points="
  2584.44,2324.16 2139.48,2278.97 
  "/>
<path clip-path="url(#clip042)" d="
M1335.75 3394.83 L1319.17 3366.1 L1286 3366.1 L1269.42 3394.83 L1286 3423.55 L1319.17 3423.55 L1335.75 3394.83 L1335.75 3394.83  Z
  " fill="#add8e6" fill-rule="evenodd" fill-opacity="1"/>
<polyline clip-path="url(#clip042)" style="stroke:#000000; stroke-linecap:butt; stroke-linejoin:round; stroke-width:4; stroke-opacity:1; fill:none" points="
  1335.75,3394.83 1319.17,3366.1 1286,3366.1 1269.42,3394.83 1286,3423.55 1319.17,3423.55 1335.75,3394.83 
  "/>
<path clip-path="url(#clip042)" d="
M777.824 2836.9 L761.24 2808.17 L728.074 2808.17 L711.49 2836.9 L728.074 2865.62 L761.24 2865.62 L777.824 2836.9 L777.824 2836.9  Z
  " fill="#add8e6" fill-rule="evenodd" fill-opacity="1"/>
<polyline clip-path="url(#clip042)" style="stroke:#000000; stroke-linecap:butt; stroke-linejoin:round; stroke-width:4; stroke-opacity:1; fill:none" points="
  777.824,2836.9 761.24,2808.17 728.074,2808.17 711.49,2836.9 728.074,2865.62 761.24,2865.62 777.824,2836.9 
  "/>
<path clip-path="url(#clip042)" d="
M1477.64 2278.97 L1390.11 2127.36 L1215.06 2127.36 L1127.53 2278.97 L1215.06 2430.57 L1390.11 2430.57 L1477.64 2278.97 L1477.64 2278.97  Z
  " fill="#add8e6" fill-rule="evenodd" fill-opacity="1"/>
<polyline clip-path="url(#clip042)" style="stroke:#000000; stroke-linecap:butt; stroke-linejoin:round; stroke-width:4; stroke-opacity:1; fill:none" points="
  1477.64,2278.97 1390.11,2127.36 1215.06,2127.36 1127.53,2278.97 1215.06,2430.57 1390.11,2430.57 1477.64,2278.97 
  "/>
<path clip-path="url(#clip042)" d="
M883.724 1721.03 L814.191 1600.6 L675.123 1600.6 L605.59 1721.03 L675.123 1841.47 L814.191 1841.47 L883.724 1721.03 L883.724 1721.03  Z
  " fill="#ffa500" fill-rule="evenodd" fill-opacity="1"/>
<polyline clip-path="url(#clip042)" style="stroke:#000000; stroke-linecap:butt; stroke-linejoin:round; stroke-width:4; stroke-opacity:1; fill:none" points="
  883.724,1721.03 814.191,1600.6 675.123,1600.6 605.59,1721.03 675.123,1841.47 814.191,1841.47 883.724,1721.03 
  "/>
<path clip-path="url(#clip042)" d="
M1441.65 1163.1 L1372.12 1042.67 L1233.05 1042.67 L1163.52 1163.1 L1233.05 1283.54 L1372.12 1283.54 L1441.65 1163.1 L1441.65 1163.1  Z
  " fill="#ffa500" fill-rule="evenodd" fill-opacity="1"/>
<polyline clip-path="url(#clip042)" style="stroke:#000000; stroke-linecap:butt; stroke-linejoin:round; stroke-width:4; stroke-opacity:1; fill:none" points="
  1441.65,1163.1 1372.12,1042.67 1233.05,1042.67 1163.52,1163.1 1233.05,1283.54 1372.12,1283.54 1441.65,1163.1 
  "/>
<path clip-path="url(#clip042)" d="
M1335.75 605.174 L1319.17 576.451 L1286 576.451 L1269.42 605.174 L1286 633.898 L1319.17 633.898 L1335.75 605.174 L1335.75 605.174  Z
  " fill="#ffa500" fill-rule="evenodd" fill-opacity="1"/>
<polyline clip-path="url(#clip042)" style="stroke:#000000; stroke-linecap:butt; stroke-linejoin:round; stroke-width:4; stroke-opacity:1; fill:none" points="
  1335.75,605.174 1319.17,576.451 1286,576.451 1269.42,605.174 1286,633.898 1319.17,633.898 1335.75,605.174 
  "/>
<path clip-path="url(#clip042)" d="
M2278.55 1163.1 L2209.02 1042.67 L2069.95 1042.67 L2000.42 1163.1 L2069.95 1283.54 L2209.02 1283.54 L2278.55 1163.1 L2278.55 1163.1  Z
  " fill="#ffa500" fill-rule="evenodd" fill-opacity="1"/>
<polyline clip-path="url(#clip042)" style="stroke:#000000; stroke-linecap:butt; stroke-linejoin:round; stroke-width:4; stroke-opacity:1; fill:none" points="
  2278.55,1163.1 2209.02,1042.67 2069.95,1042.67 2000.42,1163.1 2069.95,1283.54 2209.02,1283.54 2278.55,1163.1 
  "/>
<path clip-path="url(#clip042)" d="
M2296.8 1721.03 L2218.14 1584.79 L2060.82 1584.79 L1982.16 1721.03 L2060.82 1857.28 L2218.14 1857.28 L2296.8 1721.03 L2296.8 1721.03  Z
  " fill="#ffa500" fill-rule="evenodd" fill-opacity="1"/>
<polyline clip-path="url(#clip042)" style="stroke:#000000; stroke-linecap:butt; stroke-linejoin:round; stroke-width:4; stroke-opacity:1; fill:none" points="
  2296.8,1721.03 2218.14,1584.79 2060.82,1584.79 1982.16,1721.03 2060.82,1857.28 2218.14,1857.28 2296.8,1721.03 
  "/>
<path clip-path="url(#clip042)" d="
M2836.48 1721.03 L2766.95 1600.6 L2627.88 1600.6 L2558.35 1721.03 L2627.88 1841.47 L2766.95 1841.47 L2836.48 1721.03 L2836.48 1721.03  Z
  " fill="#ffa500" fill-rule="evenodd" fill-opacity="1"/>
<polyline clip-path="url(#clip042)" style="stroke:#000000; stroke-linecap:butt; stroke-linejoin:round; stroke-width:4; stroke-opacity:1; fill:none" points="
  2836.48,1721.03 2766.95,1600.6 2627.88,1600.6 2558.35,1721.03 2627.88,1841.47 2766.95,1841.47 2836.48,1721.03 
  "/>
<path clip-path="url(#clip042)" d="
M2296.8 2278.97 L2218.14 2142.72 L2060.82 2142.72 L1982.16 2278.97 L2060.82 2415.21 L2218.14 2415.21 L2296.8 2278.97 L2296.8 2278.97  Z
  " fill="#ffa500" fill-rule="evenodd" fill-opacity="1"/>
<polyline clip-path="url(#clip042)" style="stroke:#000000; stroke-linecap:butt; stroke-linejoin:round; stroke-width:4; stroke-opacity:1; fill:none" points="
  2296.8,2278.97 2218.14,2142.72 2060.82,2142.72 1982.16,2278.97 2060.82,2415.21 2218.14,2415.21 2296.8,2278.97 
  "/>
<path clip-path="url(#clip042)" d="
M2836.48 2278.97 L2766.95 2158.53 L2627.88 2158.53 L2558.35 2278.97 L2627.88 2399.4 L2766.95 2399.4 L2836.48 2278.97 L2836.48 2278.97  Z
  " fill="#add8e6" fill-rule="evenodd" fill-opacity="1"/>
<polyline clip-path="url(#clip042)" style="stroke:#000000; stroke-linecap:butt; stroke-linejoin:round; stroke-width:4; stroke-opacity:1; fill:none" points="
  2836.48,2278.97 2766.95,2158.53 2627.88,2158.53 2558.35,2278.97 2627.88,2399.4 2766.95,2399.4 2836.48,2278.97 
  "/>
<path clip-path="url(#clip042)" d="
M3394.41 2836.9 L3324.88 2716.46 L3185.81 2716.46 L3116.28 2836.9 L3185.81 2957.33 L3324.88 2957.33 L3394.41 2836.9 L3394.41 2836.9  Z
  " fill="#add8e6" fill-rule="evenodd" fill-opacity="1"/>
<polyline clip-path="url(#clip042)" style="stroke:#000000; stroke-linecap:butt; stroke-linejoin:round; stroke-width:4; stroke-opacity:1; fill:none" points="
  3394.41,2836.9 3324.88,2716.46 3185.81,2716.46 3116.28,2836.9 3185.81,2957.33 3324.88,2957.33 3394.41,2836.9 3394.41,2836.9 
  "/>
<path clip-path="url(#clip042)" d="
M3544.8 3394.83 L3400.07 3144.15 L3110.62 3144.15 L2965.89 3394.83 L3110.62 3645.5 L3400.07 3645.5 L3544.8 3394.83 L3544.8 3394.83  Z
  " fill="#add8e6" fill-rule="evenodd" fill-opacity="1"/>
<polyline clip-path="url(#clip042)" style="stroke:#000000; stroke-linecap:butt; stroke-linejoin:round; stroke-width:4; stroke-opacity:1; fill:none" points="
  3544.8,3394.83 3400.07,3144.15 3110.62,3144.15 2965.89,3394.83 3110.62,3645.5 3400.07,3645.5 3544.8,3394.83 
  "/>
<circle clip-path="url(#clip042)" style="fill:#add8e6; stroke:none; fill-opacity:1" cx="1302.59" cy="3394.83" r="2"/>
<circle clip-path="url(#clip042)" style="fill:#add8e6; stroke:none; fill-opacity:1" cx="744.657" cy="2836.9" r="2"/>
<circle clip-path="url(#clip042)" style="fill:#add8e6; stroke:none; fill-opacity:1" cx="1302.59" cy="2278.97" r="2"/>
<circle clip-path="url(#clip042)" style="fill:#add8e6; stroke:none; fill-opacity:1" cx="744.657" cy="1721.03" r="2"/>
<circle clip-path="url(#clip042)" style="fill:#add8e6; stroke:none; fill-opacity:1" cx="1302.59" cy="1163.1" r="2"/>
<circle clip-path="url(#clip042)" style="fill:#add8e6; stroke:none; fill-opacity:1" cx="1302.59" cy="605.174" r="2"/>
<circle clip-path="url(#clip042)" style="fill:#add8e6; stroke:none; fill-opacity:1" cx="2139.48" cy="1163.1" r="2"/>
<circle clip-path="url(#clip042)" style="fill:#add8e6; stroke:none; fill-opacity:1" cx="2139.48" cy="1721.03" r="2"/>
<circle clip-path="url(#clip042)" style="fill:#add8e6; stroke:none; fill-opacity:1" cx="2697.41" cy="1721.03" r="2"/>
<circle clip-path="url(#clip042)" style="fill:#add8e6; stroke:none; fill-opacity:1" cx="2139.48" cy="2278.97" r="2"/>
<circle clip-path="url(#clip042)" style="fill:#add8e6; stroke:none; fill-opacity:1" cx="2697.41" cy="2278.97" r="2"/>
<circle clip-path="url(#clip042)" style="fill:#add8e6; stroke:none; fill-opacity:1" cx="3255.34" cy="2836.9" r="2"/>
<circle clip-path="url(#clip042)" style="fill:#add8e6; stroke:none; fill-opacity:1" cx="3255.34" cy="3394.83" r="2"/>
<path clip-path="url(#clip040)" d="M1313.16 3387.26 L1304.96 3398.3 L1313.59 3409.95 L1309.19 3409.95 L1302.59 3401.03 L1295.98 3409.95 L1291.59 3409.95 L1300.4 3398.08 L1292.34 3387.26 L1296.73 3387.26 L1302.75 3395.34 L1308.76 3387.26 L1313.16 3387.26 Z" fill="#000000" fill-rule="evenodd" fill-opacity="1" /><path clip-path="url(#clip040)" d="M745.73 2854.12 Q744.151 2858.17 742.652 2859.41 Q741.153 2860.64 738.641 2860.64 L735.664 2860.64 L735.664 2857.52 L737.851 2857.52 Q739.391 2857.52 740.241 2856.8 Q741.092 2856.07 742.125 2853.35 L742.794 2851.65 L733.618 2829.33 L737.568 2829.33 L744.657 2847.07 L751.746 2829.33 L755.696 2829.33 L745.73 2854.12 Z" fill="#000000" fill-rule="evenodd" fill-opacity="1" /><path clip-path="url(#clip040)" d="M1236.21 2296.19 Q1234.63 2300.24 1233.13 2301.48 Q1231.64 2302.71 1229.12 2302.71 L1226.15 2302.71 L1226.15 2299.59 L1228.33 2299.59 Q1229.87 2299.59 1230.72 2298.87 Q1231.57 2298.14 1232.61 2295.42 L1233.28 2293.72 L1224.1 2271.4 L1228.05 2271.4 L1235.14 2289.14 L1242.23 2271.4 L1246.18 2271.4 L1236.21 2296.19 Z" fill="#000000" fill-rule="evenodd" fill-opacity="1" /><path clip-path="url(#clip040)" d="M1250.57 2291.86 L1254.71 2291.86 L1254.71 2279.48 L1250.19 2280.31 L1250.19 2277.96 L1254.85 2277.17 L1257.62 2277.17 L1257.62 2291.86 L1261.77 2291.86 L1261.77 2294.09 L1250.57 2294.09 L1250.57 2291.86 Z" fill="#000000" fill-rule="evenodd" fill-opacity="1" /><path clip-path="url(#clip040)" d="M1281.62 2275.25 L1307.59 2275.25 L1307.59 2278.65 L1281.62 2278.65 L1281.62 2275.25 M1281.62 2283.51 L1307.59 2283.51 L1307.59 2286.96 L1281.62 2286.96 L1281.62 2283.51 Z" fill="#000000" fill-rule="evenodd" fill-opacity="1" /><path clip-path="url(#clip040)" d="M1343.54 2272.07 L1343.54 2275.59 Q1341.96 2274.78 1340.26 2274.38 Q1338.56 2273.97 1336.74 2273.97 Q1333.96 2273.97 1332.56 2274.82 Q1331.19 2275.67 1331.19 2277.38 Q1331.19 2278.67 1332.18 2279.42 Q1333.17 2280.15 1336.17 2280.82 L1337.45 2281.1 Q1341.42 2281.95 1343.08 2283.51 Q1344.76 2285.05 1344.76 2287.83 Q1344.76 2290.99 1342.25 2292.83 Q1339.75 2294.67 1335.38 2294.67 Q1333.56 2294.67 1331.57 2294.31 Q1329.61 2293.96 1327.42 2293.25 L1327.42 2289.41 Q1329.49 2290.48 1331.49 2291.03 Q1333.5 2291.55 1335.46 2291.55 Q1338.09 2291.55 1339.51 2290.66 Q1340.93 2289.75 1340.93 2288.11 Q1340.93 2286.59 1339.9 2285.78 Q1338.88 2284.97 1335.42 2284.22 L1334.12 2283.92 Q1330.66 2283.19 1329.12 2281.69 Q1327.58 2280.17 1327.58 2277.54 Q1327.58 2274.34 1329.85 2272.6 Q1332.12 2270.85 1336.29 2270.85 Q1338.36 2270.85 1340.18 2271.16 Q1342 2271.46 1343.54 2272.07 Z" fill="#000000" fill-rule="evenodd" fill-opacity="1" /><path clip-path="url(#clip040)" d="M1350.69 2271.4 L1354.42 2271.4 L1354.42 2294.09 L1350.69 2294.09 L1350.69 2271.4 M1350.69 2262.57 L1354.42 2262.57 L1354.42 2267.29 L1350.69 2267.29 L1350.69 2262.57 Z" fill="#000000" fill-rule="evenodd" fill-opacity="1" /><path clip-path="url(#clip040)" d="M1381.07 2280.39 L1381.07 2294.09 L1377.35 2294.09 L1377.35 2280.51 Q1377.35 2277.29 1376.09 2275.69 Q1374.84 2274.09 1372.32 2274.09 Q1369.31 2274.09 1367.56 2276.02 Q1365.82 2277.94 1365.82 2281.26 L1365.82 2294.09 L1362.07 2294.09 L1362.07 2271.4 L1365.82 2271.4 L1365.82 2274.92 Q1367.16 2272.88 1368.96 2271.87 Q1370.78 2270.85 1373.15 2270.85 Q1377.06 2270.85 1379.07 2273.28 Q1381.07 2275.69 1381.07 2280.39 Z" fill="#000000" fill-rule="evenodd" fill-opacity="1" /><path clip-path="url(#clip040)" d="M696.482 1738.26 Q694.902 1742.31 693.403 1743.55 Q691.904 1744.78 689.392 1744.78 L686.415 1744.78 L686.415 1741.66 L688.603 1741.66 Q690.142 1741.66 690.993 1740.93 Q691.843 1740.21 692.876 1737.49 L693.545 1735.79 L684.369 1713.47 L688.319 1713.47 L695.408 1731.21 L702.497 1713.47 L706.447 1713.47 L696.482 1738.26 Z" fill="#000000" fill-rule="evenodd" fill-opacity="1" /><path clip-path="url(#clip040)" d="M713.111 1733.85 L721.698 1733.85 L721.698 1736.15 L709.586 1736.15 L709.586 1733.93 Q710.275 1733.3 711.551 1732.16 Q718.518 1725.99 718.518 1724.08 Q718.518 1722.75 717.465 1721.94 Q716.412 1721.11 714.69 1721.11 Q713.637 1721.11 712.402 1721.47 Q711.166 1721.81 709.708 1722.52 L709.708 1720.03 Q711.267 1719.47 712.604 1719.18 Q713.961 1718.9 715.116 1718.9 Q718.053 1718.9 719.815 1720.23 Q721.577 1721.57 721.577 1723.76 Q721.577 1726.57 714.873 1732.33 Q713.738 1733.3 713.111 1733.85 Z" fill="#000000" fill-rule="evenodd" fill-opacity="1" /><path clip-path="url(#clip040)" d="M741.892 1717.32 L767.858 1717.32 L767.858 1720.72 L741.892 1720.72 L741.892 1717.32 M741.892 1725.58 L767.858 1725.58 L767.858 1729.03 L741.892 1729.03 L741.892 1725.58 Z" fill="#000000" fill-rule="evenodd" fill-opacity="1" /><path clip-path="url(#clip040)" d="M804.944 1710.9 L797.673 1714.83 L804.944 1718.78 L803.77 1720.76 L796.964 1716.65 L796.964 1724.29 L794.655 1724.29 L794.655 1716.65 L787.85 1720.76 L786.675 1718.78 L793.946 1714.83 L786.675 1710.9 L787.85 1708.89 L794.655 1713 L794.655 1705.37 L796.964 1705.37 L796.964 1713 L803.77 1708.89 L804.944 1710.9 Z" fill="#000000" fill-rule="evenodd" fill-opacity="1" /><path clip-path="url(#clip040)" d="M1248.98 1180.33 Q1247.4 1184.38 1245.9 1185.62 Q1244.41 1186.85 1241.89 1186.85 L1238.92 1186.85 L1238.92 1183.73 L1241.1 1183.73 Q1242.64 1183.73 1243.49 1183 Q1244.35 1182.28 1245.38 1179.56 L1246.05 1177.86 L1236.87 1155.54 L1240.82 1155.54 L1247.91 1173.28 L1255 1155.54 L1258.95 1155.54 L1248.98 1180.33 Z" fill="#000000" fill-rule="evenodd" fill-opacity="1" /><path clip-path="url(#clip040)" d="M1270.8 1169.07 Q1272.66 1169.43 1273.67 1170.55 Q1274.71 1171.64 1274.71 1173.3 Q1274.71 1175.81 1272.78 1177.17 Q1270.86 1178.53 1267.27 1178.53 Q1266.12 1178.53 1264.84 1178.31 Q1263.59 1178.1 1262.17 1177.7 L1262.17 1175.25 Q1263.22 1175.79 1264.42 1176.06 Q1265.63 1176.32 1266.99 1176.32 Q1269.2 1176.32 1270.41 1175.53 Q1271.63 1174.72 1271.63 1173.3 Q1271.63 1171.8 1270.49 1171.03 Q1269.38 1170.26 1267.19 1170.26 L1265.45 1170.26 L1265.45 1168.08 L1267.35 1168.08 Q1269.26 1168.08 1270.23 1167.45 Q1271.22 1166.8 1271.22 1165.59 Q1271.22 1164.41 1270.21 1163.8 Q1269.2 1163.18 1267.27 1163.18 Q1266.46 1163.18 1265.43 1163.36 Q1264.4 1163.54 1262.76 1164.01 L1262.76 1161.68 Q1264.24 1161.33 1265.53 1161.15 Q1266.83 1160.97 1267.94 1160.97 Q1270.86 1160.97 1272.56 1162.16 Q1274.28 1163.36 1274.28 1165.36 Q1274.28 1166.76 1273.37 1167.73 Q1272.46 1168.7 1270.8 1169.07 Z" fill="#000000" fill-rule="evenodd" fill-opacity="1" /><path clip-path="url(#clip040)" d="M1294.39 1159.39 L1320.36 1159.39 L1320.36 1162.79 L1294.39 1162.79 L1294.39 1159.39 M1294.39 1167.65 L1320.36 1167.65 L1320.36 1171.1 L1294.39 1171.1 L1294.39 1167.65 Z" fill="#000000" fill-rule="evenodd" fill-opacity="1" /><path clip-path="url(#clip040)" d="M1357.02 1152.22 L1357.02 1163.5 L1368.3 1163.5 L1368.3 1166.94 L1357.02 1166.94 L1357.02 1178.22 L1353.62 1178.22 L1353.62 1166.94 L1342.34 1166.94 L1342.34 1163.5 L1353.62 1163.5 L1353.62 1152.22 L1357.02 1152.22 Z" fill="#000000" fill-rule="evenodd" fill-opacity="1" /><path clip-path="url(#clip040)" d="M1293.99 597.609 L1311.69 597.609 L1311.69 601.012 L1297.68 617.317 L1311.69 617.317 L1311.69 620.294 L1293.48 620.294 L1293.48 616.892 L1307.5 600.587 L1293.99 600.587 L1293.99 597.609 Z" fill="#000000" fill-rule="evenodd" fill-opacity="1" /><path clip-path="url(#clip040)" d="M2088.51 1178.81 Q2085.66 1178.81 2083.79 1177.09 Q2081.59 1175.04 2081.59 1171.34 Q2081.59 1167.49 2083.53 1164.49 Q2085.53 1161.41 2089.14 1161.41 Q2091.51 1161.41 2093.37 1162.89 Q2094.47 1163.76 2095.22 1165.22 Q2095.48 1163.58 2095.48 1161.72 Q2095.48 1158.98 2094.83 1157.4 Q2093.39 1153.9 2089.59 1153.9 Q2088.15 1153.9 2085.92 1154.79 L2085.92 1151.39 Q2088.27 1150.76 2090.38 1150.76 Q2095.8 1150.76 2098.11 1155.74 Q2099.19 1158.09 2099.19 1161.6 Q2099.19 1163.88 2098.68 1166.54 Q2097.4 1173.18 2094.1 1176.34 Q2091.51 1178.81 2088.51 1178.81 M2085.05 1171.95 Q2085.05 1173.97 2085.94 1175.06 Q2086.89 1176.22 2088.35 1176.22 Q2089.65 1176.22 2090.68 1175.31 Q2092.14 1174.05 2093.21 1172.01 Q2094.1 1170.33 2094.55 1168.52 Q2092.75 1164.17 2089.63 1164.17 Q2086.95 1164.17 2085.78 1167.69 Q2085.05 1169.88 2085.05 1171.95 Z" fill="#000000" fill-rule="evenodd" fill-opacity="1" /><path clip-path="url(#clip040)" d="M2103.4 1155.54 L2121.1 1155.54 L2121.1 1158.94 L2107.09 1175.25 L2121.1 1175.25 L2121.1 1178.22 L2102.89 1178.22 L2102.89 1174.82 L2116.91 1158.52 L2103.4 1158.52 L2103.4 1155.54 Z" fill="#000000" fill-rule="evenodd" fill-opacity="1" /><path clip-path="url(#clip040)" d="M2133.42 1147.98 L2136.86 1147.98 L2126.33 1182.07 L2122.88 1182.07 L2133.42 1147.98 Z" fill="#000000" fill-rule="evenodd" fill-opacity="1" /><path clip-path="url(#clip040)" d="M2145.71 1178.81 Q2142.85 1178.81 2140.99 1177.09 Q2138.78 1175.04 2138.78 1171.34 Q2138.78 1167.49 2140.73 1164.49 Q2142.73 1161.41 2146.34 1161.41 Q2148.71 1161.41 2150.57 1162.89 Q2151.67 1163.76 2152.42 1165.22 Q2152.68 1163.58 2152.68 1161.72 Q2152.68 1158.98 2152.03 1157.4 Q2150.59 1153.9 2146.78 1153.9 Q2145.35 1153.9 2143.12 1154.79 L2143.12 1151.39 Q2145.47 1150.76 2147.57 1150.76 Q2153 1150.76 2155.31 1155.74 Q2156.38 1158.09 2156.38 1161.6 Q2156.38 1163.88 2155.88 1166.54 Q2154.6 1173.18 2151.3 1176.34 Q2148.71 1178.81 2145.71 1178.81 M2142.25 1171.95 Q2142.25 1173.97 2143.14 1175.06 Q2144.09 1176.22 2145.55 1176.22 Q2146.85 1176.22 2147.88 1175.31 Q2149.34 1174.05 2150.41 1172.01 Q2151.3 1170.33 2151.75 1168.52 Q2149.94 1164.17 2146.82 1164.17 Q2144.15 1164.17 2142.98 1167.69 Q2142.25 1169.88 2142.25 1171.95 Z" fill="#000000" fill-rule="evenodd" fill-opacity="1" /><path clip-path="url(#clip040)" d="M2171.66 1180.33 Q2170.08 1184.38 2168.58 1185.62 Q2167.08 1186.85 2164.57 1186.85 L2161.59 1186.85 L2161.59 1183.73 L2163.78 1183.73 Q2165.32 1183.73 2166.17 1183 Q2167.02 1182.28 2168.05 1179.56 L2168.72 1177.86 L2159.54 1155.54 L2163.49 1155.54 L2170.58 1173.28 L2177.67 1155.54 L2181.62 1155.54 L2171.66 1180.33 Z" fill="#000000" fill-rule="evenodd" fill-opacity="1" /><path clip-path="url(#clip040)" d="M2193.47 1169.07 Q2195.33 1169.43 2196.35 1170.55 Q2197.38 1171.64 2197.38 1173.3 Q2197.38 1175.81 2195.46 1177.17 Q2193.53 1178.53 2189.95 1178.53 Q2188.79 1178.53 2187.52 1178.31 Q2186.26 1178.1 2184.84 1177.7 L2184.84 1175.25 Q2185.9 1175.79 2187.09 1176.06 Q2188.31 1176.32 2189.66 1176.32 Q2191.87 1176.32 2193.09 1175.53 Q2194.3 1174.72 2194.3 1173.3 Q2194.3 1171.8 2193.17 1171.03 Q2192.05 1170.26 2189.87 1170.26 L2188.12 1170.26 L2188.12 1168.08 L2190.03 1168.08 Q2191.93 1168.08 2192.9 1167.45 Q2193.9 1166.8 2193.9 1165.59 Q2193.9 1164.41 2192.88 1163.8 Q2191.87 1163.18 2189.95 1163.18 Q2189.14 1163.18 2188.1 1163.36 Q2187.07 1163.54 2185.43 1164.01 L2185.43 1161.68 Q2186.91 1161.33 2188.2 1161.15 Q2189.5 1160.97 2190.62 1160.97 Q2193.53 1160.97 2195.23 1162.16 Q2196.95 1163.36 2196.95 1165.36 Q2196.95 1166.76 2196.04 1167.73 Q2195.13 1168.7 2193.47 1169.07 Z" fill="#000000" fill-rule="evenodd" fill-opacity="1" /><path clip-path="url(#clip040)" d="M2079.06 1736.74 Q2076.21 1736.74 2074.34 1735.02 Q2072.14 1732.97 2072.14 1729.27 Q2072.14 1725.42 2074.08 1722.42 Q2076.09 1719.34 2079.69 1719.34 Q2082.06 1719.34 2083.92 1720.82 Q2085.02 1721.69 2085.77 1723.15 Q2086.03 1721.51 2086.03 1719.65 Q2086.03 1716.91 2085.38 1715.33 Q2083.94 1711.83 2080.14 1711.83 Q2078.7 1711.83 2076.47 1712.72 L2076.47 1709.32 Q2078.82 1708.69 2080.93 1708.69 Q2086.35 1708.69 2088.66 1713.67 Q2089.74 1716.02 2089.74 1719.53 Q2089.74 1721.81 2089.23 1724.47 Q2087.96 1731.11 2084.65 1734.27 Q2082.06 1736.74 2079.06 1736.74 M2075.6 1729.88 Q2075.6 1731.9 2076.49 1733 Q2077.44 1734.15 2078.9 1734.15 Q2080.2 1734.15 2081.23 1733.24 Q2082.69 1731.98 2083.76 1729.94 Q2084.65 1728.26 2085.1 1726.45 Q2083.3 1722.1 2080.18 1722.1 Q2077.5 1722.1 2076.33 1725.62 Q2075.6 1727.81 2075.6 1729.88 Z" fill="#000000" fill-rule="evenodd" fill-opacity="1" /><path clip-path="url(#clip040)" d="M2105.01 1738.26 Q2103.43 1742.31 2101.93 1743.55 Q2100.43 1744.78 2097.92 1744.78 L2094.94 1744.78 L2094.94 1741.66 L2097.13 1741.66 Q2098.67 1741.66 2099.52 1740.93 Q2100.37 1740.21 2101.4 1737.49 L2102.07 1735.79 L2092.9 1713.47 L2096.85 1713.47 L2103.94 1731.21 L2111.02 1713.47 L2114.97 1713.47 L2105.01 1738.26 Z" fill="#000000" fill-rule="evenodd" fill-opacity="1" /><path clip-path="url(#clip040)" d="M2126.82 1727 Q2128.69 1727.36 2129.7 1728.48 Q2130.73 1729.57 2130.73 1731.23 Q2130.73 1733.74 2128.81 1735.1 Q2126.88 1736.46 2123.3 1736.46 Q2122.14 1736.46 2120.87 1736.24 Q2119.61 1736.03 2118.2 1735.63 L2118.2 1733.18 Q2119.25 1733.72 2120.44 1733.99 Q2121.66 1734.25 2123.02 1734.25 Q2125.22 1734.25 2126.44 1733.46 Q2127.65 1732.65 2127.65 1731.23 Q2127.65 1729.73 2126.52 1728.96 Q2125.41 1728.19 2123.22 1728.19 L2121.48 1728.19 L2121.48 1726.01 L2123.38 1726.01 Q2125.28 1726.01 2126.26 1725.38 Q2127.25 1724.73 2127.25 1723.52 Q2127.25 1722.34 2126.24 1721.73 Q2125.22 1721.11 2123.3 1721.11 Q2122.49 1721.11 2121.46 1721.29 Q2120.42 1721.47 2118.78 1721.94 L2118.78 1719.61 Q2120.26 1719.26 2121.56 1719.08 Q2122.85 1718.9 2123.97 1718.9 Q2126.88 1718.9 2128.59 1720.09 Q2130.31 1721.29 2130.31 1723.29 Q2130.31 1724.69 2129.4 1725.66 Q2128.48 1726.64 2126.82 1727 Z" fill="#000000" fill-rule="evenodd" fill-opacity="1" /><path clip-path="url(#clip040)" d="M2143.37 1705.91 L2146.81 1705.91 L2136.28 1740 L2132.84 1740 L2143.37 1705.91 Z" fill="#000000" fill-rule="evenodd" fill-opacity="1" /><path clip-path="url(#clip040)" d="M2155.67 1736.74 Q2152.81 1736.74 2150.95 1735.02 Q2148.74 1732.97 2148.74 1729.27 Q2148.74 1725.42 2150.68 1722.42 Q2152.69 1719.34 2156.29 1719.34 Q2158.66 1719.34 2160.53 1720.82 Q2161.62 1721.69 2162.37 1723.15 Q2162.63 1721.51 2162.63 1719.65 Q2162.63 1716.91 2161.99 1715.33 Q2160.55 1711.83 2156.74 1711.83 Q2155.3 1711.83 2153.07 1712.72 L2153.07 1709.32 Q2155.42 1708.69 2157.53 1708.69 Q2162.96 1708.69 2165.27 1713.67 Q2166.34 1716.02 2166.34 1719.53 Q2166.34 1721.81 2165.83 1724.47 Q2164.56 1731.11 2161.26 1734.27 Q2158.66 1736.74 2155.67 1736.74 M2152.2 1729.88 Q2152.2 1731.9 2153.09 1733 Q2154.05 1734.15 2155.5 1734.15 Q2156.8 1734.15 2157.83 1733.24 Q2159.29 1731.98 2160.36 1729.94 Q2161.26 1728.26 2161.7 1726.45 Q2159.9 1722.1 2156.78 1722.1 Q2154.11 1722.1 2152.93 1725.62 Q2152.2 1727.81 2152.2 1729.88 Z" fill="#000000" fill-rule="evenodd" fill-opacity="1" /><path clip-path="url(#clip040)" d="M2181.61 1738.26 Q2180.03 1742.31 2178.53 1743.55 Q2177.03 1744.78 2174.52 1744.78 L2171.55 1744.78 L2171.55 1741.66 L2173.73 1741.66 Q2175.27 1741.66 2176.12 1740.93 Q2176.97 1740.21 2178.01 1737.49 L2178.68 1735.79 L2169.5 1713.47 L2173.45 1713.47 L2180.54 1731.21 L2187.63 1713.47 L2191.58 1713.47 L2181.61 1738.26 Z" fill="#000000" fill-rule="evenodd" fill-opacity="1" /><path clip-path="url(#clip040)" d="M2198.24 1733.85 L2206.83 1733.85 L2206.83 1736.15 L2194.72 1736.15 L2194.72 1733.93 Q2195.41 1733.3 2196.68 1732.16 Q2203.65 1725.99 2203.65 1724.08 Q2203.65 1722.75 2202.6 1721.94 Q2201.54 1721.11 2199.82 1721.11 Q2198.77 1721.11 2197.53 1721.47 Q2196.3 1721.81 2194.84 1722.52 L2194.84 1720.03 Q2196.4 1719.47 2197.73 1719.18 Q2199.09 1718.9 2200.25 1718.9 Q2203.18 1718.9 2204.95 1720.23 Q2206.71 1721.57 2206.71 1723.76 Q2206.71 1726.57 2200 1732.33 Q2198.87 1733.3 2198.24 1733.85 Z" fill="#000000" fill-rule="evenodd" fill-opacity="1" /><path clip-path="url(#clip040)" d="M2646.7 1736.74 Q2643.84 1736.74 2641.98 1735.02 Q2639.77 1732.97 2639.77 1729.27 Q2639.77 1725.42 2641.71 1722.42 Q2643.72 1719.34 2647.32 1719.34 Q2649.69 1719.34 2651.56 1720.82 Q2652.65 1721.69 2653.4 1723.15 Q2653.66 1721.51 2653.66 1719.65 Q2653.66 1716.91 2653.01 1715.33 Q2651.58 1711.83 2647.77 1711.83 Q2646.33 1711.83 2644.1 1712.72 L2644.1 1709.32 Q2646.45 1708.69 2648.56 1708.69 Q2653.99 1708.69 2656.3 1713.67 Q2657.37 1716.02 2657.37 1719.53 Q2657.37 1721.81 2656.86 1724.47 Q2655.59 1731.11 2652.29 1734.27 Q2649.69 1736.74 2646.7 1736.74 M2643.23 1729.88 Q2643.23 1731.9 2644.12 1733 Q2645.08 1734.15 2646.53 1734.15 Q2647.83 1734.15 2648.86 1733.24 Q2650.32 1731.98 2651.39 1729.94 Q2652.29 1728.26 2652.73 1726.45 Q2650.93 1722.1 2647.81 1722.1 Q2645.14 1722.1 2643.96 1725.62 Q2643.23 1727.81 2643.23 1729.88 Z" fill="#000000" fill-rule="evenodd" fill-opacity="1" /><path clip-path="url(#clip040)" d="M2661.58 1713.47 L2679.29 1713.47 L2679.29 1716.87 L2665.27 1733.18 L2679.29 1733.18 L2679.29 1736.15 L2661.08 1736.15 L2661.08 1732.75 L2675.09 1716.45 L2661.58 1716.45 L2661.58 1713.47 Z" fill="#000000" fill-rule="evenodd" fill-opacity="1" /><path clip-path="url(#clip040)" d="M2691.6 1705.91 L2695.04 1705.91 L2684.51 1740 L2681.07 1740 L2691.6 1705.91 Z" fill="#000000" fill-rule="evenodd" fill-opacity="1" /><path clip-path="url(#clip040)" d="M2703.89 1736.74 Q2701.04 1736.74 2699.17 1735.02 Q2696.97 1732.97 2696.97 1729.27 Q2696.97 1725.42 2698.91 1722.42 Q2700.92 1719.34 2704.52 1719.34 Q2706.89 1719.34 2708.76 1720.82 Q2709.85 1721.69 2710.6 1723.15 Q2710.86 1721.51 2710.86 1719.65 Q2710.86 1716.91 2710.21 1715.33 Q2708.78 1711.83 2704.97 1711.83 Q2703.53 1711.83 2701.3 1712.72 L2701.3 1709.32 Q2703.65 1708.69 2705.76 1708.69 Q2711.19 1708.69 2713.49 1713.67 Q2714.57 1716.02 2714.57 1719.53 Q2714.57 1721.81 2714.06 1724.47 Q2712.79 1731.11 2709.48 1734.27 Q2706.89 1736.74 2703.89 1736.74 M2700.43 1729.88 Q2700.43 1731.9 2701.32 1733 Q2702.27 1734.15 2703.73 1734.15 Q2705.03 1734.15 2706.06 1733.24 Q2707.52 1731.98 2708.59 1729.94 Q2709.48 1728.26 2709.93 1726.45 Q2708.13 1722.1 2705.01 1722.1 Q2702.33 1722.1 2701.16 1725.62 Q2700.43 1727.81 2700.43 1729.88 Z" fill="#000000" fill-rule="evenodd" fill-opacity="1" /><path clip-path="url(#clip040)" d="M2729.84 1738.26 Q2728.26 1742.31 2726.76 1743.55 Q2725.26 1744.78 2722.75 1744.78 L2719.77 1744.78 L2719.77 1741.66 L2721.96 1741.66 Q2723.5 1741.66 2724.35 1740.93 Q2725.2 1740.21 2726.24 1737.49 L2726.9 1735.79 L2717.73 1713.47 L2721.68 1713.47 L2728.77 1731.21 L2735.86 1713.47 L2739.81 1713.47 L2729.84 1738.26 Z" fill="#000000" fill-rule="evenodd" fill-opacity="1" /><path clip-path="url(#clip040)" d="M2746.47 1733.85 L2755.06 1733.85 L2755.06 1736.15 L2742.94 1736.15 L2742.94 1733.93 Q2743.63 1733.3 2744.91 1732.16 Q2751.88 1725.99 2751.88 1724.08 Q2751.88 1722.75 2750.82 1721.94 Q2749.77 1721.11 2748.05 1721.11 Q2747 1721.11 2745.76 1721.47 Q2744.52 1721.81 2743.07 1722.52 L2743.07 1720.03 Q2744.63 1719.47 2745.96 1719.18 Q2747.32 1718.9 2748.47 1718.9 Q2751.41 1718.9 2753.17 1720.23 Q2754.94 1721.57 2754.94 1723.76 Q2754.94 1726.57 2748.23 1732.33 Q2747.1 1733.3 2746.47 1733.85 Z" fill="#000000" fill-rule="evenodd" fill-opacity="1" /><path clip-path="url(#clip040)" d="M2078.89 2294.67 Q2076.04 2294.67 2074.17 2292.95 Q2071.96 2290.91 2071.96 2287.2 Q2071.96 2283.35 2073.91 2280.35 Q2075.91 2277.27 2079.52 2277.27 Q2081.89 2277.27 2083.75 2278.75 Q2084.85 2279.62 2085.6 2281.08 Q2085.86 2279.44 2085.86 2277.58 Q2085.86 2274.84 2085.21 2273.26 Q2083.77 2269.76 2079.96 2269.76 Q2078.53 2269.76 2076.3 2270.65 L2076.3 2267.25 Q2078.65 2266.62 2080.75 2266.62 Q2086.18 2266.62 2088.49 2271.6 Q2089.57 2273.95 2089.57 2277.46 Q2089.57 2279.74 2089.06 2282.4 Q2087.78 2289.04 2084.48 2292.2 Q2081.89 2294.67 2078.89 2294.67 M2075.43 2287.81 Q2075.43 2289.83 2076.32 2290.93 Q2077.27 2292.08 2078.73 2292.08 Q2080.03 2292.08 2081.06 2291.17 Q2082.52 2289.91 2083.59 2287.87 Q2084.48 2286.19 2084.93 2284.38 Q2083.12 2280.03 2080.01 2280.03 Q2077.33 2280.03 2076.16 2283.55 Q2075.43 2285.74 2075.43 2287.81 Z" fill="#000000" fill-rule="evenodd" fill-opacity="1" /><path clip-path="url(#clip040)" d="M2104.84 2296.19 Q2103.26 2300.24 2101.76 2301.48 Q2100.26 2302.71 2097.75 2302.71 L2094.77 2302.71 L2094.77 2299.59 L2096.96 2299.59 Q2098.5 2299.59 2099.35 2298.87 Q2100.2 2298.14 2101.23 2295.42 L2101.9 2293.72 L2092.73 2271.4 L2096.67 2271.4 L2103.76 2289.14 L2110.85 2271.4 L2114.8 2271.4 L2104.84 2296.19 Z" fill="#000000" fill-rule="evenodd" fill-opacity="1" /><path clip-path="url(#clip040)" d="M2126.65 2284.93 Q2128.51 2285.29 2129.53 2286.41 Q2130.56 2287.5 2130.56 2289.16 Q2130.56 2291.67 2128.64 2293.03 Q2126.71 2294.39 2123.13 2294.39 Q2121.97 2294.39 2120.7 2294.17 Q2119.44 2293.96 2118.02 2293.56 L2118.02 2291.11 Q2119.08 2291.65 2120.27 2291.92 Q2121.49 2292.18 2122.84 2292.18 Q2125.05 2292.18 2126.27 2291.39 Q2127.48 2290.58 2127.48 2289.16 Q2127.48 2287.66 2126.35 2286.89 Q2125.23 2286.13 2123.05 2286.13 L2121.3 2286.13 L2121.3 2283.94 L2123.21 2283.94 Q2125.11 2283.94 2126.08 2283.31 Q2127.08 2282.66 2127.08 2281.45 Q2127.08 2280.27 2126.06 2279.66 Q2125.05 2279.04 2123.13 2279.04 Q2122.32 2279.04 2121.28 2279.22 Q2120.25 2279.4 2118.61 2279.87 L2118.61 2277.54 Q2120.09 2277.19 2121.39 2277.01 Q2122.68 2276.83 2123.8 2276.83 Q2126.71 2276.83 2128.41 2278.02 Q2130.14 2279.22 2130.14 2281.22 Q2130.14 2282.62 2129.22 2283.59 Q2128.31 2284.57 2126.65 2284.93 Z" fill="#000000" fill-rule="evenodd" fill-opacity="1" /><path clip-path="url(#clip040)" d="M2143.2 2263.85 L2146.64 2263.85 L2136.11 2297.93 L2132.67 2297.93 L2143.2 2263.85 Z" fill="#000000" fill-rule="evenodd" fill-opacity="1" /><path clip-path="url(#clip040)" d="M2155.49 2294.67 Q2152.64 2294.67 2150.77 2292.95 Q2148.57 2290.91 2148.57 2287.2 Q2148.57 2283.35 2150.51 2280.35 Q2152.52 2277.27 2156.12 2277.27 Q2158.49 2277.27 2160.35 2278.75 Q2161.45 2279.62 2162.2 2281.08 Q2162.46 2279.44 2162.46 2277.58 Q2162.46 2274.84 2161.81 2273.26 Q2160.38 2269.76 2156.57 2269.76 Q2155.13 2269.76 2152.9 2270.65 L2152.9 2267.25 Q2155.25 2266.62 2157.36 2266.62 Q2162.79 2266.62 2165.09 2271.6 Q2166.17 2273.95 2166.17 2277.46 Q2166.17 2279.74 2165.66 2282.4 Q2164.39 2289.04 2161.08 2292.2 Q2158.49 2294.67 2155.49 2294.67 M2152.03 2287.81 Q2152.03 2289.83 2152.92 2290.93 Q2153.87 2292.08 2155.33 2292.08 Q2156.63 2292.08 2157.66 2291.17 Q2159.12 2289.91 2160.19 2287.87 Q2161.08 2286.19 2161.53 2284.38 Q2159.73 2280.03 2156.61 2280.03 Q2153.93 2280.03 2152.76 2283.55 Q2152.03 2285.74 2152.03 2287.81 Z" fill="#000000" fill-rule="evenodd" fill-opacity="1" /><path clip-path="url(#clip040)" d="M2181.44 2296.19 Q2179.86 2300.24 2178.36 2301.48 Q2176.86 2302.71 2174.35 2302.71 L2171.37 2302.71 L2171.37 2299.59 L2173.56 2299.59 Q2175.1 2299.59 2175.95 2298.87 Q2176.8 2298.14 2177.83 2295.42 L2178.5 2293.72 L2169.33 2271.4 L2173.28 2271.4 L2180.37 2289.14 L2187.46 2271.4 L2191.41 2271.4 L2181.44 2296.19 Z" fill="#000000" fill-rule="evenodd" fill-opacity="1" /><path clip-path="url(#clip040)" d="M2195.8 2291.86 L2199.93 2291.86 L2199.93 2279.48 L2195.42 2280.31 L2195.42 2277.96 L2200.07 2277.17 L2202.85 2277.17 L2202.85 2291.86 L2207 2291.86 L2207 2294.09 L2195.8 2294.09 L2195.8 2291.86 Z" fill="#000000" fill-rule="evenodd" fill-opacity="1" /><path clip-path="url(#clip040)" d="M2646.52 2294.67 Q2643.67 2294.67 2641.8 2292.95 Q2639.6 2290.91 2639.6 2287.2 Q2639.6 2283.35 2641.54 2280.35 Q2643.55 2277.27 2647.15 2277.27 Q2649.52 2277.27 2651.38 2278.75 Q2652.48 2279.62 2653.23 2281.08 Q2653.49 2279.44 2653.49 2277.58 Q2653.49 2274.84 2652.84 2273.26 Q2651.4 2269.76 2647.6 2269.76 Q2646.16 2269.76 2643.93 2270.65 L2643.93 2267.25 Q2646.28 2266.62 2648.39 2266.62 Q2653.81 2266.62 2656.12 2271.6 Q2657.2 2273.95 2657.2 2277.46 Q2657.2 2279.74 2656.69 2282.4 Q2655.42 2289.04 2652.11 2292.2 Q2649.52 2294.67 2646.52 2294.67 M2643.06 2287.81 Q2643.06 2289.83 2643.95 2290.93 Q2644.9 2292.08 2646.36 2292.08 Q2647.66 2292.08 2648.69 2291.17 Q2650.15 2289.91 2651.22 2287.87 Q2652.11 2286.19 2652.56 2284.38 Q2650.76 2280.03 2647.64 2280.03 Q2644.96 2280.03 2643.79 2283.55 Q2643.06 2285.74 2643.06 2287.81 Z" fill="#000000" fill-rule="evenodd" fill-opacity="1" /><path clip-path="url(#clip040)" d="M2661.41 2271.4 L2679.11 2271.4 L2679.11 2274.8 L2665.1 2291.11 L2679.11 2291.11 L2679.11 2294.09 L2660.9 2294.09 L2660.9 2290.68 L2674.92 2274.38 L2661.41 2274.38 L2661.41 2271.4 Z" fill="#000000" fill-rule="evenodd" fill-opacity="1" /><path clip-path="url(#clip040)" d="M2691.43 2263.85 L2694.87 2263.85 L2684.34 2297.93 L2680.9 2297.93 L2691.43 2263.85 Z" fill="#000000" fill-rule="evenodd" fill-opacity="1" /><path clip-path="url(#clip040)" d="M2703.72 2294.67 Q2700.87 2294.67 2699 2292.95 Q2696.8 2290.91 2696.8 2287.2 Q2696.8 2283.35 2698.74 2280.35 Q2700.74 2277.27 2704.35 2277.27 Q2706.72 2277.27 2708.58 2278.75 Q2709.68 2279.62 2710.43 2281.08 Q2710.69 2279.44 2710.69 2277.58 Q2710.69 2274.84 2710.04 2273.26 Q2708.6 2269.76 2704.8 2269.76 Q2703.36 2269.76 2701.13 2270.65 L2701.13 2267.25 Q2703.48 2266.62 2705.59 2266.62 Q2711.01 2266.62 2713.32 2271.6 Q2714.4 2273.95 2714.4 2277.46 Q2714.4 2279.74 2713.89 2282.4 Q2712.61 2289.04 2709.31 2292.2 Q2706.72 2294.67 2703.72 2294.67 M2700.26 2287.81 Q2700.26 2289.83 2701.15 2290.93 Q2702.1 2292.08 2703.56 2292.08 Q2704.86 2292.08 2705.89 2291.17 Q2707.35 2289.91 2708.42 2287.87 Q2709.31 2286.19 2709.76 2284.38 Q2707.96 2280.03 2704.84 2280.03 Q2702.16 2280.03 2700.99 2283.55 Q2700.26 2285.74 2700.26 2287.81 Z" fill="#000000" fill-rule="evenodd" fill-opacity="1" /><path clip-path="url(#clip040)" d="M2729.67 2296.19 Q2728.09 2300.24 2726.59 2301.48 Q2725.09 2302.71 2722.58 2302.71 L2719.6 2302.71 L2719.6 2299.59 L2721.79 2299.59 Q2723.33 2299.59 2724.18 2298.87 Q2725.03 2298.14 2726.06 2295.42 L2726.73 2293.72 L2717.56 2271.4 L2721.51 2271.4 L2728.59 2289.14 L2735.68 2271.4 L2739.63 2271.4 L2729.67 2296.19 Z" fill="#000000" fill-rule="evenodd" fill-opacity="1" /><path clip-path="url(#clip040)" d="M2744.03 2291.86 L2748.16 2291.86 L2748.16 2279.48 L2743.64 2280.31 L2743.64 2277.96 L2748.3 2277.17 L2751.08 2277.17 L2751.08 2291.86 L2755.23 2291.86 L2755.23 2294.09 L2744.03 2294.09 L2744.03 2291.86 Z" fill="#000000" fill-rule="evenodd" fill-opacity="1" /><path clip-path="url(#clip040)" d="M3202.55 2852.6 Q3199.69 2852.6 3197.83 2850.88 Q3195.62 2848.84 3195.62 2845.13 Q3195.62 2841.28 3197.57 2838.28 Q3199.57 2835.2 3203.18 2835.2 Q3205.55 2835.2 3207.41 2836.68 Q3208.5 2837.55 3209.25 2839.01 Q3209.52 2837.37 3209.52 2835.51 Q3209.52 2832.77 3208.87 2831.19 Q3207.43 2827.69 3203.62 2827.69 Q3202.19 2827.69 3199.96 2828.58 L3199.96 2825.18 Q3202.31 2824.55 3204.41 2824.55 Q3209.84 2824.55 3212.15 2829.53 Q3213.22 2831.88 3213.22 2835.39 Q3213.22 2837.68 3212.72 2840.33 Q3211.44 2846.97 3208.14 2850.13 Q3205.55 2852.6 3202.55 2852.6 M3199.09 2845.74 Q3199.09 2847.76 3199.98 2848.86 Q3200.93 2850.01 3202.39 2850.01 Q3203.68 2850.01 3204.72 2849.1 Q3206.18 2847.84 3207.25 2845.8 Q3208.14 2844.12 3208.59 2842.31 Q3206.78 2837.96 3203.66 2837.96 Q3200.99 2837.96 3199.82 2841.48 Q3199.09 2843.67 3199.09 2845.74 Z" fill="#000000" fill-rule="evenodd" fill-opacity="1" /><path clip-path="url(#clip040)" d="M3228.5 2854.12 Q3226.92 2858.17 3225.42 2859.41 Q3223.92 2860.64 3221.41 2860.64 L3218.43 2860.64 L3218.43 2857.52 L3220.62 2857.52 Q3222.16 2857.52 3223.01 2856.8 Q3223.86 2856.07 3224.89 2853.35 L3225.56 2851.65 L3216.38 2829.33 L3220.33 2829.33 L3227.42 2847.07 L3234.51 2829.33 L3238.46 2829.33 L3228.5 2854.12 Z" fill="#000000" fill-rule="evenodd" fill-opacity="1" /><path clip-path="url(#clip040)" d="M3245.12 2849.71 L3253.71 2849.71 L3253.71 2852.02 L3241.6 2852.02 L3241.6 2849.79 Q3242.29 2849.16 3243.57 2848.03 Q3250.53 2841.85 3250.53 2839.94 Q3250.53 2838.61 3249.48 2837.8 Q3248.43 2836.97 3246.7 2836.97 Q3245.65 2836.97 3244.42 2837.33 Q3243.18 2837.68 3241.72 2838.38 L3241.72 2835.89 Q3243.28 2835.33 3244.62 2835.04 Q3245.98 2834.76 3247.13 2834.76 Q3250.07 2834.76 3251.83 2836.1 Q3253.59 2837.43 3253.59 2839.62 Q3253.59 2842.43 3246.89 2848.19 Q3245.75 2849.16 3245.12 2849.71 Z" fill="#000000" fill-rule="evenodd" fill-opacity="1" /><path clip-path="url(#clip040)" d="M3266.86 2821.78 L3270.3 2821.78 L3259.77 2855.86 L3256.33 2855.86 L3266.86 2821.78 Z" fill="#000000" fill-rule="evenodd" fill-opacity="1" /><path clip-path="url(#clip040)" d="M3279.15 2852.6 Q3276.3 2852.6 3274.43 2850.88 Q3272.23 2848.84 3272.23 2845.13 Q3272.23 2841.28 3274.17 2838.28 Q3276.17 2835.2 3279.78 2835.2 Q3282.15 2835.2 3284.01 2836.68 Q3285.11 2837.55 3285.86 2839.01 Q3286.12 2837.37 3286.12 2835.51 Q3286.12 2832.77 3285.47 2831.19 Q3284.03 2827.69 3280.23 2827.69 Q3278.79 2827.69 3276.56 2828.58 L3276.56 2825.18 Q3278.91 2824.55 3281.02 2824.55 Q3286.44 2824.55 3288.75 2829.53 Q3289.83 2831.88 3289.83 2835.39 Q3289.83 2837.68 3289.32 2840.33 Q3288.04 2846.97 3284.74 2850.13 Q3282.15 2852.6 3279.15 2852.6 M3275.69 2845.74 Q3275.69 2847.76 3276.58 2848.86 Q3277.53 2850.01 3278.99 2850.01 Q3280.29 2850.01 3281.32 2849.1 Q3282.78 2847.84 3283.85 2845.8 Q3284.74 2844.12 3285.19 2842.31 Q3283.39 2837.96 3280.27 2837.96 Q3277.59 2837.96 3276.42 2841.48 Q3275.69 2843.67 3275.69 2845.74 Z" fill="#000000" fill-rule="evenodd" fill-opacity="1" /><path clip-path="url(#clip040)" d="M3305.1 2854.12 Q3303.52 2858.17 3302.02 2859.41 Q3300.52 2860.64 3298.01 2860.64 L3295.03 2860.64 L3295.03 2857.52 L3297.22 2857.52 Q3298.76 2857.52 3299.61 2856.8 Q3300.46 2856.07 3301.49 2853.35 L3302.16 2851.65 L3292.99 2829.33 L3296.94 2829.33 L3304.02 2847.07 L3311.11 2829.33 L3315.06 2829.33 L3305.1 2854.12 Z" fill="#000000" fill-rule="evenodd" fill-opacity="1" /><path clip-path="url(#clip040)" d="M3110.75 3410.53 Q3107.89 3410.53 3106.03 3408.81 Q3103.82 3406.77 3103.82 3403.06 Q3103.82 3399.21 3105.76 3396.21 Q3107.77 3393.13 3111.37 3393.13 Q3113.74 3393.13 3115.61 3394.61 Q3116.7 3395.48 3117.45 3396.94 Q3117.71 3395.3 3117.71 3393.44 Q3117.71 3390.7 3117.07 3389.12 Q3115.63 3385.62 3111.82 3385.62 Q3110.38 3385.62 3108.15 3386.51 L3108.15 3383.11 Q3110.5 3382.48 3112.61 3382.48 Q3118.04 3382.48 3120.35 3387.46 Q3121.42 3389.81 3121.42 3393.32 Q3121.42 3395.61 3120.91 3398.26 Q3119.64 3404.9 3116.34 3408.06 Q3113.74 3410.53 3110.75 3410.53 M3107.28 3403.67 Q3107.28 3405.69 3108.17 3406.79 Q3109.13 3407.94 3110.58 3407.94 Q3111.88 3407.94 3112.91 3407.03 Q3114.37 3405.77 3115.45 3403.73 Q3116.34 3402.05 3116.78 3400.24 Q3114.98 3395.89 3111.86 3395.89 Q3109.19 3395.89 3108.01 3399.41 Q3107.28 3401.6 3107.28 3403.67 Z" fill="#000000" fill-rule="evenodd" fill-opacity="1" /><path clip-path="url(#clip040)" d="M3136.69 3412.05 Q3135.11 3416.1 3133.61 3417.34 Q3132.11 3418.57 3129.6 3418.57 L3126.63 3418.57 L3126.63 3415.45 L3128.81 3415.45 Q3130.35 3415.45 3131.2 3414.73 Q3132.05 3414 3133.09 3411.28 L3133.76 3409.58 L3124.58 3387.26 L3128.53 3387.26 L3135.62 3405 L3142.71 3387.26 L3146.66 3387.26 L3136.69 3412.05 Z" fill="#000000" fill-rule="evenodd" fill-opacity="1" /><path clip-path="url(#clip040)" d="M3153.32 3407.64 L3161.91 3407.64 L3161.91 3409.95 L3149.8 3409.95 L3149.8 3407.72 Q3150.49 3407.09 3151.76 3405.96 Q3158.73 3399.78 3158.73 3397.87 Q3158.73 3396.54 3157.68 3395.73 Q3156.62 3394.9 3154.9 3394.9 Q3153.85 3394.9 3152.61 3395.26 Q3151.38 3395.61 3149.92 3396.31 L3149.92 3393.82 Q3151.48 3393.26 3152.81 3392.97 Q3154.17 3392.69 3155.33 3392.69 Q3158.26 3392.69 3160.03 3394.03 Q3161.79 3395.36 3161.79 3397.55 Q3161.79 3400.37 3155.08 3406.12 Q3153.95 3407.09 3153.32 3407.64 Z" fill="#000000" fill-rule="evenodd" fill-opacity="1" /><path clip-path="url(#clip040)" d="M3175.05 3379.71 L3178.5 3379.71 L3167.97 3413.79 L3164.52 3413.79 L3175.05 3379.71 Z" fill="#000000" fill-rule="evenodd" fill-opacity="1" /><path clip-path="url(#clip040)" d="M3187.35 3410.53 Q3184.49 3410.53 3182.63 3408.81 Q3180.42 3406.77 3180.42 3403.06 Q3180.42 3399.21 3182.37 3396.21 Q3184.37 3393.13 3187.98 3393.13 Q3190.35 3393.13 3192.21 3394.61 Q3193.3 3395.48 3194.05 3396.94 Q3194.32 3395.3 3194.32 3393.44 Q3194.32 3390.7 3193.67 3389.12 Q3192.23 3385.62 3188.42 3385.62 Q3186.98 3385.62 3184.76 3386.51 L3184.76 3383.11 Q3187.11 3382.48 3189.21 3382.48 Q3194.64 3382.48 3196.95 3387.46 Q3198.02 3389.81 3198.02 3393.32 Q3198.02 3395.61 3197.52 3398.26 Q3196.24 3404.9 3192.94 3408.06 Q3190.35 3410.53 3187.35 3410.53 M3183.89 3403.67 Q3183.89 3405.69 3184.78 3406.79 Q3185.73 3407.94 3187.19 3407.94 Q3188.48 3407.94 3189.52 3407.03 Q3190.97 3405.77 3192.05 3403.73 Q3192.94 3402.05 3193.38 3400.24 Q3191.58 3395.89 3188.46 3395.89 Q3185.79 3395.89 3184.61 3399.41 Q3183.89 3401.6 3183.89 3403.67 Z" fill="#000000" fill-rule="evenodd" fill-opacity="1" /><path clip-path="url(#clip040)" d="M3222.71 3387.26 L3214.51 3398.3 L3223.14 3409.95 L3218.74 3409.95 L3212.14 3401.03 L3205.54 3409.95 L3201.14 3409.95 L3209.95 3398.08 L3201.89 3387.26 L3206.29 3387.26 L3212.3 3395.34 L3218.32 3387.26 L3222.71 3387.26 Z" fill="#000000" fill-rule="evenodd" fill-opacity="1" /><path clip-path="url(#clip040)" d="M3256.76 3383.94 L3256.76 3395.22 L3268.04 3395.22 L3268.04 3398.66 L3256.76 3398.66 L3256.76 3409.95 L3253.36 3409.95 L3253.36 3398.66 L3242.08 3398.66 L3242.08 3395.22 L3253.36 3395.22 L3253.36 3383.94 L3256.76 3383.94 Z" fill="#000000" fill-rule="evenodd" fill-opacity="1" /><path clip-path="url(#clip040)" d="M3294.47 3410.53 Q3291.62 3410.53 3289.76 3408.81 Q3287.55 3406.77 3287.55 3403.06 Q3287.55 3399.21 3289.49 3396.21 Q3291.5 3393.13 3295.1 3393.13 Q3297.47 3393.13 3299.34 3394.61 Q3300.43 3395.48 3301.18 3396.94 Q3301.44 3395.3 3301.44 3393.44 Q3301.44 3390.7 3300.79 3389.12 Q3299.36 3385.62 3295.55 3385.62 Q3294.11 3385.62 3291.88 3386.51 L3291.88 3383.11 Q3294.23 3382.48 3296.34 3382.48 Q3301.77 3382.48 3304.08 3387.46 Q3305.15 3389.81 3305.15 3393.32 Q3305.15 3395.61 3304.64 3398.26 Q3303.37 3404.9 3300.07 3408.06 Q3297.47 3410.53 3294.47 3410.53 M3291.01 3403.67 Q3291.01 3405.69 3291.9 3406.79 Q3292.85 3407.94 3294.31 3407.94 Q3295.61 3407.94 3296.64 3407.03 Q3298.1 3405.77 3299.17 3403.73 Q3300.07 3402.05 3300.51 3400.24 Q3298.71 3395.89 3295.59 3395.89 Q3292.92 3395.89 3291.74 3399.41 Q3291.01 3401.6 3291.01 3403.67 Z" fill="#000000" fill-rule="evenodd" fill-opacity="1" /><path clip-path="url(#clip040)" d="M3320.42 3412.05 Q3318.84 3416.1 3317.34 3417.34 Q3315.84 3418.57 3313.33 3418.57 L3310.35 3418.57 L3310.35 3415.45 L3312.54 3415.45 Q3314.08 3415.45 3314.93 3414.73 Q3315.78 3414 3316.82 3411.28 L3317.48 3409.58 L3308.31 3387.26 L3312.26 3387.26 L3319.35 3405 L3326.44 3387.26 L3330.39 3387.26 L3320.42 3412.05 Z" fill="#000000" fill-rule="evenodd" fill-opacity="1" /><path clip-path="url(#clip040)" d="M3334.78 3407.72 L3338.91 3407.72 L3338.91 3395.34 L3334.4 3396.17 L3334.4 3393.82 L3339.06 3393.03 L3341.83 3393.03 L3341.83 3407.72 L3345.98 3407.72 L3345.98 3409.95 L3334.78 3409.95 L3334.78 3407.72 Z" fill="#000000" fill-rule="evenodd" fill-opacity="1" /><path clip-path="url(#clip040)" d="M3358.78 3379.71 L3362.23 3379.71 L3351.69 3413.79 L3348.25 3413.79 L3358.78 3379.71 Z" fill="#000000" fill-rule="evenodd" fill-opacity="1" /><path clip-path="url(#clip040)" d="M3371.08 3410.53 Q3368.22 3410.53 3366.36 3408.81 Q3364.15 3406.77 3364.15 3403.06 Q3364.15 3399.21 3366.09 3396.21 Q3368.1 3393.13 3371.71 3393.13 Q3374.08 3393.13 3375.94 3394.61 Q3377.03 3395.48 3377.78 3396.94 Q3378.04 3395.3 3378.04 3393.44 Q3378.04 3390.7 3377.4 3389.12 Q3375.96 3385.62 3372.15 3385.62 Q3370.71 3385.62 3368.48 3386.51 L3368.48 3383.11 Q3370.83 3382.48 3372.94 3382.48 Q3378.37 3382.48 3380.68 3387.46 Q3381.75 3389.81 3381.75 3393.32 Q3381.75 3395.61 3381.25 3398.26 Q3379.97 3404.9 3376.67 3408.06 Q3374.08 3410.53 3371.08 3410.53 M3367.61 3403.67 Q3367.61 3405.69 3368.51 3406.79 Q3369.46 3407.94 3370.92 3407.94 Q3372.21 3407.94 3373.24 3407.03 Q3374.7 3405.77 3375.78 3403.73 Q3376.67 3402.05 3377.11 3400.24 Q3375.31 3395.89 3372.19 3395.89 Q3369.52 3395.89 3368.34 3399.41 Q3367.61 3401.6 3367.61 3403.67 Z" fill="#000000" fill-rule="evenodd" fill-opacity="1" /><path clip-path="url(#clip040)" d="M3406.44 3387.26 L3398.24 3398.3 L3406.87 3409.95 L3402.47 3409.95 L3395.87 3401.03 L3389.27 3409.95 L3384.87 3409.95 L3393.68 3398.08 L3385.62 3387.26 L3390.02 3387.26 L3396.03 3395.34 L3402.05 3387.26 L3406.44 3387.26 Z" fill="#000000" fill-rule="evenodd" fill-opacity="1" /></svg>
