<?xml version="1.0" encoding="UTF-8" standalone="no"?>
<!-- Generator: Adobe Illustrator 15.0.0, SVG Export Plug-In . SVG Version: 6.00 Build 0)  -->

<svg
   xmlns:dc="http://purl.org/dc/elements/1.1/"
   xmlns:cc="http://creativecommons.org/ns#"
   xmlns:rdf="http://www.w3.org/1999/02/22-rdf-syntax-ns#"
   xmlns:svg="http://www.w3.org/2000/svg"
   xmlns="http://www.w3.org/2000/svg"
   xmlns:sodipodi="http://sodipodi.sourceforge.net/DTD/sodipodi-0.dtd"
   xmlns:inkscape="http://www.inkscape.org/namespaces/inkscape"
   version="1.1"
   id="Layer_1"
   x="0px"
   y="0px"
   width="600"
   height="600"
   viewBox="0 0 600.00002 600.00001"
   enable-background="new 0 0 141.73 141.73"
   xml:space="preserve"
   sodipodi:docname="CTU-logo.svg"
   inkscape:version="0.92.5 (2060ec1f9f, 2020-04-08)"><metadata
   id="metadata11"><rdf:RDF><cc:Work
       rdf:about=""><dc:format>image/svg+xml</dc:format><dc:type
         rdf:resource="http://purl.org/dc/dcmitype/StillImage" /><dc:title /></cc:Work></rdf:RDF></metadata><defs
   id="defs9">
	
</defs><sodipodi:namedview
   pagecolor="#ffffff"
   bordercolor="#666666"
   borderopacity="1"
   objecttolerance="10"
   gridtolerance="10"
   guidetolerance="10"
   inkscape:pageopacity="0"
   inkscape:pageshadow="2"
   inkscape:window-width="1920"
   inkscape:window-height="976"
   id="namedview7"
   showgrid="false"
   inkscape:zoom="0.832569"
   inkscape:cx="120.08083"
   inkscape:cy="155.51382"
   inkscape:window-x="0"
   inkscape:window-y="27"
   inkscape:window-maximized="1"
   inkscape:current-layer="Layer_1"
   fit-margin-top="0"
   fit-margin-left="0"
   fit-margin-right="0"
   fit-margin-bottom="0" />
<g
   id="g855"
   transform="matrix(4.7699304,0,0,4.7699304,-30.303368,-101.88559)"><path
     id="path861"
     d="m 114.873,61.461 3.63,-2.649 c -1.373,-1.472 -2.846,-3.238 -2.846,-6.083 0,-2.159 1.473,-4.513 3.337,-5.495 -0.981,-1.178 -2.551,-2.257 -4.809,-2.257 -2.942,0 -5.396,2.159 -5.396,5.004 0,1.962 1.276,3.63 2.747,4.416 0,2.747 1.276,5.2 3.337,7.064"
     style="fill:#0065bd"
     inkscape:connector-curvature="0" /><path
     id="path859"
     d="m 95.445,42.132 3.042,-5.397 h -4.514 c 0,0.981 -0.883,2.061 -1.964,2.061 -1.177,0 -1.961,-0.785 -1.961,-2.061 h -4.022 c 0,1.178 -0.884,2.061 -1.963,2.061 -1.078,0 -1.963,-0.882 -1.963,-2.061 h -4.513 l 2.648,5.201 c 2.061,-0.196 4.023,-0.295 5.985,-0.295 3.633,0 6.772,0.196 9.225,0.491"
     style="fill:#0065bd"
     inkscape:connector-curvature="0" /><path
     id="path857"
     d="m 87.204,90.015 c -0.491,-0.885 -0.982,-1.964 -0.982,-3.926 0,-2.552 1.472,-4.709 4.611,-6.083 2.062,-0.982 3.631,-1.864 6.379,-3.238 6.476,-3.337 8.732,-9.615 8.732,-16.09 0,-3.239 -0.883,-5.79 -1.964,-7.948 0.295,1.766 0.59,3.238 0.59,5.004 0,6.77 -2.354,11.774 -8.536,14.815 -3.926,1.962 -5.887,2.748 -8.243,3.926 -3.335,1.765 -5.199,4.021 -5.199,6.768 0,3.435 1.765,5.985 4.612,6.772"
     style="fill:#ca3a33;fill-opacity:1"
     inkscape:connector-curvature="0" /><path
     id="path855"
     d="m 83.376,88.738 c -1.079,-1.08 -2.256,-3.042 -2.256,-5.594 0,-3.236 2.158,-5.985 5.985,-7.947 3.336,-1.569 5.298,-2.354 8.241,-3.729 6.182,-3.042 8.047,-8.241 8.047,-13.834 0,-5.396 -1.768,-8.145 -3.239,-9.91 1.08,2.061 1.374,4.514 1.374,6.574 0,5.985 -1.767,11.185 -8.731,13.933 -3.533,1.472 -5.79,1.962 -8.832,3.335 -4.808,2.259 -6.672,4.908 -6.672,8.832 0,3.729 2.354,7.26 6.083,8.34"
     style="fill:#9457b0;fill-opacity:1"
     inkscape:connector-curvature="0" /><path
     id="path853"
     d="m 79.647,87.953 c -1.668,-1.374 -3.827,-3.629 -3.827,-7.652 0,-4.221 1.768,-7.36 7.263,-9.714 3.531,-1.472 5.396,-2.159 8.731,-3.434 7.065,-2.649 8.537,-7.85 8.537,-12.951 0,-4.907 -1.767,-7.752 -3.926,-9.617 1.276,1.57 2.062,4.22 2.062,6.967 0,6.476 -2.453,10.105 -9.42,12.559 -2.846,0.884 -5.887,1.767 -9.026,2.944 -5.692,2.159 -8.636,5.299 -8.636,10.597 0,5.493 4.22,9.616 8.242,10.301"
     style="fill:#389723;fill-opacity:1"
     inkscape:connector-curvature="0" /><path
     id="path851"
     d="m 75.723,87.268 c -3.924,-1.964 -5.789,-6.183 -5.789,-9.911 0,-5.397 3.336,-9.223 8.928,-11.283 3.435,-1.276 6.183,-2.061 9.616,-3.238 6.673,-2.355 8.832,-5.496 8.832,-11.48 0,-3.434 -1.276,-6.378 -3.337,-8.046 0.688,0.786 0.884,1.767 0.884,2.65 0,1.667 -0.884,2.453 -2.159,2.453 -0.785,0 -1.57,-0.491 -1.668,-1.275 0.393,0.294 0.687,0.391 1.078,0.391 1.081,0 1.668,-0.784 1.668,-1.863 0,-1.668 -1.569,-2.551 -3.139,-2.747 -1.374,-0.196 -2.847,-0.196 -4.515,-0.196 -1.667,0 -3.237,0.098 -5.297,0.196 1.274,1.765 5.493,1.275 6.77,2.158 -1.079,-0.099 -2.158,-0.099 -3.238,0.196 0,0.687 -0.294,1.472 -0.981,1.472 -1.275,0 -1.863,-1.374 -2.747,-3.826 l -5.004,0.392 c -0.784,0.098 -1.079,0.392 -0.981,0.982 l 0.491,4.905 c 0,0.197 0.196,0.294 0.393,0.294 0.195,0 0.392,-0.098 0.49,-0.392 0.195,-0.392 0.785,-1.276 2.257,-1.276 2.158,0 3.826,1.963 3.924,4.22 -0.783,-1.08 -2.551,-2.061 -5.493,-2.061 -2.258,0 -4.121,0.686 -7.065,0.686 -3.14,0 -4.906,-1.177 -4.906,-2.649 0,-0.687 0.098,-1.079 0.491,-1.57 -1.276,0.589 -2.257,1.668 -2.257,3.435 0,2.158 1.57,4.415 6.182,4.415 4.22,0 6.182,-2.649 10.008,-2.649 1.767,0 2.648,0.883 2.648,1.863 0,0.884 -0.784,1.668 -2.158,1.668 -1.668,0 -2.845,-0.882 -3.435,-1.766 -0.098,-0.195 -0.195,-0.293 -0.393,-0.293 -0.293,0 -0.391,0.196 -0.391,0.391 l 0.098,4.711 c 0,0.588 0.293,0.883 0.98,0.786 2.944,-0.295 5.985,-0.688 8.832,-0.884 5.298,-0.49 8.928,-4.022 8.928,-7.947 0,-0.589 0,-1.08 -0.099,-1.668 0.492,0.785 0.688,1.571 0.688,2.552 0,3.631 -1.963,6.377 -8.243,8.046 -3.336,0.882 -5.788,1.275 -8.635,1.962 -7.555,1.767 -12.461,7.555 -12.461,14.031 0,5.982 4.22,11.378 10.205,12.165"
     style="fill:#0065bd"
     inkscape:connector-curvature="0" /><path
     id="path849"
     d="m 42.854,51.846 c 0.393,-0.883 0.49,-1.668 0.49,-2.257 0,-1.275 -0.588,-2.453 -1.178,-2.944 1.472,0 2.747,1.08 2.747,2.551 0,1.374 -0.882,2.257 -2.059,2.65"
     style="fill:#0065bd"
     inkscape:connector-curvature="0" /><path
     id="path847"
     d="m 60.908,75.197 3.139,-1.667 c 1.08,-6.575 5.004,-11.186 11.872,-12.853 -3.63,0.195 -6.77,0.293 -11.185,0.489 -4.71,0.197 -12.461,0.786 -17.858,1.178 -1.079,0.098 -1.766,-0.293 -2.061,-1.178 -0.293,-0.98 -0.882,-2.845 -0.981,-3.924 -0.098,-0.883 0.099,-1.472 0.884,-2.061 1.569,-1.079 3.139,-2.354 3.139,-5.003 0,-2.846 -2.453,-4.71 -4.709,-4.71 -0.786,0 -1.374,0.099 -1.864,0.295 -0.589,-0.393 -1.177,-0.687 -2.356,-0.687 -1.667,0 -3.139,1.079 -3.532,1.962 -2.845,-0.196 -5.102,1.865 -4.906,4.612 0.393,-0.392 1.177,-0.786 2.061,-0.786 1.079,0 2.06,0.786 2.06,1.963 0,1.08 -0.196,2.453 -0.196,3.925 0,4.514 3.631,6.869 3.631,9.223 0,1.178 -0.883,2.159 -2.061,2.159 0.687,2.453 2.943,3.728 5.985,3.728 1.963,0 3.729,-0.195 6.574,-0.195 8.144,-0.001 11.676,0.882 12.364,3.53"
     style="fill:#0065bd"
     inkscape:connector-curvature="0" /><path
     id="path845"
     d="m 91.128,102.965 h 0.98 c -0.099,-3.139 -0.882,-5.298 -2.158,-7.555 -0.687,-1.274 -1.569,-2.649 -2.257,-3.533 -0.392,-0.588 -0.882,-0.783 -1.472,-0.783 -0.393,0 -0.687,0.293 -0.393,0.783 0.785,1.276 1.864,3.238 3.238,6.28 -1.178,0.197 -1.472,0.786 -1.472,1.767 0.002,1.569 1.473,3.041 3.534,3.041"
     style="fill:#0065bd"
     inkscape:connector-curvature="0" /><path
     id="path843"
     d="m 39.026,52.238 c 0.098,-2.748 -1.079,-4.22 -2.747,-4.906 0.294,-0.098 0.687,-0.294 1.275,-0.294 1.276,0 2.65,1.08 2.65,2.748 10e-4,0.881 -0.294,1.863 -1.178,2.452"
     style="fill:#0065bd"
     inkscape:connector-curvature="0" /><path
     id="path841"
     d="m 101.921,121.313 c -0.393,-0.883 -1.668,-1.765 -3.237,-1.765 -0.884,0 -1.472,0.195 -1.865,0.391 0.099,-0.785 0.884,-1.667 2.454,-1.667 1.864,0 2.845,1.472 2.648,3.041"
     style="fill:#0065bd"
     inkscape:connector-curvature="0" /><path
     id="path839"
     d="m 101.332,125.534 c -0.588,-0.688 -1.57,-1.276 -2.845,-1.276 -1.57,0 -2.354,0.687 -2.748,1.177 -0.196,-1.177 0.785,-2.649 2.649,-2.649 1.964,-0.001 2.944,1.374 2.944,2.748"
     style="fill:#0065bd"
     inkscape:connector-curvature="0" /><path
     id="path837"
     d="m 31.569,78.729 c 0.688,-1.668 2.257,-2.845 4.122,-3.237 0.392,-0.59 0.882,-1.079 1.374,-1.472 L 33.729,60.087 c -0.393,-0.981 -0.687,-1.963 -0.687,-3.336 0,-1.472 0.294,-2.944 0.294,-3.729 0,-0.687 -0.393,-0.883 -0.785,-0.883 -0.294,0 -0.491,0 -0.589,0.099 v 0.392 c 0,2.257 -1.374,4.022 -3.63,4.022 -2.257,0 -4.024,-1.863 -4.024,-4.022 0,-2.159 1.767,-3.924 4.024,-3.924 0.392,0 0.883,0 1.472,0.196 0.686,-1.767 2.845,-3.336 5.102,-3.042 -1.57,-1.962 -3.924,-3.139 -6.573,-3.139 -5.692,0 -10.205,4.12 -10.205,9.909 0,5.397 4.415,9.714 9.91,9.812 z"
     style="fill:#0065bd"
     inkscape:connector-curvature="0" /><path
     id="path835"
     d="m 46.778,99.826 c 1.472,0 3.042,-0.785 4.514,-2.257 2.649,-2.552 6.378,-6.378 8.634,-7.85 1.963,-1.274 3.238,-1.767 4.513,-1.767 0.786,0 1.374,0.197 1.962,0.785 l 3.336,-2.552 C 65.911,83.34 64.144,79.612 64.046,75 c -5.298,2.845 -9.125,6.769 -13.54,10.499 -0.786,0.588 -1.178,0.883 -1.865,0.883 -0.687,0 -1.275,-0.688 -2.452,-1.864 -0.982,-0.982 -1.178,-1.57 -1.178,-2.257 0,-1.178 0.392,-1.57 0.392,-3.14 0,-3.141 -2.452,-4.907 -4.808,-4.907 -1.962,0 -3.434,1.081 -3.925,2.454 -2.649,0.196 -4.317,2.158 -4.317,4.218 0,0.492 0.098,0.883 0.196,1.178 -0.982,0.59 -1.963,1.767 -1.963,3.336 0,1.669 0.883,3.239 2.354,3.729 -0.195,-0.295 -0.293,-0.685 -0.293,-1.177 0,-0.883 0.785,-1.667 1.863,-1.667 0.884,0 1.472,0.293 2.159,1.077 0.883,1.18 1.767,2.259 3.238,3.533 1.374,1.178 2.944,1.962 4.416,2.847 0.883,0.588 1.57,1.372 1.57,2.55 0,0.786 -0.589,1.669 -1.766,1.964 0.493,1.078 1.474,1.57 2.651,1.57"
     style="fill:#0065bd"
     inkscape:connector-curvature="0" /><path
     id="path833"
     d="m 41.186,80.692 c -0.099,-1.963 -1.57,-3.533 -3.435,-3.925 0.295,-0.195 0.786,-0.49 1.57,-0.49 1.374,0 2.454,1.177 2.454,2.452 -10e-4,0.982 -0.296,1.472 -0.589,1.963"
     style="fill:#0065bd"
     inkscape:connector-curvature="0" /><path
     id="path831"
     d="m 52.077,132.304 c -0.393,-0.491 -0.589,-0.981 -0.589,-1.571 0,-1.177 0.98,-2.06 2.354,-2.06 2.159,0 3.336,2.354 6.182,2.354 3.238,0 4.808,-2.354 7.752,-2.354 1.472,0 3.531,0.883 3.531,2.747 0,0.295 -0.098,0.59 -0.293,0.785 3.334,0 5.691,-2.845 5.691,-7.556 0,-6.572 -0.197,-9.224 -0.295,-12.853 2.551,-0.098 5.005,-1.374 4.611,-5.396 -0.688,0.588 -1.472,0.883 -2.354,0.883 -1.178,0 -2.061,-0.883 -2.061,-2.159 0,-0.589 0,-1.276 0.099,-1.962 l 11.479,-0.295 c -1.078,-0.589 -1.864,-1.767 -1.864,-3.139 0,-0.982 0.394,-1.669 1.179,-2.062 -1.08,-2.257 -1.963,-4.023 -3.042,-5.69 -0.589,-0.883 -1.275,-1.767 -2.65,-1.767 -3.041,-0.098 -9.222,0.784 -12.362,1.864 -2.355,0.784 -4.612,2.551 -4.612,6.574 0,3.728 1.276,10.302 1.177,20.605 0,1.472 -0.393,1.962 -1.275,2.157 -0.785,0.197 -2.845,0.393 -4.121,0.197 -0.687,-0.098 -1.275,-0.588 -1.668,-2.06 -0.491,-2.062 -1.962,-4.123 -4.906,-4.123 -2.649,0 -5.003,1.964 -4.612,4.906 -1.275,0.786 -1.864,2.062 -1.864,3.238 0,1.176 0.392,2.159 0.883,2.748 -0.294,0.688 -0.393,1.078 -0.393,1.766 -0.001,2.456 2.158,4.223 4.023,4.223"
     style="fill:#0065bd"
     inkscape:connector-curvature="0" /><path
     id="path829"
     d="m 38.242,83.342 c -0.589,-1.177 -1.864,-1.864 -3.336,-1.864 -0.588,0 -1.079,0.098 -1.472,0.195 0.196,-0.785 1.079,-1.472 2.355,-1.472 1.667,0 2.747,1.277 2.453,3.141"
     style="fill:#0065bd"
     inkscape:connector-curvature="0" /><path
     id="path827"
     d="m 55.412,121.313 c -0.392,-0.883 -1.668,-1.765 -3.238,-1.765 -0.883,0 -1.472,0.195 -1.864,0.391 0.099,-0.785 0.883,-1.667 2.453,-1.667 1.864,0 2.845,1.472 2.649,3.041"
     style="fill:#0065bd"
     inkscape:connector-curvature="0" /><path
     id="path825"
     d="m 47.072,129.851 c -0.294,-0.59 -0.393,-1.178 -0.393,-1.767 0,-0.588 0.098,-1.078 0.294,-1.57 -0.491,-0.882 -0.784,-1.864 -0.784,-2.943 0,-1.472 0.686,-2.845 1.667,-3.729 L 41.773,93.448 c -0.982,-0.49 -1.963,-1.079 -2.748,-1.767 -1.374,-1.177 -2.158,-2.06 -3.434,-3.531 -0.392,-0.395 -0.687,-0.59 -1.08,-0.59 -0.588,0 -0.98,0.393 -0.784,1.178 l 1.275,6.082 2.649,1.865 7.359,31.596 z"
     style="fill:#0065bd"
     inkscape:connector-curvature="0" /><path
     id="path823"
     d="m 54.824,125.534 c -0.589,-0.688 -1.57,-1.276 -2.845,-1.276 -1.57,0 -2.356,0.687 -2.749,1.177 -0.195,-1.177 0.786,-2.649 2.65,-2.649 1.962,-0.001 2.944,1.374 2.944,2.748"
     style="fill:#0065bd"
     inkscape:connector-curvature="0" /><path
     id="path821"
     d="m 6.353,132.892 5.984,-4.61 7.359,-31.596 2.65,-1.865 5.887,-25.312 -1.276,-5.888 C 25.485,63.326 24.209,62.934 23.13,62.345 Z"
     style="fill:#0065bd"
     inkscape:connector-curvature="0" /><path
     id="path2"
     d="m 98.585,132.304 c -0.393,-0.491 -0.59,-0.981 -0.59,-1.571 0,-1.177 0.982,-2.06 2.356,-2.06 2.158,0 3.336,2.354 6.182,2.354 3.237,0 4.808,-2.354 7.751,-2.354 1.472,0 3.532,0.883 3.532,2.747 0,0.295 -0.099,0.59 -0.295,0.785 3.337,0 5.692,-2.845 5.692,-7.556 0,-6.279 -0.589,-13.245 -1.277,-20.212 1.767,-0.393 3.436,-2.159 3.436,-4.416 0,-0.785 -0.294,-1.667 -0.786,-2.452 -0.49,0.688 -1.372,1.274 -2.845,1.667 -2.061,0.59 -4.611,0.885 -6.476,0.885 -4.219,0 -5.594,-0.295 -7.556,-0.885 -0.099,-2.648 -1.766,-4.807 -3.336,-6.278 2.453,0.98 3.532,1.472 7.457,1.472 12.56,0 20.311,-8.438 20.311,-18.055 0,-6.966 -4.415,-10.204 -8.438,-12.56 l -3.729,2.65 c 4.514,2.061 7.457,5.101 7.457,9.222 0,4.514 -3.63,7.752 -7.85,7.752 -4.513,0 -8.046,-3.238 -8.046,-7.654 0,-3.334 1.571,-5.787 4.515,-8.143 2.943,-2.355 7.456,-5.201 9.909,-7.85 1.276,-1.374 2.355,-3.532 2.257,-5.2 1.669,-0.786 2.944,-2.454 2.944,-4.612 0,-2.845 -2.747,-5.004 -5.691,-5.004 -1.767,0 -3.729,1.08 -4.71,2.257 1.767,0.687 3.436,3.042 3.436,5.495 0,2.061 -1.276,3.826 -2.749,5.298 -2.256,2.256 -5.2,3.925 -8.438,6.574 -3.925,3.239 -6.28,7.065 -6.28,11.381 0,5.985 4.612,11.578 11.872,11.578 2.356,0 4.221,-0.49 5.595,-1.374 -2.356,2.748 -6.771,4.121 -11.383,4.121 -4.023,0 -6.771,-0.588 -9.714,-2.747 -2.649,-1.962 -4.71,-6.573 -4.611,-10.009 -2.159,1.276 -4.711,2.454 -6.868,3.436 -3.042,1.473 -4.023,3.042 -4.023,5.69 0,3.532 2.453,6.28 3.532,8.34 1.472,2.649 1.963,5.004 2.159,7.458 0.588,5.985 4.023,8.731 10.106,8.731 2.746,0 6.377,-0.197 7.85,-0.393 0.588,2.749 1.275,5.985 1.275,8.439 0,1.472 -0.394,1.962 -1.275,2.157 -0.785,0.197 -2.847,0.393 -4.121,0.197 -0.688,-0.098 -1.276,-0.588 -1.669,-2.06 -0.49,-2.062 -1.962,-4.123 -4.905,-4.123 -2.65,0 -5.005,1.964 -4.612,4.906 -1.274,0.786 -1.864,2.062 -1.864,3.238 0,1.176 0.393,2.159 0.883,2.748 -0.293,0.688 -0.392,1.078 -0.392,1.766 -0.001,2.457 2.158,4.224 4.022,4.224"
     style="fill:#0065bd"
     inkscape:connector-curvature="0" /></g>
</svg>